<svg xmlns="http://www.w3.org/2000/svg" width="1000" height="562.5">
  <path fill="#eaebeb" fill-rule="evenodd" d="M500.502 0H0v562.002l500.25-.251 500.25-.251.252-280.75.252-280.75H500.502M.75 140.669C.609 63.576.493 126.95.493 281.5c0 154.55.116 217.626.257 140.169.141-77.457.141-203.907 0-281M420.167 43c-6.509 0-12.134.3-12.5.667-.367.366-.667 6.216-.667 13V69h25V43h-11.833m132.812 15H484.35l-2.925 3.599c-2.7 3.323-3.126 3.508-5.537 2.403-2.484-1.139-3.041-.789-11.342 7.126-8.463 8.07-8.711 8.436-8.143 11.991.578 3.617.414 3.831-12.04 15.738-10.502 10.04-12.93 11.91-14.429 11.108-.991-.531-2.293-.965-2.892-.965-.599 0-4.941 3.698-9.649 8.218-7.895 7.58-8.53 8.48-8.168 11.584.358 3.066-.168 3.856-5.931 8.916l-6.324 5.552.265 29.115.265 29.115 10.5.203c5.775.112 11.416.224 12.537.25 1.248.029 3.484 1.987 5.78 5.061l3.743 5.015 30.72-.265 30.72-.264.265-29.75.265-29.75h122.931l.269 21.75.27 21.75 43.5.214c23.925.117 44.962-.045 46.75-.362l3.25-.575v-50.845l-6.45-6.034c-5.876-5.497-6.363-6.259-5.484-8.572.883-2.321.263-3.258-7.261-10.966-4.524-4.635-9.289-8.694-10.589-9.021-1.299-.326-2.878-.077-3.507.552-.86.86-4.313-2.016-13.868-11.549-10.827-10.803-12.574-12.972-11.726-14.556.548-1.024.74-2.667.428-3.651-.313-.984-4.194-5.329-8.627-9.655-7.683-7.499-8.191-7.815-10.905-6.79-2.579.973-3.156.756-6.125-2.308L621.608 58h-68.629M271.225 85.015c-.399.008-4.272 4.118-8.608 9.132-4.336 5.014-7.936 9.806-8 10.648-.064.843 4.383 5.068 9.883 9.39 5.5 4.322 10.729 7.736 11.621 7.587.891-.15 5.277-4.547 9.745-9.772 4.468-5.225 8.126-10.03 8.129-10.679.003-.648-4.956-4.585-11.02-8.75-6.064-4.164-11.352-7.564-11.75-7.556m105.237 20.19c-2.772-.162-5.359.025-5.75.417-.392.391-.712 3.336-.712 6.545V118h12.095l-.297-6.25-.298-6.25-5.038-.295M187.96 119.206c-3.047-.161-5.859.026-6.25.417-.39.391-.71 3.582-.71 7.091v6.381l6.25-.297 6.25-.298v-13l-5.54-.294m140.54 1.947c-8.25.048-16.012.469-17.25.935-2.212.833-2.25 1.137-2.25 17.821 0 11.169.373 17.203 1.09 17.647.599.37 8.812.72 18.25.777l17.16.104.274-17.895c.209-13.654-.028-18.082-1-18.685-.701-.435-8.024-.752-16.274-.704M393 123h-5v12h10v-12h-5m-9 34h-5v10h10v-10h-5m-27 6h-6v12h12v-12h-6m-113.5 3H237v13h13v-13h-6.5m-36.25 4.202-6.25-.297V184h13.091l-.295-6.75-.296-6.75-6.25-.298M324.667 174c-2.384 0-4.634.3-5 .667-.367.366-.667 2.616-.667 5V184h10v-10h-4.333m-31.417 3.202-6.25-.297v12.847l5.75.51c3.163.28 6.112.176 6.554-.231.443-.407.668-3.393.5-6.635l-.304-5.896-6.25-.298m51.032 2.997c-4.796-.277-5.267-.106-5.824 2.111-.333 1.328-.46 3.938-.282 5.802.324 3.384.331 3.388 6.125 3.689l5.802.302-.302-5.802-.301-5.801-5.218-.301m27.416.801c-1.851 0-3.665.3-4.031.667-.367.366-.667 2.662-.667 5.1v4.434l4.455-.354c4.31-.343 4.465-.257 4.75 2.649.293 2.979.351 3.006 7.045 3.3l6.75.295v-14.255l-6.992.332c-4.928.234-7.132-.037-7.468-.918-.263-.687-1.991-1.25-3.842-1.25M256.5 193H251v11h11v-11h-5.5m-75.5 6h-5.105l.303 5.25.302 5.25h9l.302-5.25.303-5.25H181m142.801 1.857c-.715-.218-2.763-.246-4.551-.063-3.135.321-3.25.491-3.25 4.827v4.494l4.25-.308c4.207-.304 4.253-.349 4.551-4.43.2-2.732-.138-4.257-1-4.52M358.345 204H340v37h38v-4.842c0-2.663-.295-10.988-.655-18.5L376.69 204h-18.345m51.155 2H403v6.383c0 5.464.278 6.456 1.928 6.888 1.327.347 2.029 1.552 2.25 3.867.222 2.319 1.006 3.662 2.527 4.33 1.274.559 2.329 2.035 2.5 3.5.284 2.44.549 2.532 7.295 2.532h7v-13l-5.25-.302-5.25-.303V206h-6.5m-104.952 1H298v13.095l6.25-.297 6.25-.298.298-6.25.297-6.25h-6.547m84.893 0H385v10h8.79l.449-4.25c.247-2.338.268-4.588.046-5-.222-.412-2.401-.75-4.844-.75m-65.982 6.208c-3.323-.161-6.36.026-6.75.416-.39.39-.702 2.772-.694 5.293.009 2.521.388 5.17.843 5.888.567.894 2.686 1.208 6.735 1l5.907-.305v-12l-6.041-.292m-50.209 1.99-5.25-.303v11.21l5.25-.303 5.25-.302v-10l-5.25-.302M211 220h-5v10h10v-10h-5m41.23 9.219c-9.541-.218-12.384.018-12.784 1.061-.283.738-.387 6.49-.231 12.781l.285 11.439h25v-25l-12.27-.281m55.02 1.151c-2.138-.573-2.25-.323-2.25 5.013V241h10v-5c0-4.785-.118-5.001-2.75-5.014-1.512-.007-3.762-.285-5-.616m97.25 7.771-4.5-.233V248h9v-9.626l-4.5-.233M378.621 253c-4.34 0-4.505.112-4.808 3.25l-.313 3.25-7 .5-7 .5v20l5.196.3 5.196.301.304-5.301c.284-4.951.485-5.321 3.054-5.616 2.472-.285 2.75-.708 2.75-4.187 0-3.636.197-3.889 3.25-4.184 3.051-.294 3.269-.574 3.557-4.563l.308-4.25h-4.494m-48.64 3H316v29.055l14.25-.278 14.25-.277.29-12c.159-6.6.038-13.012-.269-14.25-.547-2.199-.873-2.25-14.54-2.25m61.757.2c-4.05-.211-5.896.086-6.213 1-.249.715-.131 3.775.262 6.8l.713 5.5h11v-13l-5.762-.3M442 256h-6v5.441c0 2.993.337 5.642.75 5.889.413.246 3.113.215 6-.068l5.25-.516V256h-6m-50 3h-4v8h8v-8h-4m10.648 12.392c-2.411-.068-4.016.403-4.351 1.276-.393 1.024-.873 1.099-1.848.289-.725-.601-2.81-.95-4.634-.775-3.193.306-3.326.493-3.62 5.068l-.305 4.75h4.555c4.048 0 4.558-.25 4.585-2.25.028-2.009.14-2.063 1.05-.5.695 1.192 2.26 1.75 4.911 1.75 2.14 0 4.094-.337 4.342-.75.248-.413.155-2.55-.207-4.75-.63-3.828-.823-4.005-4.478-4.108m57.96 2.608h-30.393l-3.813 5-3.813 5h-24.331l-.681 5.128c-.374 2.821-.632 14.183-.573 25.25.059 11.067.082 20.685.052 21.372-.036.807-1.652 1.25-4.556 1.25H388v14h13v-3c0-1.799.522-3 1.304-3 .717 0 2.767 1.51 4.555 3.355 2.662 2.746 3.127 3.852 2.564 6.094-.62 2.472.207 3.622 8.454 11.752 8.111 7.996 9.441 8.936 11.805 8.343 2.398-.602 3.886.551 14.931 11.569 11.228 11.2 12.218 12.484 11.685 15.145-.524 2.622.27 3.746 8.09 11.444 7.843 7.72 8.955 8.479 11.635 7.943 2.389-.477 3.551-.017 6.004 2.381l3.042 2.974h137.557l2.824-2.948c2.252-2.35 3.402-2.832 5.676-2.377 2.519.504 3.784-.337 10.845-7.208 4.396-4.279 8.263-8.63 8.594-9.671.33-1.041.131-2.457-.442-3.148-.781-.941 2.161-4.454 11.699-13.971 11.804-11.778 12.963-12.67 15.732-12.116 2.717.543 3.789-.194 11.813-8.128 7.689-7.603 8.755-9.072 8.286-11.416-.458-2.291.409-3.628 5.851-9.021l6.388-6.331.074-25.843.074-25.842-47.27.26-47.27.26-.148 20.5c-.082 11.275-.194 21.288-.25 22.25-.096 1.646-3.703 1.75-60.902 1.75-45.956 0-61.093-.293-62-1.2-.877-.877-1.2-8.822-1.2-29.5V274h-30.392m-75.858 17.195-4.75-.305v9.22l4.75-.305 4.75-.305v-8l-4.75-.305M363 298h-14v28h28v-28h-14m-45.022 9.046c-.287-.025-4.331 3.782-8.985 8.461l-8.464 8.508 8.729 8.728 8.728 8.729 9.034-8.986 9.033-8.986-8.776-8.204c-4.827-4.512-9.012-8.224-9.299-8.25m65.861 8.673c-2.013-.31-3.926-.299-4.25.025-.324.324-.589 2.339-.589 4.477v3.889l4.75-.305 4.75-.305-.345-3.5c-.19-1.925-.415-3.549-.5-3.608-.085-.06-1.802-.363-3.816-.673M370.75 358.22l-12.75-.28V382h26.063l-.281-11.75-.282-11.75-12.75-.28m-96.541 128.855c-2.04-.353-5.617-.372-7.949-.043-2.464.349-5.33 1.619-6.845 3.034-1.433 1.339-3.237 3.649-4.01 5.134-1.012 1.945-1.399 6.56-1.383 16.5.018 11.441.35 14.523 1.942 18.029 1.108 2.442 3.318 5.082 5.228 6.247 2.275 1.387 5.058 2.018 8.91 2.02 4.161.003 6.463-.576 8.946-2.249 1.839-1.24 4.102-3.602 5.029-5.25.926-1.649 1.972-4.234 2.323-5.747.637-2.745.628-2.75-4.881-2.75-3.035 0-5.519.45-5.519 1s-.9 1.9-2 3-2.868 2-3.929 2c-1.06 0-2.635-.707-3.5-1.571C265.312 525.17 265 522.4 265 512.5s.312-12.67 1.571-13.929c.865-.864 2.68-1.571 4.034-1.571 1.762 0 3.06 1.012 4.561 3.556 1.349 2.287 2.616 3.358 3.548 3 .797-.306 3.024-.556 4.947-.556 3.423 0 3.483-.069 2.798-3.25-.385-1.788-1.33-4.483-2.1-5.991-.77-1.507-2.535-3.483-3.921-4.391-1.386-.908-4.189-1.94-6.229-2.293m25.03.122c-3.667-.211-5.415.099-5.769 1.02-.279.727-.386 12.114-.239 25.303l.269 23.98 5.214.301 5.215.301.285-10.301.286-10.301h11l.5 10 .5 10h10v-50h-10l-.5 9.5-.5 9.5-5.213.301-5.213.301-.287-9.801-.287-9.801-5.261-.303m41.724.007c-2.496-.163-4.858.025-5.25.417-.392.392-.703 9.075-.691 19.296.019 16.159.272 19.135 1.942 22.812 1.085 2.391 3.358 5.131 5.228 6.304 2.659 1.666 4.585 2.01 9.813 1.751 4.54-.224 7.31-.92 9.166-2.303 1.463-1.089 3.486-3.331 4.495-4.981 1.618-2.646 1.834-5.359 1.834-23v-20h-10l-.5 18.6c-.368 13.695-.862 19.035-1.872 20.25-.755.907-2.373 1.65-3.595 1.65-1.223 0-2.957-.811-3.855-1.803-1.361-1.504-1.677-4.857-1.905-20.25L345.5 487.5l-4.537-.296m40.777-.009c-3.259-.209-4.921.112-5.269 1.02-.279.728-.387 12.116-.24 25.305l.269 23.98h10l.5-13 .5-13 2.38 4.464c1.308 2.456 3.923 8.071 5.809 12.478 1.887 4.408 3.966 8.354 4.621 8.77.654.417 2.822.764 4.818.773 1.995.008 4.14-.604 4.768-1.36.801-.965 1.061-8.477.872-25.25L410.5 487.5l-5.221-.301-5.22-.301-.28 13.301-.279 13.301-6.5-13-6.5-13-4.76-.305m43.593.006c-4.273-.248-5.255.011-5.676 1.5-.28.989-.536 11.792-.568 24.005-.033 12.213.206 22.9.532 23.75.42 1.094 1.986 1.544 5.379 1.544 3.442 0 4.957-.444 5.393-1.582.334-.87.607-4.42.607-7.889 0-4.737.479-6.895 1.922-8.668l1.923-2.361.988 2.5c.544 1.375 2.592 5.987 4.552 10.25l3.565 7.75h5.525c4.033 0 5.525-.373 5.525-1.381 0-.76-2.956-7.543-6.569-15.074l-6.568-13.693 6.068-9.485c3.338-5.216 6.069-9.908 6.069-10.426 0-.517-2.587-.939-5.75-.938l-5.75.004-5.5 9.085-5.5 9.085-.5-8.839-.5-8.838-5.167-.299m62.636-.201c-12.845 0-16.139.279-16.571 1.405-.296.772-.395 2.91-.218 4.75.314 3.283.417 3.351 5.57 3.647l5.25.303v39.639l3.921.627c2.156.345 4.621.358 5.479.029 1.325-.508 1.599-3.541 1.829-20.249l.271-19.651 5.25-.302 5.25-.303V487h-16.031m27.771.195c-3.259-.209-4.921.112-5.269 1.02-.279.728-.387 12.11-.24 25.292.252 22.406.389 23.99 2.119 24.322 1.017.196 3.38.069 5.25-.282l3.4-.638V517h10.93l.285 10.25.285 10.25h10l.267-25.303.268-25.303-5.268.303-5.267.303-.288 9.25-.287 9.25h-10.85l-.287-9.25-.288-9.25-4.76-.305m51.01.028-14.75-.276v51.106l14.75-.276 14.75-.277.315-4.401c.203-2.844-.15-4.696-1-5.235-.723-.458-5.027-.84-9.565-.849L563 527v-9.912l7.25-.294 7.25-.294.303-4.707.303-4.707-7.803-.293-7.803-.293v-9l9.5-.5 9.5-.5v-9l-14.75-.277m27.27-.223c-4.78 0-4.946.098-5.487 3.25-.306 1.788-.439 13.15-.295 25.25l.262 22h10l.5-12 .5-12 2.803 8.163c1.542 4.49 3.371 8.382 4.064 8.647.693.266 2.457.255 3.921-.025 2.343-.448 2.993-1.53 5.436-9.056l2.776-8.548.5 12.41.5 12.409h10v-50h-11l-4.5 12.74c-2.475 7.007-4.748 12.744-5.052 12.75-.303.005-2.056-4.603-3.895-10.24-1.839-5.637-3.965-11.488-4.724-13-1.225-2.441-1.934-2.75-6.309-2.75m77.755 0c-4.133 0-4.952.334-5.711 2.332-.488 1.283-3.852 12.045-7.475 23.915-3.624 11.871-6.589 22.297-6.589 23.168 0 1.233 1.098 1.585 4.941 1.585 2.718 0 5.264-.523 5.66-1.163.395-.639 1.002-2.552 1.35-4.25l.631-3.087h13.738l1.117 4c1.105 3.952 1.18 4.004 6.341 4.302 4.488.26 5.222.048 5.222-1.512 0-.998-1.731-7.659-3.847-14.802-2.115-7.143-5.355-17.825-7.2-23.738L676.6 487h-4.825m30.464.197c-3.667-.211-5.415.099-5.769 1.02-.279.727-.386 12.114-.239 25.303l.269 23.98 14.423.279c10.869.209 14.624-.037 15.235-1 .446-.704.818-2.918.827-4.922.01-2.41-.52-3.848-1.567-4.25-.87-.334-5.106-.607-9.414-.607h-7.833l-.696-7.425c-.383-4.083-.534-12.971-.335-19.75l.36-12.325-5.261-.303m35.73-.197c-3.145 0-5.215.476-5.519 1.27-.268.698-.366 12.061-.219 25.25l.269 23.98 14.75.277 14.75.276V527h-19v-40h-5.031m-65.898 18.757c-.361-.408-1.425 2.141-2.364 5.664-.939 3.524-1.707 6.671-1.707 6.993 0 .322 1.575.586 3.5.586 2.502 0 3.5-.444 3.5-1.557 0-.857-.511-3.669-1.136-6.25-.625-2.581-1.431-5.027-1.793-5.436"/>
  <path fill="#1f375e" fill-rule="evenodd" d="M430.25 45.147c-.413.081-3.45.482-6.75.891-3.3.409-8.075.519-10.611.243l-4.612-.502-.055 11.111-.055 11.11H431V56.5c0-6.325-.337-11.434-.75-11.353m186.212 14.34c-.57-.282-1.47-.088-2 .429-.529.518-3.662 1.37-6.962 1.892l-6 .951 5.691.12c3.13.067 5.952.544 6.272 1.06.319.517.288 2.767-.069 5-.556 3.474-1.006 4.061-3.115 4.061-1.625 0-2.645-.682-2.989-2-.288-1.1-.884-2-1.325-2-.441 0-1.626-.267-2.633-.594-1.1-.357-1.392-.257-.732.25.605.464 1.654 1.895 2.331 3.18.677 1.284.964 2.602.639 2.928-.326.326-1.997-.844-3.713-2.599-1.717-1.756-3.624-3.115-4.239-3.021-.615.094-1.925-.18-2.911-.61s-2.074-.5-2.417-.158c-.343.343.079.624.936.624.858 0 1.808.645 2.11 1.434.383.997-.117 1.388-1.643 1.286-1.206-.081-2.787-.726-3.512-1.432-1.006-.979-1.838-1.018-3.5-.164-1.2.616-3.463 2.303-5.03 3.748l-2.849 2.628 1.453-3.524c1.289-3.123 1.278-3.688-.091-4.967-1.356-1.267-1.467-1.24-.905.223.484 1.262.227 1.514-1.06 1.04-.934-.344-2.003-1.082-2.375-1.639-.372-.556-3.072-1.121-6-1.255-2.928-.133-6.112-.273-7.074-.31-.962-.037-1.75-.504-1.75-1.037 0-.532.675-.709 1.5-.393.825.317 1.5.078 1.5-.531 0-.684 2.39-1.134 6.25-1.177 4.418-.05 5.664-.323 4.25-.93-1.1-.473-10.55-.838-21-.811-10.45.026-20.35.391-22 .811l-3 .763 3.05.119c1.678.065 3.538.606 4.134 1.202.597.597.859 1.947.584 3-.276 1.054-1.072 1.916-1.77 1.916s-2.558.669-4.134 1.486c-1.575.817-2.92 1.942-2.989 2.5-.069.558-.195 1.577-.28 2.264-.093.746-.58.522-1.206-.555-.837-1.438-1.343-1.563-2.488-.612-1.134.94-1.822.846-3.248-.445-.996-.901-2.788-1.638-3.982-1.638-1.194 0-2.171-.436-2.171-.969 0-.532.788-.673 1.75-.312 1.532.574 1.579.446.378-1.032-.755-.928-2.459-1.687-3.786-1.687s-3.545.742-4.93 1.65c-1.385.907-3.417 3.269-4.516 5.25l-1.998 3.6.691-3.5c.38-1.925.74-4.657.801-6.071.06-1.415.865-3.327 1.789-4.25.923-.924 2.273-1.708 3-1.742.726-.035.421-.426-.679-.87-1.1-.443-6.595-1.093-12.21-1.444-9.334-.585-10.297-.479-11.215 1.237-.553 1.032-.77 2.112-.482 2.399.287.288-.883 1.524-2.601 2.747l-3.123 2.223 2.078 1.937c1.22 1.136 2.59 1.617 3.316 1.164.68-.425 2.137-.892 3.237-1.038 1.972-.262 1.973-.245.059 1.221-1.068.818-2.53 1.487-3.25 1.487-.72 0-1.309.45-1.309 1s.402 1 .893 1 1.156.685 1.478 1.523c.48 1.253.224 1.331-1.445.437-1.544-.826-3.071-.688-6.38.576-2.393.913-5.237 1.379-6.321 1.035-1.384-.439-3.241.436-6.236 2.938-2.346 1.96-5.445 5.01-6.886 6.777-1.442 1.768-5.329 5.914-8.639 9.214-3.31 3.3-9.077 8.672-12.816 11.938-4.97 4.341-7.013 5.59-7.598 4.643-.563-.911-1.002-.967-1.484-.188-.376.609-1.809 1.107-3.185 1.107-1.639 0-4.376 1.773-7.941 5.145-2.992 2.83-5.44 5.769-5.44 6.531 0 .763.714 1.661 1.586 1.995 1.085.417 3.924-1.715 9-6.756 4.078-4.051 7.414-7.018 7.414-6.595 0 .424-3.69 4.238-8.2 8.475-4.51 4.238-11.035 10.364-14.5 13.614l-6.3 5.908V201h24.573l3.733 5 3.733 5H491v-60.015l62.25.257 62.25.258.27 21.76.269 21.76 46.231-.26 46.23-.26.267-24.622.267-24.622-9.767-8.746c-5.372-4.81-18.159-17.018-28.416-27.128C660.593 99.272 651.761 91 651.223 91c-.538 0-1.511-.642-2.162-1.427-.814-.98-2.301-1.246-4.749-.849-2.693.437-3.789.175-4.487-1.073-.509-.908-1.765-1.651-2.791-1.651-1.027 0-2.057-.562-2.288-1.25-.334-.992-.742-.985-1.977.035-1.281 1.056-1.83 1.012-3.092-.25-.844-.844-2.241-1.535-3.106-1.535-.864 0-1.571.454-1.571 1.009 0 .554-1.188 2.342-2.641 3.972-1.452 1.63-3.027 2.724-3.5 2.432-.472-.292-.859-6.579-.859-13.972C618 65.16 618.241 63 619.5 63c.825 0 1.5-.398 1.5-.883 0-.486-.788-1.162-1.75-1.501-.962-.34-2.217-.848-2.788-1.129m21.546 11.405-4.175-1.869 3.99 4.739c2.194 2.606 5.345 6.025 7.002 7.597 1.657 1.573 3.499 2.559 4.094 2.191.594-.367 1.081-1.279 1.081-2.025s-1.759-3.023-3.908-5.06c-2.15-2.037-5.788-4.545-8.084-5.573m-166.68-.774c-.455.065-2.026.403-3.49.75-1.465.348-4.727 2.518-7.25 4.824-2.524 2.305-4.588 4.866-4.588 5.691 0 .824.454 1.78 1.01 2.123.555.343 2.57-.662 4.477-2.235 1.907-1.572 5.088-4.751 7.068-7.064 1.981-2.314 3.228-4.154 2.773-4.089M281.623 93.177l-10.416-7.079-8.104 9.089c-4.457 4.999-8.103 9.447-8.103 9.886 0 .438 4.71 4.443 10.467 8.901l10.466 8.106 3.411-3.79c1.875-2.085 5.747-6.594 8.604-10.021 2.856-3.427 4.946-6.632 4.643-7.122-.303-.49-5.238-4.076-10.968-7.97M274.739 92c-1.846 0-4.164.59-5.15 1.311-1.577 1.154-1.361 1.261 1.806.891 1.98-.231 4.714-.14 6.077.202 1.363.342 3.146 1.853 3.963 3.359.924 1.702 1.5 2.131 1.525 1.133.022-.882-1.064-2.795-2.412-4.25-1.714-1.849-3.464-2.646-5.809-2.646M376 107h-5v10h10v-10h-5m139.35 7.04c-2.667.022-6.023.678-7.457 1.457-1.433.779-3.346 2.545-4.25 3.925-.904 1.379-1.643 2.783-1.643 3.12 0 .336 1.154-.76 2.564-2.436 1.411-1.676 4.209-3.502 6.219-4.056 2.45-.677 4.882-.679 7.382-.006 2.216.597 4.759 2.313 6.27 4.23 1.399 1.774 2.548 2.618 2.554 1.876.006-.743-1.519-2.88-3.389-4.75-2.951-2.951-4.041-3.395-8.25-3.36m77.15-.04c-5.149 0-6.029.329-9.1 3.4-1.87 1.87-3.4 3.85-3.4 4.4 0 .55 1.473-.473 3.274-2.274 2.157-2.157 4.684-3.512 7.409-3.972 2.928-.495 5.013-.246 7.138.853 1.651.854 3.942 2.748 5.091 4.208 1.148 1.46 2.088 2.099 2.088 1.42 0-.679-1.53-2.765-3.4-4.635-3.071-3.071-3.951-3.4-9.1-3.4m87.356 0c-.564 0 1.563 2.948 4.726 6.55 3.163 3.603 6.975 7.422 8.471 8.488 2.711 1.93 2.722 1.93 3.277-.192.428-1.638-.711-3.368-4.931-7.488-3.019-2.947-6.342-5.358-7.385-5.358-1.043 0-2.174-.45-2.514-1-.34-.55-1.08-1-1.644-1M187.5 120H182v12h11v-12h-5.5m139.833 2c-12.455 0-16.515.31-16.89 1.288-.272.709-.37 8.697-.219 17.75l.276 16.462 17.25.274 17.25.273v-13.384c0-7.361-.286-15.472-.636-18.023l-.636-4.64h-16.395m63.584 2.014c-.871-.008-1.884.286-2.25.653-.367.366-.667 2.616-.667 5V134h9v-4.383c0-3.701-.351-4.478-2.25-4.987-1.238-.331-2.962-.609-3.833-.616M326.8 127.04c-1.815.022-4.484.683-5.931 1.47-1.448.786-2.908 2.149-3.245 3.028-.472 1.229-.006 1.121 2.016-.469 1.694-1.333 4.094-2.068 6.745-2.065 2.336.002 5.52.86 7.365 1.985 1.788 1.09 3.25 2.513 3.25 3.163 0 .65.261.92.581.6.32-.319.081-1.515-.53-2.656-.61-1.141-2.425-2.755-4.031-3.586-1.606-.83-4.406-1.492-6.22-1.47M640 157.583c-1.925-.287-4.616-.061-5.979.501-1.364.561-3.318 1.78-4.343 2.707-1.025.928-2.312 2.592-2.859 3.698-.687 1.387-.271 1.187 1.342-.645 1.287-1.46 3.322-3.148 4.523-3.75 1.202-.602 3.98-1.094 6.174-1.094 2.882 0 4.886.755 7.222 2.721 1.779 1.497 3.022 2.086 2.764 1.311-.259-.776-1.567-2.202-2.907-3.169-1.34-.968-4.012-1.994-5.937-2.28m47-.555c-.275.009-2.376.868-4.669 1.909-2.293 1.041-4.656 2.802-5.25 3.912-.595 1.111-1.081 2.374-1.081 2.808 0 .433.702-.215 1.561-1.44.858-1.226 2.861-2.901 4.45-3.723C683.6 159.672 686.295 159 688 159s4.4.672 5.989 1.494c1.589.822 3.592 2.497 4.45 3.723.859 1.225 1.561 1.739 1.561 1.142 0-.598-1.181-2.267-2.623-3.71-1.443-1.443-4.256-3.076-6.25-3.631-1.995-.554-3.852-.999-4.127-.99M383.5 158h-4.615l.308 4.25c.306 4.24.316 4.25 4.307 4.25 3.991 0 4.001-.01 4.307-4.25l.308-4.25H383.5m35.3.004c-1.815.002-4.762.895-6.55 1.985-1.788 1.09-3.25 2.165-3.25 2.389 0 .223 1.67-.445 3.711-1.486 2.042-1.041 4.675-1.892 5.852-1.892 1.176 0 4.311 1.155 6.965 2.566 3.214 1.709 4.374 2.021 3.472.934-.745-.897-2.602-2.277-4.128-3.066-1.525-.789-4.258-1.432-6.072-1.43m49.482.019c-1.53.013-4.426.976-6.436 2.142-2.01 1.165-4.155 3.292-4.766 4.727-1.034 2.425-1.007 2.473.388.688.825-1.056 2.745-2.74 4.266-3.743 1.721-1.135 4.611-1.826 7.648-1.83 4.342-.006 5.269.404 8.388 3.711l3.507 3.718-1.705-3.297c-1.003-1.939-3.105-3.882-5.106-4.718-1.871-.781-4.654-1.411-6.184-1.398M357 164h-5v10h10v-10h-5m-113.5 3H238v11h11v-11h-5.5m-36 4c-3.025 0-5.566.338-5.647.75-.081.412-.194 3.112-.25 6L201.5 183H213v-12h-5.5m116.5 4h-4v8h8v-8h-4m-30.5 3H288v5.383c0 4.738.27 5.456 2.25 5.987 1.238.331 3.712.609 5.5.616L299 190v-12h-5.5m50.25 3.195-4.75-.305V191h10.11l-.305-4.75-.305-4.75-4.75-.305M371.012 183c-3.885 0-3.981.083-3.729 3.25.236 2.975.573 3.276 3.987 3.56 3.666.305 3.73.25 3.73-3.25 0-3.485-.084-3.56-3.988-3.56m11.94 1h-6.047l.297 6.25c.273 5.721.499 6.278 2.679 6.587 1.31.185 3.897.052 5.75-.296l3.369-.632V184h-6.048M256.5 194H252v10h9v-10h-4.5m-76.117 6c-4.299 0-4.575.155-4.013 2.25.331 1.238.609 3.262.616 4.5.012 1.956.537 2.25 4.014 2.25h4v-9h-4.617m140.117 1c-3.417 0-3.5.095-3.5 4s.083 4 3.5 4 3.5-.095 3.5-4-.083-4-3.5-4m38.5 4h-18v36h36v-36h-18m-54.75 2.198-5.25-.303v12.21l5.25-.303 5.25-.302v-11l-5.25-.302M409.454 207H404v5.433c0 4.554.323 5.535 2 6.067 1.502.477 2 1.513 2 4.161 0 2.714.472 3.65 2.051 4.063 1.256.328 2.273 1.648 2.625 3.406.56 2.8.73 2.87 6.949 2.87H426v-11.895l-5.25-.303-5.25-.302-.296-6.75-.295-6.75h-5.455m-20.514 1h-4.061l.311 3.75c.293 3.546.514 3.767 4.06 4.06l3.75.311V208h-4.06m-65.315 6c-5.066 0-5.406.158-5.917 2.75-.298 1.512-.302 3.988-.008 5.5.503 2.593.84 2.75 5.917 2.75H329v-11h-5.375m-50.125 2H269v9h9v-9h-4.5m-62 5H207v8h9v-8h-4.5m39.939 9H240v24.063l11.75-.281 11.75-.282.312-7.5c.172-4.125.032-9.412-.311-11.75l-.624-4.25h-11.438m58.525 1.202c-1.944-.163-3.857.024-4.25.417-.393.393-.714 2.439-.714 4.548V240h9.115l-.308-4.25c-.294-4.075-.453-4.262-3.843-4.548M392.312 338H388v12h5.887c5.868 0 5.887-.01 6.36-3.229.33-2.249-.148-4.071-1.575-6-1.687-2.283-2.808-2.771-6.36-2.771M271.661 487.397c-3.18-.272-6.332.092-8.211.948-1.677.765-4.237 2.802-5.689 4.527-1.541 1.831-2.92 5.003-3.312 7.617-.369 2.464-.488 9.324-.264 15.245.284 7.516.914 11.718 2.087 13.919.924 1.735 3.206 4.097 5.072 5.25 2.301 1.423 5.058 2.097 8.574 2.097 2.85 0 6.473-.668 8.053-1.485 1.579-.817 3.751-2.729 4.826-4.25 1.075-1.521 2.271-4.227 2.658-6.015l.704-3.25h-4.58c-2.519 0-4.579.47-4.579 1.045s-1.105 2.15-2.455 3.5-3.375 2.455-4.5 2.455-2.945-.9-4.045-2c-1.794-1.794-2-3.333-2-14.943 0-12.242.12-13.028 2.223-14.5 1.222-.856 3.224-1.557 4.449-1.557 1.341 0 3.221 1.305 4.729 3.281 2.24 2.937 2.933 3.24 6.606 2.89 4.023-.384 4.09-.453 3.417-3.517-.377-1.718-1.334-4.112-2.125-5.32-.791-1.207-2.572-2.938-3.958-3.846-1.385-.908-4.842-1.849-7.68-2.091m27.089.798-4.75-.305V537h9l.015-9.25c.009-5.087.388-9.837.843-10.555.567-.894 2.686-1.208 6.735-1l5.907.305.285 10.25.285 10.25H326v-49h-8.928l-.286 9.75-.286 9.75h-12l-.5-9.5-.5-9.5-4.75-.305M340.5 488H336v19.099c0 15.769.291 19.712 1.67 22.618.918 1.935 3.056 4.364 4.75 5.397 2.028 1.237 4.959 1.879 8.58 1.879 3.692 0 6.551-.641 8.696-1.949 1.757-1.072 4.007-3.186 5-4.699 1.553-2.368 1.849-5.503 2.129-22.548L367.15 488H358v18.045c0 17.826-.03 18.076-2.455 20.5-1.35 1.35-3.375 2.455-4.5 2.455s-2.945-.9-4.045-2c-1.856-1.856-2-3.333-2-20.5V488h-4.5m40.975 0H377v49h9v-12.941c0-7.819.409-13.194 1.032-13.579.6-.371 3.122 3.901 6.018 10.191 2.741 5.956 5.557 11.954 6.256 13.329 1.069 2.103 1.979 2.5 5.732 2.5h4.462l.268-24.25.268-24.25H401v13.5c0 8.88-.364 13.5-1.065 13.5-.585 0-3.972-6.075-7.525-13.5l-6.461-13.5h-4.474M425 488h-5v49.11l4.75-.305 4.75-.305.29-7.613c.25-6.585.621-7.924 2.746-9.92 1.351-1.27 2.609-2.119 2.796-1.888.186.232 2.071 4.246 4.188 8.921 2.117 4.675 4.372 9.09 5.011 9.811.728.821 2.864 1.195 5.71 1l4.548-.311-6.895-13.795c-3.791-7.588-6.894-14.242-6.894-14.789 0-.546 2.7-5.008 6-9.916s6-9.189 6-9.514c0-.325-2.319-.455-5.154-.288l-5.155.302-5.581 9.25c-3.069 5.087-5.925 9.25-6.345 9.25-.421 0-.765-4.275-.765-9.5V488h-5m63 0h-16v8h5.433c4.709 0 5.525.291 6.126 2.187.382 1.203.525 10.316.318 20.25L483.5 536.5h9l-.367-18.757c-.272-13.907-.046-19.143.873-20.25.789-.951 3.011-1.493 6.116-1.493H504v-8h-16m27.5 0H511v49h2.918c1.605 0 3.63-.273 4.5-.607 1.296-.497 1.582-2.406 1.582-10.548v-9.94l6.25.297 6.25.298.5 10 .5 10h8.953l.108-22c.06-12.1-.091-23.012-.335-24.25-.379-1.925-1.078-2.25-4.834-2.25H533v19h-13v-19h-4.5m50.982 0h-14.518l.268 24.25.268 24.25 14.25.277 14.25.278V528h-19.1l.3-5.75.3-5.75 7.25-.294 7.25-.294v-7.828l-7.75-.292-7.75-.292-.311-4.324c-.171-2.378.221-4.966.872-5.75.862-1.039 3.595-1.426 10.061-1.426H581v-8h-14.518m27.409 0H589v49h9v-13c0-7.225.408-13 .918-13 .505 0 2.14 3.712 3.633 8.25 1.494 4.538 3.136 8.782 3.649 9.433.513.65 1.843 1.114 2.954 1.03 1.112-.083 2.602-1.291 3.312-2.682.709-1.392 2.333-5.794 3.609-9.781 1.275-3.987 2.68-7.25 3.122-7.25.442 0 .803 6.075.803 13.5V537h9v-49.105l-5.171.303-5.172.302-4.412 13.25c-2.426 7.288-4.782 13.25-5.234 13.25-.452 0-2.214-3.849-3.916-8.552-1.702-4.704-3.095-8.97-3.095-9.48 0-.51-.724-2.737-1.609-4.948-1.571-3.926-1.722-4.02-6.5-4.02m77.742.195c-3.156-.207-4.799.115-5.104 1-.249.718-3.394 11.333-6.99 23.59-3.597 12.256-6.539 22.743-6.539 23.304 0 .592 1.961.892 4.665.716 4.508-.295 4.702-.439 5.779-4.305l1.114-4 7.196-.293 7.195-.294 1.144 4.544c1.14 4.525 1.161 4.543 5.526 4.543 2.409 0 4.381-.454 4.381-1.009 0-.554-2.002-7.867-4.449-16.25-2.447-8.382-5.532-18.841-6.857-23.241l-2.408-8-4.653-.305M702 488h-5v49h28v-9h-18v-40h-5m35.482 0h-4.518l.268 24.25.268 24.25 13.75.278 13.75.278V528h-8.893c-7.187 0-9.009-.303-9.5-1.582-.334-.87-.607-9.87-.607-20V488h-4.518m-65.516 15c-.368 0-1.48 3.038-2.471 6.75-.992 3.712-2.007 7.313-2.256 8-.321.885.893 1.25 4.154 1.25 2.534 0 4.613-.337 4.62-.75.007-.413-.75-4.013-1.683-8-.933-3.988-1.997-7.25-2.364-7.25"/>
  <path fill="#d48a23" fill-rule="evenodd" d="M541.5 58.465c-28.6 0-40.156.128-25.68.284 14.476.157 37.876.157 52 0 14.124-.156 2.28-.284-26.32-.284M309.745 131.25c-.184-4.812-.334-.875-.334 8.75s.15 13.563.334 8.75c.183-4.813.183-12.688 0-17.5M657 195.457c-22.825 0-32.163.131-20.75.292 11.413.16 30.088.16 41.5 0 11.413-.161 2.075-.292-20.75-.292m-392.75 34.198c-.413-.255-.75 5.3-.75 12.345 0 7.045.337 12.6.75 12.345.413-.254.75-5.81.75-12.345 0-6.535-.337-12.091-.75-12.345m140.25 8.486-4.5-.233V248h9v-9.626l-4.5-.233M378.469 254c-1.393 0-2.791.675-3.107 1.5-.317.825-.317 2.175 0 3 .316.825 1.714 1.5 3.107 1.5 2.146 0 2.531-.457 2.531-3s-.385-3-2.531-3m-48.488 2H316v14.5c0 9.539.362 14.5 1.059 14.5.582 0 .781-.45.441-1-.351-.567.49-1 1.941-1 1.407 0 2.559.465 2.559 1.033 0 .666 3.996.932 11.25.75l11.25-.283.29-12c.159-6.6.038-13.012-.269-14.25-.547-2.199-.873-2.25-14.54-2.25M442 256h-6v5.441c0 2.993.337 5.642.75 5.889.413.246 3.113.215 6-.068l5.25-.516V256h-6m-68.191 3.177c-.17.097-3.459.434-7.309.75l-7 .573-.047 10c-.025 5.5.113 8.087.308 5.75.195-2.337.688-4.25 1.096-4.25.408 0 .558 1.575.333 3.5-.403 3.449-.354 3.5 3.332 3.5h3.741l-.536-4c-.295-2.2-.13-4 .368-4s.969 1.688 1.047 3.75l.142 3.75.608-4 .608-4-5-.587c-2.75-.323-3.762-.66-2.25-.75 2.515-.149 2.75-.506 2.75-4.163 0-2.2.45-4 1-4s1 1.548 1 3.441c0 1.893.337 3.64.75 3.882.413.243 2.212.755 4 1.139 3.174.681 3.25.616 3.25-2.76 0-1.901-.67-4.013-1.489-4.693-.819-.68-1.242-1.635-.941-2.122.301-.488.409-.808.239-.71m28.437 12.127c-1.856.053-3.595.451-3.863.885-.268.433.123.554.868.268 1.025-.393 1.254.34.942 3.012-.394 3.381-.278 3.531 2.738 3.531 3.034 0 3.142-.144 2.92-3.896-.22-3.734-.37-3.891-3.605-3.8m-9.329.838c-1.971-.078-3.884.158-4.25.525-.367.366-.66 2.729-.652 5.25.009 2.521.346 4.133.75 3.583.404-.55 2.085-1 3.735-1 2.667 0 3-.333 3-3 0-2.679-.374-3.046-3.5-3.433l-3.5-.434 4-.675 4-.674-3.583-.142M460.608 274h-30.393l-3.813 5-3.813 5h-24.331l-.676 5.097c-.372 2.803-.606 14.529-.52 26.058.085 11.528-.103 21.219-.419 21.536-.316.316.535 1.447 1.891 2.514 1.356 1.067 2.466 2.807 2.466 3.868 0 1.06.537 1.927 1.194 1.927.656 0 4.787 3.488 9.179 7.75 4.392 4.262 10.586 10.41 13.766 13.661 3.179 3.251 5.522 6.328 5.208 6.837-.315.509-1.423.704-2.461.432-1.039-.271-1.638-.087-1.331.409.307.497 1.792.792 3.3.657 2.343-.21 5.972 2.872 24.943 21.183C467.009 407.715 477 418.005 477 418.796c0 .989-.77 1.29-2.47.965-1.425-.272-2.219-.068-1.878.484.325.526 1.883.698 3.462.382 2.281-.456 3.496.037 5.913 2.399l3.042 2.974h137.557l2.899-3.026c1.642-1.714 3.518-2.788 4.328-2.477 1.133.435 1.185.254.252-.87-.96-1.157.595-3.056 8.413-10.273 5.274-4.87 9.903-8.765 10.286-8.657.383.109.839.884 1.014 1.724.177.847-3.383 5.277-8 9.956-4.575 4.636-7.643 8.064-6.818 7.619.825-.446 4.763-4.179 8.75-8.297 3.987-4.117 7.25-8.182 7.25-9.033 0-.852-.499-1.856-1.109-2.234-.669-.413 3.991-5.797 11.736-13.56 11.938-11.964 13.061-12.834 15.89-12.303 2.773.52 3.83-.206 11.859-8.145 7.68-7.595 8.746-9.063 8.277-11.407-.458-2.291.409-3.628 5.851-9.021l6.388-6.331.074-25.843.074-25.842-47.27.26-47.27.26-.148 20.5c-.082 11.275-.194 21.288-.25 22.25-.096 1.646-3.703 1.75-60.902 1.75-45.956 0-61.093-.293-62-1.2-.877-.877-1.2-8.822-1.2-29.5V274h-30.392m-75.858 17.195-4.75-.305v9.22l4.75-.305 4.75-.305v-8l-4.75-.305M363 298h-14v28l3.25-.136c2.481-.104 2.699-.241.924-.58-1.735-.33-2.141-.868-1.598-2.114.401-.918.932-3.111 1.18-4.873l.452-3.203 2.423 2.879c1.333 1.584 3.683 3.157 5.222 3.495 1.54.338 4.115.116 5.723-.493 1.608-.61 3.936-2.057 5.174-3.216l2.25-2.108v4.611c0 4.453-.112 4.625-3.25 5.015-2.498.31-2.151.44 1.5.563l4.75.16v-28h-14m-45.022 9.046c-.287-.025-4.331 3.782-8.985 8.461l-8.464 8.508 8.729 8.728 8.728 8.729 9.034-8.986 9.033-8.986-8.776-8.204c-4.827-4.512-9.012-8.224-9.299-8.25m65.861 8.673c-2.013-.31-3.926-.299-4.25.025-.324.324-.589 2.339-.589 4.477v3.889l4.75-.305 4.75-.305-.345-3.5c-.19-1.925-.415-3.549-.5-3.608-.085-.06-1.802-.363-3.816-.673m48.909-.304c-.214-.215-1.354.914-2.533 2.508-1.178 1.594-3.787 3.441-5.797 4.104-2.01.664-5.577.99-7.926.725-2.544-.287-5.739-1.601-7.901-3.251-3.004-2.291-3.525-2.443-3.017-.885.337 1.036 1.067 3.1 1.621 4.585.554 1.486 2.146 3.448 3.538 4.36 1.996 1.307 2.239 1.843 1.149 2.533-.76.482-4.194.882-7.632.891-3.49.008-6.25.457-6.25 1.015 0 .652 16 1 46 1s46-.348 46-1c0-.55-2.137-1.006-4.75-1.014-2.613-.007-5.757-.283-6.987-.613l-2.238-.6 2.009-2.82c1.104-1.552 2.674-4.707 3.487-7.013.813-2.305 1.479-4.421 1.479-4.701 0-.28-.94.686-2.088 2.146-1.149 1.46-3.377 3.321-4.951 4.135-1.574.814-4.714 1.48-6.977 1.48-2.264 0-5.098-.506-6.3-1.125-1.201-.619-3.196-2.047-4.434-3.174l-2.25-2.05v2.72c0 1.501 1.009 3.708 2.25 4.924 1.238 1.213 3.375 2.941 4.75 3.842 2.498 1.635 2.496 1.637-3.333 2.375-3.208.407-12.088.539-19.734.295-7.647-.244-14.191-.732-14.543-1.084-.353-.352.686-1.758 2.308-3.123 1.623-1.365 3.51-4.352 4.195-6.638.685-2.286 1.07-4.332.855-4.547m245.046 2.78c-3.78-3.415-4.028-3.504-3.314-1.193.426 1.374 1.421 3.771 2.213 5.327s2.872 3.427 4.623 4.158c1.751.731 4.873 1.646 6.938 2.033 2.725.511 4.436.258 6.238-.923 1.365-.894 3.388-3.402 4.495-5.572 1.107-2.17 2.013-4.211 2.013-4.536 0-.325-1.462.522-3.25 1.882-1.788 1.36-4.49 2.783-6.007 3.161-1.516.379-4.355.388-6.309.022-2.003-.376-5.336-2.278-7.64-4.359m-50.142.358c-1.459-1.352-2.652-2.066-2.652-1.587 0 .478 1.124 3.108 2.499 5.844 1.374 2.736 3.286 5.297 4.25 5.69 1.608.656 1.588.782-.249 1.537-1.1.452-4.925.925-8.5 1.05l-6.5.228 7 .718c3.85.395 24.411.774 45.691.843 21.28.068 38.932-.265 39.226-.741.294-.476-2.409-1.101-6.007-1.39-3.598-.289-15.85-.286-27.226.006-11.376.293-24.284.194-28.684-.219l-8-.751 4.232-1.993c2.328-1.097 5.139-3.462 6.25-5.258 1.11-1.797 2.018-3.815 2.018-4.487 0-.671-1.363-.074-3.029 1.328-1.667 1.402-4.635 2.851-6.597 3.219-1.962.368-5.255.163-7.319-.455-2.063-.619-4.945-2.23-6.403-3.582M491.541 334.5c-.211-.55-.419 19.587-.462 44.75-.043 25.163.258 45.75.671 45.75.413 0 .62-20.137.462-44.75-.159-24.612-.461-45.2-.671-45.75m124.634 4c-.667-3.666-1.012 3.007-1.293 25-.21 16.5-.247 37.087-.083 45.75.164 8.663.614 15.749 1 15.749.386-.001.832-18.339.993-40.75.161-22.412-.117-42.999-.617-45.749m79.447 15.5c-.639 0-5.33 4.186-10.424 9.301-5.094 5.116-8.948 9.616-8.564 10 .385.385 1.425.699 2.312.699.886 0 4.406-2.819 7.821-6.265 3.415-3.445 7.066-7.945 8.113-10 1.229-2.411 1.493-3.735.742-3.735m-324.872 4.22-12.75-.28V382h26.063l-.281-11.75-.282-11.75-12.75-.28m157.962 2.159c-.204-.204-1.46.795-2.791 2.22-1.332 1.425-3.636 3.223-5.121 3.996-1.486.773-4.328 1.405-6.316 1.405-1.989 0-4.598-.505-5.8-1.122-1.201-.617-3.422-2.277-4.934-3.687l-2.75-2.565v3.319c0 1.825.919 4.806 2.042 6.623 1.255 2.03 3.411 3.756 5.59 4.475 1.951.644 4.902.9 6.557.569 1.656-.331 4.716-1.953 6.801-3.604s4.534-4.86 5.442-7.13c.908-2.27 1.485-4.295 1.28-4.499m52.131 2.247c-1.581-1.892-1.78-1.93-1.81-.344-.018.98.587 3.267 1.346 5.082.758 1.815 2.619 4.276 4.135 5.468 2.026 1.594 4.135 2.168 7.968 2.168 3.532 0 5.86-.564 7.222-1.75 1.105-.962 2.974-3.645 4.153-5.96 1.178-2.316 2.143-4.762 2.143-5.437 0-.675-1.237-.047-2.75 1.396-1.513 1.443-4.017 3.102-5.565 3.687s-4.158 1.064-5.8 1.064c-1.641 0-4.398-.731-6.125-1.624-1.727-.893-3.94-2.581-4.917-3.75M529.743 403c-.29 0-.82 1.172-1.18 2.604-.359 1.432-1.375 3.705-2.257 5.051-.882 1.346-2.932 3.134-4.556 3.974-2.07 1.071-4.556 1.364-8.314.982-2.948-.301-6.333-1.124-7.522-1.829-1.189-.705-2.996-3.082-4.016-5.282s-1.864-3.212-1.876-2.25c-.012.962-.458 1.75-.991 1.75-.532 0-.795.563-.584 1.25.211.688.642 4.079.957 7.536.532 5.839.414 6.351-1.666 7.187-1.486.598 2.72.922 12.512.964 9.59.041 14.75-.301 14.75-.977 0-.573.957-2.336 2.128-3.919 1.524-2.062 2.271-4.886 2.634-9.959.279-3.895.27-7.082-.019-7.082m47.869 2.036c-.497-.02-.591 2.865-.214 6.545.456 4.454 1.309 7.261 2.638 8.688 1.08 1.16 1.964 2.698 1.964 3.42 0 1.008 2.761 1.311 11.969 1.311 10.456 0 11.892-.198 11.367-1.567-.331-.863-.12-2.55.469-3.75.589-1.201 1.246-5.086 1.461-8.634.302-4.99.146-6.015-.688-4.525-.593 1.061-2.43 3.336-4.082 5.056-2.407 2.506-4.141 3.27-8.721 3.842-3.981.498-6.562.314-8.496-.604-1.6-.759-3.628-3.106-4.779-5.532-1.1-2.317-2.4-4.23-2.888-4.25M302.5 487.319c-1.486-.152-1.56-.073-.287.305 1.411.419 1.774 2.043 2.057 9.192l.342 8.684-.056-8.989c-.051-8.232-.224-9.005-2.056-9.192m108.247 12.431c-.173-6.738-.315-1.225-.315 12.25s.142 18.987.315 12.25c.173-6.737.173-17.762 0-24.5m177.993-4c-.195-3.437-.355-.625-.355 6.25s.16 9.688.355 6.25c.196-3.437.196-9.062 0-12.5m-168.996 9.948c-.181-5.059-.328-.648-.327 9.802.001 10.45.149 14.589.329 9.198.18-5.391.179-13.941-.002-19m63.002 2.105c-.178-5.667-.325-1.303-.326 9.697-.001 11 .145 15.636.325 10.303.179-5.333.18-14.333.001-20"/>
  <path fill="#596b89" fill-rule="evenodd" d="M421 43.35c-5.775-.082-11.301.066-12.28.329-1.603.432-1.752 1.689-1.5 12.65l.28 12.171 12.28.281 12.28.281-.28-12.781-.28-12.781-10.5-.15m9.25 1.797c-.413.081-3.45.482-6.75.891-3.3.409-8.075.519-10.611.243l-4.612-.502-.055 11.111-.055 11.11H431V56.5c0-6.325-.337-11.434-.75-11.353m114.484 13.532-59.765-.179-3.356 3.354c-2.95 2.949-3.621 3.212-5.56 2.175-1.85-.991-2.553-.851-4.379.871-1.196 1.128-4.444 4.2-7.219 6.826-2.774 2.626-3.674 3.595-2 2.154 1.675-1.441 4.538-2.898 6.363-3.239l3.318-.618-3.591 4.195c-1.974 2.307-5.151 5.481-7.058 7.053-1.907 1.573-3.917 2.581-4.466 2.242-.59-.364-.74.056-.367 1.028.456 1.189-2.777 5.06-11.672 13.977-6.767 6.783-13.115 12.545-14.108 12.805-.993.259-1.709-.018-1.59-.616.119-.599-.496-1.246-1.367-1.439-.929-.205-5.104 3.076-10.102 7.941-4.686 4.56-6.138 6.153-3.227 3.541 3.153-2.83 6.246-4.75 7.652-4.75 1.298 0 2.9-.54 3.56-1.2.66-.66 1.2-.761 1.2-.225s-3.336 4.289-7.414 8.34c-4.926 4.892-7.93 7.167-8.949 6.776-.971-.373-1.36-.132-1.057.656.263.685-2.46 4.082-6.051 7.55L397 144.2l.234 28.65.234 28.65.281-28.606.281-28.606 6.735-6.312c3.704-3.471 10.355-9.724 14.78-13.894 4.425-4.17 11.163-10.282 14.973-13.582 3.811-3.3 9.636-8.7 12.946-12 3.31-3.3 7.197-7.446 8.639-9.214 1.441-1.767 4.54-4.817 6.886-6.777 2.995-2.502 4.852-3.377 6.236-2.938 1.084.344 3.928-.122 6.321-1.035 3.309-1.264 4.836-1.402 6.38-.576 1.669.894 1.925.816 1.445-.437-.322-.838-.987-1.523-1.478-1.523s-.893-.45-.893-1 .589-1 1.309-1 2.182-.669 3.25-1.487c1.914-1.466 1.913-1.483-.059-1.221-1.1.146-2.557.613-3.237 1.038-.726.453-2.096-.028-3.316-1.164l-2.078-1.937 3.123-2.223c1.718-1.223 2.888-2.459 2.601-2.747-.288-.287-.071-1.367.482-2.399.918-1.716 1.881-1.822 11.215-1.237 5.615.351 11.11 1.001 12.21 1.444 1.1.444 1.405.835.679.87-.727.034-2.077.818-3 1.742-.924.923-1.729 2.835-1.789 4.25-.061 1.414-.421 4.146-.801 6.071l-.691 3.5 1.998-3.6c1.099-1.981 3.131-4.343 4.516-5.25 1.385-.908 3.603-1.65 4.93-1.65 1.327 0 3.031.759 3.786 1.687 1.201 1.478 1.154 1.606-.378 1.032-.962-.361-1.75-.22-1.75.312 0 .533.977.969 2.171.969s2.986.737 3.982 1.638c1.426 1.291 2.114 1.385 3.248.445 1.145-.951 1.651-.826 2.488.612.626 1.077 1.113 1.301 1.206.555.085-.687.211-1.706.28-2.264.069-.558 1.414-1.683 2.989-2.5C531.94 69.669 533.8 69 534.498 69c.698 0 1.494-.862 1.77-1.916.275-1.053.013-2.403-.584-3-.596-.596-2.456-1.137-4.134-1.202l-3.05-.119 3-.763c1.65-.42 11.55-.785 22-.811 10.45-.027 19.9.338 21 .811 1.414.607.168.88-4.25.93-3.86.043-6.25.493-6.25 1.177 0 .609-.675.848-1.5.531-.825-.316-1.5-.139-1.5.393 0 .533.788 1 1.75 1.037.962.037 4.146.177 7.074.31 2.928.134 5.628.699 6 1.255.372.557 1.441 1.295 2.375 1.639 1.287.474 1.544.222 1.06-1.04-.562-1.463-.451-1.49.905-.223 1.369 1.279 1.38 1.844.091 4.967l-1.453 3.524 2.849-2.628c1.567-1.445 3.83-3.132 5.03-3.748 1.662-.854 2.494-.815 3.5.164.725.706 2.306 1.351 3.512 1.432 1.526.102 2.026-.289 1.643-1.286-.302-.789-1.252-1.434-2.11-1.434-.857 0-1.279-.281-.936-.624.343-.342 1.431-.272 2.417.158.986.43 2.296.704 2.911.61.615-.094 2.522 1.265 4.239 3.021 1.716 1.755 3.387 2.925 3.713 2.599.325-.326.038-1.644-.639-2.928-.677-1.285-1.726-2.716-2.331-3.18-.66-.507-.368-.607.732-.25 1.007.327 2.192.594 2.633.594.441 0 1.037.9 1.325 2 .344 1.318 1.364 2 2.989 2 2.109 0 2.559-.587 3.115-4.061.357-2.233.388-4.483.069-5-.32-.516-3.142-.993-6.272-1.06l-5.691-.12 6-.951c3.3-.522 6.428-1.368 6.95-1.879.588-.575-1.129-.956-4.5-1-2.997-.039-32.345-.152-65.216-.25m74.909.321c-1.586 0-2.498.426-2.143 1 .34.55 1.266 1 2.059 1 .793 0 1.441.45 1.441 1s-.675 1-1.5 1c-1.259 0-1.5 2.16-1.5 13.441 0 7.393.387 13.68.859 13.972.473.292 2.048-.802 3.5-2.432 1.453-1.63 2.641-3.418 2.641-3.972 0-.555.707-1.009 1.571-1.009.865 0 2.262.691 3.106 1.535 1.262 1.262 1.811 1.306 3.092.25 1.235-1.02 1.643-1.027 1.977-.035.231.688 1.261 1.25 2.288 1.25 1.026 0 2.282.743 2.791 1.651.698 1.248 1.794 1.51 4.487 1.073 2.448-.397 3.935-.131 4.749.849.651.785 1.624 1.427 2.162 1.427.538 0 9.37 8.27 19.628 18.379 10.257 10.108 22.924 22.216 28.149 26.907 5.225 4.691 9.627 8.406 9.782 8.256.155-.15-3.22-3.58-7.5-7.623-4.28-4.042-11.03-10.717-14.999-14.834-3.97-4.116-7-7.702-6.733-7.968.266-.266 1.016.049 1.667.7.65.651 1.845 1.183 2.654 1.183.809 0 2.384.788 3.5 1.75 2.028 1.749 2.028 1.749-.007-.927-1.121-1.472-3.507-3.914-5.304-5.426-2.842-2.391-3.532-2.583-5.303-1.477-1.87 1.168-3.09.222-14.909-11.572-7.362-7.345-12.658-13.401-12.371-14.147.287-.749.044-1.023-.57-.644-.588.364-2.425-.625-4.082-2.198-1.657-1.572-4.83-5.018-7.051-7.656l-4.039-4.797 3.883 1.753c2.135.964 5.232 2.885 6.882 4.269 1.65 1.384-.262-.842-4.249-4.947-6.716-6.913-7.406-7.365-9.368-6.14-1.896 1.184-2.452 1-5.298-1.759-1.993-1.931-4.212-3.082-5.942-3.082M272.006 85.24c-.313-.144-2.36 1.656-4.548 4-2.189 2.343-5.325 5.871-6.969 7.84-1.644 1.968.108.312 3.894-3.681l6.883-7.261 10.387 7.059c5.713 3.883 10.65 7.485 10.972 8.005.321.52-.475 2.15-1.77 3.622L288.5 107.5l2.75-2.424c1.512-1.334 2.743-2.909 2.735-3.5-.008-.592-4.829-4.451-10.712-8.576-5.884-4.125-10.954-7.617-11.267-7.76m2.733 6.76c-1.846 0-4.164.59-5.15 1.311-1.577 1.154-1.361 1.261 1.806.891 1.98-.231 4.714-.14 6.077.202 1.363.342 3.146 1.853 3.963 3.359.924 1.702 1.5 2.131 1.525 1.133.022-.882-1.064-2.795-2.412-4.25-1.714-1.849-3.464-2.646-5.809-2.646m99.761 13.542c-1.1-.237-2.562-.193-3.25.097-.801.338-1.25 2.669-1.25 6.494v5.967l5.75-.3 5.75-.3.3-5.75c.297-5.7.275-5.75-2.5-5.764-1.54-.007-3.7-.207-4.8-.444M376 107h-5v10h10v-10h-5m139.35 7.04c-2.667.022-6.023.678-7.457 1.457-1.433.779-3.346 2.545-4.25 3.925-.904 1.379-1.643 2.783-1.643 3.12 0 .336 1.154-.76 2.564-2.436 1.411-1.676 4.209-3.502 6.219-4.056 2.45-.677 4.882-.679 7.382-.006 2.216.597 4.759 2.313 6.27 4.23 1.399 1.774 2.548 2.618 2.554 1.876.006-.743-1.519-2.88-3.389-4.75-2.951-2.951-4.041-3.395-8.25-3.36m77.15-.04c-5.149 0-6.029.329-9.1 3.4-1.87 1.87-3.4 3.85-3.4 4.4 0 .55 1.473-.473 3.274-2.274 2.157-2.157 4.684-3.512 7.409-3.972 2.928-.495 5.013-.246 7.138.853 1.651.854 3.942 2.748 5.091 4.208 1.148 1.46 2.088 2.099 2.088 1.42 0-.679-1.53-2.765-3.4-4.635-3.071-3.071-3.951-3.4-9.1-3.4m-400.275 5.408c-.701-.142-.814-.029-.25.25.564.28 1.025 3.171 1.025 6.425V132h-10.905l-.369-5.75-.369-5.75.072 6 .071 6h12v-6.417c0-4.398-.401-6.498-1.275-6.675M345.178 122c-.452 0-.651 7.537-.442 16.75.208 9.213.525 17.425.705 18.25.18.825.379-6.713.443-16.75.064-10.037-.254-18.25-.706-18.25m46.799 1c-1.572 0-3.18.52-3.572 1.155-.456.737-.273.882.505.4.671-.414 2.766-.463 4.655-.109 3.295.618 3.435.824 3.435 5.045v4.399l-4.75.375-4.75.375 5.25.18 5.25.18v-5.393c0-3.995-.41-5.55-1.582-6-.87-.334-2.868-.607-4.441-.607m-65.177 4.04c-1.815.022-4.484.683-5.931 1.47-1.448.786-2.908 2.149-3.245 3.028-.472 1.229-.006 1.121 2.016-.469 1.694-1.333 4.094-2.068 6.745-2.065 2.336.002 5.52.86 7.365 1.985 1.788 1.09 3.25 2.513 3.25 3.163 0 .65.261.92.581.6.32-.319.081-1.515-.53-2.656-.61-1.141-2.425-2.755-4.031-3.586-1.606-.83-4.406-1.492-6.22-1.47m201.7 24.401c-15.95.001-22.335.139-14.189.307 8.146.168 21.196.168 29-.001 7.804-.168 1.139-.306-14.811-.306m62-.028c-9.9-.001-14.085.148-9.301.331 4.785.183 12.885.184 18 .002 5.116-.182 1.201-.332-8.699-.333m23-.092c-1.518-.157-1.583-.083-.269.306 1.557.461 1.76 2.628 2.029 21.693l.299 21.18-.03-21.487c-.028-20.741-.098-21.494-2.029-21.692m-121.761 10.387c-.194-3.414-.352-.358-.35 6.792.001 7.15.161 9.944.353 6.208.193-3.735.192-9.585-.003-13M640 157.583c-1.925-.287-4.616-.061-5.979.501-1.364.561-3.318 1.78-4.343 2.707-1.025.928-2.312 2.592-2.859 3.698-.687 1.387-.271 1.187 1.342-.645 1.287-1.46 3.322-3.148 4.523-3.75 1.202-.602 3.98-1.094 6.174-1.094 2.882 0 4.886.755 7.222 2.721 1.779 1.497 3.022 2.086 2.764 1.311-.259-.776-1.567-2.202-2.907-3.169-1.34-.968-4.012-1.994-5.937-2.28m47-.555c-.275.009-2.376.868-4.669 1.909-2.293 1.041-4.656 2.802-5.25 3.912-.595 1.111-1.081 2.374-1.081 2.808 0 .433.702-.215 1.561-1.44.858-1.226 2.861-2.901 4.45-3.723C683.6 159.672 686.295 159 688 159s4.4.672 5.989 1.494c1.589.822 3.592 2.497 4.45 3.723.859 1.225 1.561 1.739 1.561 1.142 0-.598-1.181-2.267-2.623-3.71-1.443-1.443-4.256-3.076-6.25-3.631-1.995-.554-3.852-.999-4.127-.99m-268.2.976c-1.815.002-4.762.895-6.55 1.985-1.788 1.09-3.25 2.165-3.25 2.389 0 .223 1.67-.445 3.711-1.486 2.042-1.041 4.675-1.892 5.852-1.892 1.176 0 4.311 1.155 6.965 2.566 3.214 1.709 4.374 2.021 3.472.934-.745-.897-2.602-2.277-4.128-3.066-1.525-.789-4.258-1.432-6.072-1.43m49.482.019c-1.53.013-4.426.976-6.436 2.142-2.01 1.165-4.155 3.292-4.766 4.727-1.034 2.425-1.007 2.473.388.688.825-1.056 2.745-2.74 4.266-3.743 1.721-1.135 4.611-1.826 7.648-1.83 4.342-.006 5.269.404 8.388 3.711l3.507 3.718-1.705-3.297c-1.003-1.939-3.105-3.882-5.106-4.718-1.871-.781-4.654-1.411-6.184-1.398M357 163h-6.1l.3 5.75.3 5.75h11l.3-5.75.3-5.75H357m0 1h-5v10h10v-10h-5m-113.031 2c-4.2 0-6.192.418-6.56 1.377-.291.757-.389 3.57-.219 6.25l.31 4.873 6.25.298 6.25.297V166h-6.031m-.469 1H238v11h11v-11h-5.5m-29.758 8.881-.372-5.381-.185 6.202-.185 6.203-6.25.355-6.25.355 6.281.192c4.534.139 6.428-.188 6.807-1.176.289-.753.358-3.791.154-6.75M324.469 174c-2.969 0-4.718.484-5.071 1.405-.296.772-.395 2.91-.218 4.75.309 3.229.485 3.356 5.07 3.65l4.75.305V174h-4.531m-.469 1h-4v8h8v-8h-4m-30.75 2.189L287 177v6.5c0 6.108.136 6.493 2.25 6.384 1.693-.087 1.817-.229.5-.573-1.393-.364-1.75-1.555-1.75-5.834V178.1l5.75-.361 5.75-.361-6.25-.189m50.75 3.188-5.5-.124 5 .624 5 .623.303 4.696.302 4.696-5.058.391-5.058.391 5.255-.087 5.256-.087v-11l-5.5-.123m26.583 1.798-4.083.174 4.25.383c4.007.361 4.256.565 4.35 3.575.055 1.756.46 4.318.9 5.693.63 1.967.822 1.381.9-2.75l.1-5.25h12v5.927c0 4.803-.332 6.013-1.75 6.384-1.291.337-1.148.487.546.573 2.206.111 2.284-.147 2-6.634l-.296-6.75-6.787-.12c-3.732-.066-7.07-.403-7.416-.75-.347-.346-2.468-.551-4.714-.455m121.156 11.075c-.198-3.162-.361-.575-.361 5.75s.163 8.912.361 5.75c.198-3.162.198-8.338 0-11.5m-234.999-.055c-3.435-.22-4.914.096-5.313 1.135-.304.793-.378 3.405-.165 5.806.384 4.314.391 4.304.563-.886L252 194h8.895l.39 5.006.389 5.005-.087-5.255-.087-5.256-4.76-.305m102.479 11.031c-14.135-.175-18.394.065-18.775 1.059-.271.707-.358 9.144-.193 18.75l.299 17.465.225-18.227.225-18.228 18.25-.296 18.25-.297-18.281-.226m50.519 1.974c-4.277-.223-5.903.067-6.31 1.127-.301.785-.408 3.585-.238 6.222.186 2.88.819 4.896 1.585 5.048.701.139.814.024.25-.255-.564-.28-1.025-2.946-1.025-5.925V207h10.909l.295 6.75.296 6.75 5.204.301 5.203.3.368 5.7.368 5.699-.072-6-.071-6-5.205-.301-5.206-.3-.294-6.7-.295-6.699-5.762-.3m-111.023 6.601-.384-6.301.085 6.5.084 6.5 5.405.308c3.648.207 5.675-.118 6.235-1 .456-.72.836-3.419.845-5.999.008-2.58-.322-4.901-.735-5.157-.413-.256-.75 2.079-.75 5.191v5.657l-5.201.301-5.201.3-.383-6.3m90.535-5.626-4.75.174 4.25.383c4.237.382 4.25.395 4.25 4.431v4.047l-4-.381c-2.2-.21-4-.032-4 .395 0 .427 2.025.776 4.5.776h4.5v-10l-4.75.175m71.25 4.268c-16.5.001-23.11.138-14.688.305 8.421.168 21.921.167 30 0 8.078-.168 1.188-.305-15.312-.305m-248.781 8.737c-3.314-.125-4.947.251-5.321 1.225-.296.772-.395 2.91-.218 4.75.312 3.264.434 3.347 5.076 3.437l4.757.092-4.507-.397c-4.501-.396-4.506-.401-4.506-4.287v-3.89l4.75-.375 4.75-.375-4.781-.18m28.017 14.533c-.201-2.867-.364-.263-.362 5.787.002 6.05.167 8.396.366 5.213.199-3.182.197-8.132-.004-11m24.073 18.488c-.17.111-5.709.47-12.309.799l-12 .598 11.691.201c6.941.119 11.942-.205 12.309-.799.34-.55.479-.909.309-.799m124.939 3.256c-.778-.299-1.52.039-1.649.75s-.383 3.543-.565 6.293l-.331 5H398V257h-3.918c-2.155 0-4.555-.244-5.334-.543m3.002 1.733-3.75-.311V267h8.115l-.308-4.25c-.298-4.125-.417-4.259-4.057-4.56m-50.507 229.212-4.258-.098 4.008.405 4.007.406v18.442c0 17.11.145 18.588 2 20.443 1.1 1.1 3.012 1.959 4.25 1.91 1.735-.07 1.505-.305-1-1.029-1.788-.516-3.338-1.038-3.445-1.16-.108-.121-.445-8.996-.75-19.721l-.555-19.5-4.257-.098m64.476-.222c-3.058-.115-4.946.271-5.237 1.07-.251.688-.574 6.65-.719 13.25l-.263 12-4.2-8c-2.31-4.4-4.223-7.653-4.25-7.228-.028.425 1.755 4.362 3.961 8.75s4.456 7.978 5 7.978c.603 0 .989-5.25.989-13.445V488.11l4.75-.375 4.75-.375-4.781-.18m81.781.225c-8.8.001-12.266.154-7.703.34 4.564.185 11.764.184 16-.003 4.237-.187.503-.338-8.297-.337m28.24-.21c-3.259-.209-4.921.112-5.269 1.02-.279.728-.379 12.116-.221 25.305l.288 23.98.231-24.75L511 488h9v9.5c0 8.387.205 9.498 1.75 9.485 1.198-.011 1.369-.258.542-.783-.758-.482-1.317-4.111-1.5-9.735l-.292-8.967-4.76-.305m51.26.202c-7.975 0-11.237.156-7.25.346 3.987.189 10.513.189 14.5 0 3.987-.19.725-.346-7.25-.346m57.339-.196c-2.838-.165-5.384.06-5.656.5-.273.439 1.936.645 4.91.456l5.407-.342V537h-9v-13.5c0-7.425-.398-13.5-.883-13.5-.486 0-1.143.993-1.461 2.206-.317 1.214-.37 2.414-.116 2.667.253.253.551-.177.663-.956.111-.78.449 4.208.75 11.083l.547 12.5h10v-50l-5.161-.299m113.161.197-5-.102 4.729.406 4.728.406.305 18.947.305 18.947-.034-19.251-.033-19.251-5-.102m-420.753 9.023-.336-8.921-.205 9.839-.206 9.839-5.907-.339c-3.249-.187-5.698-.002-5.441.411.256.413 2.929.75 5.938.75 3.63 0 5.645-.448 5.983-1.329.28-.731.359-5.344.174-10.25m18.997.277c-.181-5.059-.328-.648-.327 9.802.001 10.45.149 14.589.329 9.198.18-5.391.179-13.941-.002-19m22.001.052c-.181-5.088-.33-.925-.33 9.25s.149 14.337.33 9.25c.182-5.088.182-13.413 0-18.5m-30.999 3.443c-.174-6.431-.315-.893-.315 12.307.001 13.2.143 18.462.316 11.693.174-6.769.173-17.569-.001-24m50.001.557c-.173-6.738-.315-1.225-.315 12.25s.142 18.987.315 12.25c.173-6.737.173-17.762 0-24.5m319.994 12.249-.295-24 .027 24.25.027 24.251h29v-10l-9.5-.063-9.5-.063 9.25.351 9.25.35V537h-27.964l-.295-24.001m36.232-.499-.528-24-.222 23.628c-.181 19.141.041 23.846 1.165 24.779.935.776 5.751 1.061 14.75.873l13.362-.28v-10l-9.5-.063-9.5-.063 9.25.351 9.25.35v8.981l-13.75-.278-13.75-.278-.527-24M448.701 496c-.23 0-2.057 2.468-4.059 5.485-2.003 3.016-3.642 5.956-3.642 6.533s1.133 3.284 2.517 6.015c1.384 2.732 2.742 4.967 3.017 4.967.275 0-.633-2.235-2.017-4.967-1.384-2.731-2.517-5.463-2.517-6.07 0-.606 1.273-2.984 2.83-5.283 1.556-2.299 3.158-4.742 3.559-5.43.401-.687.541-1.25.312-1.25m28.442.163-5.643.163 5.5.587 5.5.587.541 15 .541 15 .209-14.168c.115-7.793-.064-14.88-.398-15.75-.465-1.213-1.923-1.544-6.25-1.419m22.307 0c-2.812-.091-5.582.369-6.25 1.037-.815.815-1.136 4.748-1.001 12.25l.2 11.05.55-11.5.551-11.5 5.5-.587 5.5-.587-5.05-.163m72.922.028c-6.865-.144-9.42.163-10.311 1.235-.651.784-1.043 3.372-.872 5.75l.311 4.324 7.75.292 7.75.292v7.828l-7.25.294-7.25.294-.3 5.75c-.165 3.163.06 5.751.5 5.751.44.001.647-2.453.46-5.454l-.34-5.456 7.34-.295 7.34-.296v-9l-7.803-.293-7.803-.293.303-4.707.303-4.707 9.5-.559 9.5-.558-9.128-.192M293.743 507.25c-.187-4.262-.341-.775-.341 7.75s.154 12.013.341 7.75c.188-4.263.188-11.238 0-15.5m248.997.5c-.195-3.437-.355-.625-.355 6.25s.16 9.688.355 6.25c.196-3.437.196-9.062 0-12.5M387.456 510c-.285 0-.744.587-1.02 1.305-.275.718-.358 6.906-.185 13.75l.317 12.445.265-13.5.266-13.5L391 518c2.146 4.125 3.923 7.151 3.951 6.725.027-.426-1.532-3.914-3.464-7.75-1.931-3.836-3.746-6.975-4.031-6.975m211.437 1c-.491 0-.796 5.962-.678 13.25l.215 13.25.317-11.789c.196-7.267.688-11.56 1.285-11.191.532.329.968.383.968.121 0-.263-.273-1.189-.607-2.059-.334-.87-1.009-1.582-1.5-1.582M310 516.416l-6.5-.085 6.216.381 6.215.382.34 9.955.339 9.955-.055-10.252-.055-10.252-6.5-.084m216.25-.214-6.25-.297v9.964c0 5.808-.428 10.176-1.025 10.473-.564.279-.451.393.25.252.903-.181 1.358-3.075 1.561-9.925l.286-9.669H532v10c0 5.5.337 10.001.75 10.002.413.002.525-4.611.25-10.25l-.5-10.252-6.25-.298m40.547 20.794c-8.087-.273-14.351-.145-13.921.283.431.429 7.047.652 14.703.497l13.921-.283-14.703-.497"/>
  <path fill="#93571b" fill-rule="evenodd" d="M378.378 253.196c-2.167-.211-3.315.197-3.75 1.332-.346.9-.599 2.161-.565 2.804.035.642.471.156.968-1.082.604-1.503 1.745-2.25 3.437-2.25 2.167 0 2.532.449 2.532 3.113 0 2.891-.215 3.082-3 2.674-1.65-.242-3-.042-3 .445s-.562.548-1.25.135c-.753-.452-.668-.035.213 1.051.876 1.078 1.612 1.356 1.834.692.203-.611 1.709-1.11 3.347-1.11 2.828 0 2.961-.187 2.666-3.75-.28-3.389-.611-3.779-3.432-4.054M366.94 261c-.517 0-.94 1.77-.94 3.934 0 3.523-.287 3.977-2.75 4.35-1.512.229.175.439 3.75.466 4.054.032 5.559-.209 4-.639-2.007-.554-2.561-1.421-2.81-4.4-.171-2.041-.734-3.711-1.25-3.711m1.155 10c-.498 0-.663 1.8-.368 4l.536 4h-3.741c-3.686 0-3.735-.051-3.332-3.5.225-1.925.022-3.5-.451-3.5-.473 0-.72 1.688-.549 3.75.301 3.64.435 3.759 4.56 4.057l4.25.308v-4.558c0-2.506-.407-4.557-.905-4.557m32.173 1c-.182 0-.577.642-.878 1.427-.302.785-.4 2.473-.219 3.75.268 1.89 1.028 2.381 4.079 2.633 3.678.305 3.75.244 3.75-3.191 0-1.925-.356-3.721-.791-3.99-.435-.269-.611 1.055-.391 2.941.383 3.279.259 3.43-2.818 3.43-3.09 0-3.202-.14-2.81-3.5.225-1.925.26-3.5.078-3.5m-44.741 45.85L353 314.847v2.642c0 1.453-.486 3.551-1.081 4.662-.595 1.111-.906 2.195-.693 2.408.213.214 2.612.66 5.331.993 2.719.333 7.756.309 11.193-.053l6.25-.658v-9.19l-2.25 2.108c-1.238 1.159-3.566 2.606-5.174 3.216-1.608.609-4.183.831-5.723.493-1.539-.338-3.936-1.966-5.326-3.618m77.221-2.435c-.214-.215-1.354.914-2.533 2.508-1.178 1.594-3.787 3.441-5.797 4.104-2.01.664-5.577.99-7.926.725-2.544-.287-5.739-1.601-7.901-3.251-3.004-2.291-3.525-2.443-3.017-.885.337 1.036 1.067 3.1 1.621 4.585.554 1.486 2.146 3.448 3.538 4.36 1.996 1.307 2.239 1.843 1.149 2.533-.76.482-4.194.882-7.632.891-3.49.008-6.25.457-6.25 1.015 0 .652 16 1 46 1s46-.348 46-1c0-.55-2.137-1.006-4.75-1.014-2.613-.007-5.757-.283-6.987-.613l-2.238-.6 2.009-2.82c1.104-1.552 2.674-4.707 3.487-7.013.813-2.305 1.479-4.421 1.479-4.701 0-.28-.94.686-2.088 2.146-1.149 1.46-3.377 3.321-4.951 4.135-1.574.814-4.714 1.48-6.977 1.48-2.264 0-5.098-.506-6.3-1.125-1.201-.619-3.196-2.047-4.434-3.174l-2.25-2.05v2.72c0 1.501 1.009 3.708 2.25 4.924 1.238 1.213 3.375 2.941 4.75 3.842 2.498 1.635 2.496 1.637-3.333 2.375-3.208.407-12.088.539-19.734.295-7.647-.244-14.191-.732-14.543-1.084-.353-.352.686-1.758 2.308-3.123 1.623-1.365 3.51-4.352 4.195-6.638.685-2.286 1.07-4.332.855-4.547m245.046 2.78c-3.78-3.415-4.028-3.504-3.314-1.193.426 1.374 1.421 3.771 2.213 5.327s2.872 3.427 4.623 4.158c1.751.731 4.873 1.646 6.938 2.033 2.725.511 4.436.258 6.238-.923 1.365-.894 3.388-3.402 4.495-5.572 1.107-2.17 2.013-4.211 2.013-4.536 0-.325-1.462.522-3.25 1.882-1.788 1.36-4.49 2.783-6.007 3.161-1.516.379-4.355.388-6.309.022-2.003-.376-5.336-2.278-7.64-4.359m-50.142.358c-1.459-1.352-2.652-2.066-2.652-1.587 0 .478 1.124 3.108 2.499 5.844 1.374 2.736 3.286 5.297 4.25 5.69 1.608.656 1.588.782-.249 1.537-1.1.452-4.925.925-8.5 1.05l-6.5.228 7 .718c3.85.395 24.411.774 45.691.843 21.28.068 38.932-.265 39.226-.741.294-.476-2.409-1.101-6.007-1.39-3.598-.289-15.85-.286-27.226.006-11.376.293-24.284.194-28.684-.219l-8-.751 4.232-1.993c2.328-1.097 5.139-3.462 6.25-5.258 1.11-1.797 2.018-3.815 2.018-4.487 0-.671-1.363-.074-3.029 1.328-1.667 1.402-4.635 2.851-6.597 3.219-1.962.368-5.255.163-7.319-.455-2.063-.619-4.945-2.23-6.403-3.582M491.541 334.5c-.211-.55-.419 19.587-.462 44.75-.043 25.163.258 45.75.671 45.75.413 0 .62-20.137.462-44.75-.159-24.612-.461-45.2-.671-45.75m124.634 4c-.667-3.666-1.012 3.007-1.293 25-.21 16.5-.247 37.087-.083 45.75.164 8.663.614 15.749 1 15.749.386-.001.832-18.339.993-40.75.161-22.412-.117-42.999-.617-45.749M410.814 353c-.448 0-.782.563-.744 1.25.039.688.39 2.061.782 3.052.391.991 3.821 4.925 7.622 8.744 3.801 3.818 7.77 7.214 8.82 7.547 1.049.333 2.347.166 2.884-.371.637-.637-2.43-4.335-8.786-10.6-5.371-5.292-10.131-9.622-10.578-9.622m284.808 1c-.639 0-5.33 4.186-10.424 9.301-5.094 5.116-8.948 9.616-8.564 10 .385.385 1.425.699 2.312.699.886 0 4.406-2.819 7.821-6.265 3.415-3.445 7.066-7.945 8.113-10 1.229-2.411 1.493-3.735.742-3.735m-166.91 6.379c-.204-.204-1.46.795-2.791 2.22-1.332 1.425-3.636 3.223-5.121 3.996-1.486.773-4.328 1.405-6.316 1.405-1.989 0-4.598-.505-5.8-1.122-1.201-.617-3.422-2.277-4.934-3.687l-2.75-2.565v3.319c0 1.825.919 4.806 2.042 6.623 1.255 2.03 3.411 3.756 5.59 4.475 1.951.644 4.902.9 6.557.569 1.656-.331 4.716-1.953 6.801-3.604s4.534-4.86 5.442-7.13c.908-2.27 1.485-4.295 1.28-4.499m52.131 2.247c-1.581-1.892-1.78-1.93-1.81-.344-.018.98.587 3.267 1.346 5.082.758 1.815 2.619 4.276 4.135 5.468 2.026 1.594 4.135 2.168 7.968 2.168 3.532 0 5.86-.564 7.222-1.75 1.105-.962 2.974-3.645 4.153-5.96 1.178-2.316 2.143-4.762 2.143-5.437 0-.675-1.237-.047-2.75 1.396-1.513 1.443-4.017 3.102-5.565 3.687s-4.158 1.064-5.8 1.064c-1.641 0-4.398-.731-6.125-1.624-1.727-.893-3.94-2.581-4.917-3.75M457.651 399c-.358 0-.651 1.272-.651 2.827 0 2.214 1.708 4.488 7.885 10.5 4.789 4.66 8.716 7.673 10 7.673 1.163 0 2.115-.585 2.115-1.299 0-.715-4.207-5.44-9.349-10.5-5.142-5.061-9.642-9.201-10-9.201m191.549 1.624c-.44-.272-5.23 3.642-10.643 8.699-8.715 8.14-9.659 9.347-8.236 10.529 1.364 1.132 2.058 1.014 4.568-.773 1.628-1.159 5.694-5.091 9.036-8.738 3.341-3.647 6.075-7.214 6.075-7.927 0-.713-.36-1.518-.8-1.79M529.743 403c-.29 0-.82 1.172-1.18 2.604-.359 1.432-1.375 3.705-2.257 5.051-.882 1.346-2.932 3.134-4.556 3.974-2.07 1.071-4.556 1.364-8.314.982-2.948-.301-6.333-1.124-7.522-1.829-1.189-.705-2.996-3.082-4.016-5.282s-1.864-3.212-1.876-2.25c-.012.962-.458 1.75-.991 1.75-.532 0-.795.563-.584 1.25.211.688.642 4.079.957 7.536.532 5.839.414 6.351-1.666 7.187-1.486.598 2.72.922 12.512.964 9.59.041 14.75-.301 14.75-.977 0-.573.957-2.336 2.128-3.919 1.524-2.062 2.271-4.886 2.634-9.959.279-3.895.27-7.082-.019-7.082m47.869 2.036c-.497-.02-.591 2.865-.214 6.545.456 4.454 1.309 7.261 2.638 8.688 1.08 1.16 1.964 2.698 1.964 3.42 0 1.008 2.761 1.311 11.969 1.311 10.456 0 11.892-.198 11.367-1.567-.331-.863-.12-2.55.469-3.75.589-1.201 1.246-5.086 1.461-8.634.302-4.99.146-6.015-.688-4.525-.593 1.061-2.43 3.336-4.082 5.056-2.407 2.506-4.141 3.27-8.721 3.842-3.981.498-6.562.314-8.496-.604-1.6-.759-3.628-3.106-4.779-5.532-1.1-2.317-2.4-4.23-2.888-4.25"/>
</svg>
