<svg xmlns="http://www.w3.org/2000/svg" width="1000" height="1000">
  <path fill="#213a64" fill-rule="evenodd" d="M411.458 161.5c-11.345 0-20.814.188-21.042.417-.229.229-.416 9.961-.416 21.627 0 15.837.317 21.432 1.25 22.084.688.479 10.25.872 21.25.872h20l.283-20.5c.156-11.275.062-21.4-.208-22.5-.471-1.919-1.322-2-21.117-2m244.326 27.246-123.715-.246-14.49 14.961c-7.97 8.228-14.772 14.68-15.115 14.337-.343-.343 1.021-2.351 3.031-4.461 2.01-2.11 4.109-4.667 4.665-5.682.842-1.535.704-1.757-.824-1.323-1.01.287-3.687.809-5.95 1.16-2.262.351-5.412 1.618-7 2.816-1.587 1.198-6.36 5.574-10.607 9.724l-7.721 7.547 1.139 3.71c.886 2.889 1.653 3.711 3.461 3.711 2.242 0 2.262.072.582 2.062-.957 1.134-12.463 12.46-25.568 25.169l-23.828 23.108-2.826-1.67c-1.555-.918-3.882-1.655-5.172-1.639-2.075.027-2.144.149-.596 1.05.962.561 1.75 1.66 1.75 2.444s-1.306 2.1-2.903 2.926c-1.596.825-4.566 1.629-6.6 1.785-3.067.235-5.273 1.729-12.954 8.774-5.091 4.67-10.033 9.746-10.98 11.281-1.648 2.669-1.635 2.959.302 6.675l2.025 3.885-7.201 6.825c-3.96 3.754-9.561 8.808-12.445 11.232-5.213 4.38-5.244 4.44-5.244 10.191 0 3.181.472 6.076 1.049 6.432.639.395.696 1.101.146 1.809-.499.642-.987 21.159-1.091 45.911l-.189 44.75h45.848l2.868 3.748c1.578 2.061 4.547 6.336 6.597 9.5l3.728 5.752H543v-54.441c0-38.105.326-54.642 1.087-55.112.597-.37 51.966-.619 114.153-.555 81.695.085 113.44.427 114.413 1.235 1.086.902 1.347 8.542 1.347 39.501v38.383l85.25-.255 85.25-.256.24-45.5c.133-25.025-.092-45.96-.5-46.522-.407-.563-3.44-3.257-6.74-5.988-3.3-2.731-8.659-7.502-11.909-10.602l-5.908-5.637 1.669-4.172c1.116-2.79 1.366-4.736.756-5.875-.502-.937-3.793-4.404-7.313-7.704-3.52-3.3-8.703-8.11-11.519-10.688-2.815-2.579-5.717-4.788-6.447-4.91-.731-.123-2.585.295-4.119.928-2.289.944-2.607 1.467-1.771 2.911.56.967 3.053 3.778 5.54 6.246 2.486 2.467 4.521 4.914 4.521 5.437 0 .523-14.631-13.646-32.514-31.486-17.882-17.841-32.957-32.588-33.5-32.771-.542-.184-.976-1.084-.964-2 .012-.917.902-2.792 1.978-4.167s1.966-3.214 1.978-4.086c.012-.872-3.025-4.472-6.749-8-3.724-3.528-8.561-7.992-10.75-9.92-2.26-1.992-6.037-4.044-8.743-4.75-2.621-.684-5.208-1.244-5.75-1.244-.542 0-.986.428-.986.951 0 .523 6.263 7.385 13.918 15.249 7.654 7.864 13.791 14.424 13.638 14.578-.154.154-3.34-2.546-7.079-5.999-3.74-3.454-13.14-12.698-20.888-20.543-7.749-7.846-15.275-15.608-16.724-17.25-1.767-2.003-3.578-2.987-5.5-2.99-1.576-.003-58.537-.115-126.581-.25M588.458 200.6c-2.177-.269-5.819.117-8.093.858-2.274.742-5.109 1.87-6.301 2.508-1.191.637-3.493 2.548-5.115 4.245-1.622 1.697-2.949 3.535-2.949 4.083 0 .549 1.096-.185 2.436-1.631 1.34-1.446 4.17-3.532 6.287-4.636 2.118-1.104 5.952-2.295 8.52-2.647 2.635-.361 6.757-.115 9.463.565 2.637.663 6.286 2.342 8.11 3.731 1.823 1.389 3.514 2.328 3.756 2.085.242-.242-.401-1.411-1.429-2.597-1.029-1.186-3.864-3.038-6.299-4.115-2.436-1.077-6.21-2.179-8.386-2.449m144.717.875c-3.671-.218-8.025-.042-9.675.391-1.65.433-3.964 1.305-5.142 1.938-1.178.633-3.316 2.546-4.75 4.25-1.434 1.705-2.608 3.576-2.608 4.158 0 .582.943-.141 2.095-1.605 1.152-1.465 3.739-3.491 5.75-4.503 2.01-1.013 5.68-2.136 8.155-2.495 2.475-.36 6.935-.192 9.912.373 2.977.565 6.884 2.15 8.683 3.523 1.799 1.372 3.605 2.495 4.013 2.495.407 0-.35-1.168-1.684-2.595-1.333-1.427-3.695-3.256-5.249-4.064-1.554-.809-5.829-1.648-9.5-1.866m-595.047 36.54c-.346.009-1.093.346-1.662.75s-2.819 2.983-5 5.731c-2.181 2.749-6.666 8.191-9.966 12.095-3.3 3.904-7.8 9.223-10 11.82-2.2 2.597-4.136 5.101-4.303 5.565-.167.464 2.083 2.711 5 4.993 2.917 2.283 8.903 6.834 13.303 10.114 4.4 3.28 11.15 8.243 15 11.029l7 5.066 3.5-4.238c1.925-2.331 8.779-10.439 15.231-18.018 6.452-7.579 12.189-14.064 12.75-14.41.56-.347 1.019-1.006 1.019-1.466 0-.459-5.738-4.731-12.75-9.493-7.012-4.762-16.293-11.11-20.622-14.106-4.33-2.996-8.155-5.44-8.5-5.432m193.863 37.804-8.87-.319-.311 9.272c-.17 5.1-.16 9.713.023 10.25.184.539 4.315.978 9.191.978 4.872 0 9.005-.337 9.184-.75.179-.413.174-4.881-.01-9.931l-.336-9.181-8.871-.319M733.5 289.776c-2.75-.218-6.35-.11-8 .24-1.65.35-4.013 1.181-5.25 1.846-1.237.664-2.25 1.375-2.25 1.58 0 .204.907.134 2.016-.156 1.108-.29 2.26-.923 2.559-1.407.298-.483 4.14-.879 8.537-.879 6.879 0 8.507.349 11.673 2.5 2.024 1.375 4.051 2.5 4.506 2.5.455 0 .54-.464.189-1.032-.35-.567-2.515-1.879-4.809-2.914-2.294-1.035-6.421-2.06-9.171-2.278M243.167 304c-17.509 0-32.134.3-32.5.667-.367.366-.667 14.74-.667 31.941 0 18.423.386 31.513.939 31.854.517.32 15.142.684 32.501.809l31.561.229-.001-32.75V304h-31.833m117.583 4.014L354 308v19h18v-8.883c0-8.367-.131-8.919-2.25-9.487-1.238-.331-5.288-.609-9-.616m-119.625 5.104c-3.566.115-3.552.13.875.911 2.475.437 6.075 1.477 8 2.311 1.925.834 4.32 2.492 5.322 3.683 1.001 1.192 2.126 1.854 2.5 1.472.373-.382-1.022-2.171-3.101-3.976-2.078-1.804-5.172-3.559-6.875-3.9-1.703-.34-4.727-.566-6.721-.501M907 367.22c-.825.011-3.413.48-5.75 1.042s-4.25 1.361-4.25 1.775c0 .414 1.688.361 3.75-.118 2.063-.479 5.775-.927 8.25-.995 3.757-.103 4.087-.255 2-.924-1.375-.44-3.175-.791-4-.78M344.893 369H337v17h7.893c6.275 0 8.017-.324 8.5-1.582.334-.87.607-3.983.607-6.918s-.273-6.048-.607-6.918c-.483-1.258-2.225-1.582-8.5-1.582M298 379.245c-4.675-.14-9.077.12-9.782.578-.938.611-1.172 3.227-.872 9.756l.41 8.921 9.252.5c6.136.332 9.39.137 9.663-.579.227-.594.281-5.094.12-10l-.291-8.921-8.5-.255M322.915 414H316v14h5.918c3.255 0 6.518-.229 7.25-.509.971-.37 1.241-2.27.997-7l-.336-6.491h-6.914m21.066 2H333v24.066l11.25-.283 11.25-.283.293-9.5c.161-5.225.04-10.512-.269-11.75-.54-2.163-.989-2.25-11.543-2.25m-114.436 32h-6.454l-.618 3.294c-.34 1.812-.473 5.074-.296 7.25l.323 3.956 6 .649c3.3.356 6.338.442 6.75.191.412-.252.75-3.806.75-7.899V448h-6.455m70.469 7H267v66.027l32.75-.263 32.75-.264.264-32.75.263-32.75h-33.013m92.847 3H383v21.586l3.25.957c3.195.941 3.255 1.068 3.542 7.524l.291 6.566 4.209.934 4.208.933.303 5.281.304 5.282 11.696-.282 11.697-.281.282-11.75.281-11.75h-8.972c-5.578 0-9.237-.426-9.67-1.127-.383-.62-.922-6.245-1.198-12.5L402.721 458h-9.86m-193.895 1h-11.034l.284 10.75.284 10.75 10.75.284 10.75.284V459h-11.034m157.27.206c-5.494-.223-7.395.045-7.8 1.099-.294.766-.4 4.499-.235 8.294l.299 6.901h15v-16l-7.264-.294M234.5 471H224v22h21v-22h-10.5m-206 12H21v17h15v-17h-7.5m95 17.461c-1.1-.021-10.848.101-21.663.271l-19.663.31-.37 21.229c-.203 11.676-.098 21.576.234 21.999.331.424 10.246.649 22.032.5l21.43-.27v-22c0-21.32-.062-22.001-2-22.039M209 503h-8v16h16v-16h-8m119.843 40.999c-.362 0-.843 2.588-1.069 5.751-.307 4.308-.017 6.139 1.158 7.301 1.158 1.145 2.615 1.379 5.568.892l4-.659-3.5-.157c-1.925-.087-4.108-.543-4.85-1.013-.947-.6-1.246-2.535-1-6.486.192-3.097.054-5.63-.307-5.629m31.003 5.197c-5.897-.167-9.788.122-10 .743-.19.56-.204 5.498-.031 10.974l.315 9.957 9.926.315c7.572.24 10.048-.001 10.435-1.017.28-.732.502-5.232.494-10-.009-4.767-.346-9.125-.75-9.683-.404-.559-5.079-1.139-10.389-1.289M360.5 552H352v17h17v-17h-8.5m.216 145H354v23h23v-6.788c0-6.781-.005-6.792-4.784-11.5-4.745-4.673-4.84-4.712-11.5-4.712"/>
  <path fill="#ececec" fill-rule="evenodd" d="M500.501 0H0v1000.002l500.25-.251 500.25-.251.251-499.75.251-499.75H500.501M.75 250.168C.61 112.851.496 225.5.496 500.5S.61 887.851.75 750.168c.14-137.682.14-362.682 0-500M412.058 160c-11.948 0-22.025.3-22.391.667-.367.366-.667 10.626-.667 22.8 0 15.881.339 22.472 1.2 23.333.854.854 7.026 1.2 21.418 1.2 11.12 0 20.924-.271 21.786-.601 1.354-.52 1.565-3.457 1.551-21.695-.008-11.602-.275-22.131-.593-23.399l-.579-2.305h-21.725m246.736 26.776-126.702-.276-6.406 6.22c-6.185 6.007-6.522 6.187-9.789 5.25-1.861-.533-4.16-.97-5.108-.97-.949 0-5.227 3.023-9.507 6.717-4.28 3.695-10.638 9.433-14.128 12.75-3.49 3.318-7.225 7.258-8.299 8.756-1.843 2.57-1.865 2.98-.397 7.304 1.022 3.012 1.242 5.161.641 6.277-.503.933-4.443 4.996-8.757 9.029-4.313 4.033-14.213 13.661-22 21.395l-14.158 14.063-4.112-1.646c-2.262-.905-4.523-1.645-5.024-1.645-.501 0-5.105 3.533-10.23 7.851s-12.58 11.294-16.568 15.503c-3.988 4.209-7.25 8.348-7.25 9.199 0 .85.691 2.883 1.537 4.518 1.526 2.951 1.502 3.007-3.451 8.244-2.743 2.9-8.15 7.953-12.017 11.229l-7.03 5.956-.02 52.691c-.015 41.072.257 52.869 1.231 53.5.688.445 10.965.809 22.839.809 16.278 0 21.978.321 23.168 1.304.868.718 3.523 4.318 5.898 8 2.376 3.683 5 7.244 5.832 7.914 1.148.925 15.068 1.226 57.704 1.25 34.199.02 56.419-.337 56.774-.912.321-.519.574-25.044.562-54.5L544.005 359l49.248-.18c27.086-.099 61.847-.117 77.247-.04 15.4.078 44.76.159 65.245.18l37.244.04-.237 38.75-.238 38.75H945.5l.24-46.5c.133-25.575-.092-46.951-.5-47.502-.407-.551-4.565-4.227-9.24-8.168-4.675-3.941-9.976-8.701-11.78-10.576-3.176-3.303-3.231-3.503-1.756-6.332.838-1.607 1.523-3.597 1.523-4.422 0-.825-5.504-7.125-12.23-14-6.727-6.875-13.966-13.962-16.088-15.75-2.17-1.828-4.986-3.25-6.435-3.25-1.417 0-3.365.714-4.329 1.586-1.608 1.456-1.986 1.412-4.579-.532-1.554-1.165-12.26-11.528-23.789-23.027l-20.964-20.909 1.714-3.593c.942-1.976 1.713-4.264 1.713-5.085 0-.82-6.734-8.218-14.965-16.438-8.738-8.727-16.064-15.222-17.606-15.609-1.643-.412-3.944-.041-6.091.983l-3.452 1.646-5.695-5.985-5.695-5.985-126.702-.276m-521.001 48.232c-.389-.005-3.295 3.254-6.457 7.242s-8.408 10.4-11.658 14.25c-3.25 3.85-6.818 8.125-7.928 9.5-1.111 1.375-3.163 3.732-4.561 5.238l-2.54 2.738 3.988 3.793c2.193 2.087 11.484 9.292 20.646 16.012 9.163 6.721 17.301 12.219 18.085 12.219.783 0 2.709-1.511 4.278-3.359 1.57-1.847 6.454-7.741 10.854-13.097 4.4-5.356 10.35-12.283 13.221-15.391 2.872-3.109 5.234-6.384 5.25-7.278.016-.899-3.21-3.91-7.221-6.738-3.988-2.812-13.55-9.615-21.25-15.117-7.7-5.503-14.318-10.008-14.707-10.012m194.439 39.207c-7.923-.22-10.387.024-10.788 1.071-.287.746-.391 5.824-.232 11.285l.288 9.929 10.783.284 10.783.284-.283-11.284-.283-11.284-10.268-.285M273 302.244c-.275.117-14.675.448-32 .735l-31.5.521-.264 32.381c-.19 23.244.06 32.77.884 33.763.942 1.136 6.98 1.336 33.764 1.119l32.616-.263v-33.287c0-28.501-.216-33.424-1.5-34.235-.825-.521-1.725-.851-2-.734M363.035 307H353v21.072l9.75-.286 9.75-.286.285-10.25.285-10.25h-10.035m-18.344 60.654c-5.747-.374-7.937-.176-8.293.752-.267.694-.352 5.049-.191 9.678l.293 8.416h18l.289-8.766c.214-6.484-.046-8.871-1-9.169-.709-.221-4.803-.63-9.098-.911M304.5 377.667c-1.1-.092-5.6.058-10 .333l-8 .5v21l9.772.5c5.375.275 10.213.35 10.75.167.557-.19.978-5.033.978-11.25 0-6.004-.337-10.955-.75-11-.413-.046-1.65-.159-2.75-.25M323.469 412c-5.398 0-7.678.382-8.05 1.349-.284.742-.383 4.455-.218 8.25l.299 6.901 8 .5 8 .5.5 6 .5 6 10 .219c5.5.121 11.026-.003 12.28-.276 2.246-.489 2.275-.684 2-13.22l-.28-12.723-12.75-.28c-10.425-.229-12.75-.548-12.75-1.75 0-1.163-1.572-1.47-7.531-1.47m-93.597 35.21c-6.288-.239-7.737-.005-8.25 1.332-.342.892-.622 4.483-.622 7.981 0 3.561.486 6.659 1.104 7.042.608.375 3.883.905 7.279 1.178 4.764.382 6.464.147 7.441-1.031.838-1.009 1.167-4.018.972-8.87l-.296-7.342-7.628-.29m70.58 5.79c-18.334 0-33.56.366-33.836.813-.277.447-.746 15.473-1.044 33.39-.451 27.198-.309 32.77.86 33.741 1.006.835 10.509 1.14 33.664 1.083 22.804-.056 32.67-.418 33.653-1.233 1.143-.949 1.349-6.85 1.159-33.224-.128-17.639-.432-32.632-.677-33.32-.344-.966-8.016-1.25-33.779-1.25m92.465 3.015c-5.271-.008-9.884.285-10.25.652-.367.366-.667 5.991-.667 12.5V481h2.441c1.343 0 2.732.47 3.087 1.045s.944 4.063 1.309 7.75l.663 6.705 4.2.305 4.199.305.301 5.195.3 5.195 12.664.279 12.664.279.572-2.779c.314-1.528.388-3.679.162-4.779-.225-1.1-.443-5.696-.485-10.212l-.077-8.213-9.25-.287-9.25-.288-.284-11.962c-.19-8.028-.683-12.216-1.5-12.734-.669-.426-5.528-.78-10.799-.789m-193.14 1.19c-5.448.162-10.551.655-11.341 1.095-1.069.595-1.436 2.926-1.436 9.125 0 4.579.281 9.731.625 11.45l.625 3.125h22.444l.639-11.164c.445-7.782.292-11.583-.507-12.545-.866-1.044-3.563-1.309-11.049-1.086m155.61.795c-5.3 0-7.598.386-7.963 1.338-.283.737-.381 4.899-.219 9.25l.295 7.912 7.845.294c4.923.184 8.368-.141 9.25-.873.986-.818 1.405-3.482 1.405-8.936 0-6.164-.327-7.897-1.582-8.378-.87-.334-4.934-.607-9.031-.607m-120.04 11.313c-7.444-.364-10.296-.142-11.688.906-1.649 1.243-1.783 2.474-1.287 11.834.304 5.746.57 10.799.591 11.229.02.43 5.324.655 11.787.5l11.75-.282.286-10.914c.157-6.003-.137-11.337-.654-11.854-.516-.516-5.37-1.155-10.785-1.419M28.779 482.211c-8.387-.277-8.744-.2-9.301 2.021-.319 1.271-.444 5.45-.279 9.289l.301 6.979 8 .603c4.808.362 8.513.201 9.287-.403.914-.715 1.203-3.494 1-9.603L37.5 482.5l-8.721-.289M105 499.254c-11.825-.135-22.005.09-22.623.5-.752.499-1.271 8.116-1.571 23.022-.439 21.881-.41 22.285 1.624 22.783 1.138.279 11.52.38 23.07.224l21-.283v-46l-21.5-.246m104.5 2.317c-3.85-.32-7.581-.204-8.291.258-.935.608-1.211 3.305-1 9.756l.291 8.915 7.845.294c4.923.184 8.368-.141 9.25-.873.99-.821 1.405-3.502 1.405-9.075 0-5.451-.388-8.031-1.25-8.301-.687-.215-4.4-.654-8.25-.974m175.49 14.639c-4.202-.188-6.949.149-7.75.95-.775.775-1.24 4.166-1.24 9.04v7.8h8.031c5.529 0 8.166-.39 8.462-1.25.237-.687.111-4.625-.281-8.75l-.712-7.5-6.51-.29M334.922 542c-4.177 0-7.072.475-7.731 1.27-.579.698-1.197 3.227-1.372 5.62l-.319 4.351-4.5.46c-2.475.253-7.875.761-12 1.129l-7.5.67v38h18l.5-9.5.5-9.5 5.199-.3c3.851-.223 5.332-.741 5.714-2 .284-.935.362-3.72.175-6.189-.188-2.47-.124-5.057.142-5.75.305-.794 2.438-1.261 5.76-1.261 4.627 0 5.351-.277 5.88-2.25.331-1.237.609-4.523.616-7.3.008-2.777-.526-5.59-1.186-6.25-.694-.694-4.017-1.2-7.878-1.2m-88.673 6.787-25.251-.287.001 25.775.001 25.775 2.75 1.046c1.692.644 11.409.956 25.25.812 12.375-.129 23.063-.434 23.75-.678.956-.339 1.25-6.432 1.25-25.868 0-19.443-.294-25.526-1.25-25.856-.687-.237-12.613-.561-26.501-.719m114.199-.568c-6.079-.154-11.367.033-11.75.417-.384.383-.698 5.517-.698 11.408 0 7.946.36 11.01 1.396 11.87.914.758 4.974 1.059 11.75.872l10.354-.286v-24l-11.052-.281m91.381-.004c-9.158-.27-9.708-.171-10.358 1.877-.378 1.189-.373 5.93.011 10.535l.698 8.373h19.89l-.285-10.25-.285-10.25-9.671-.285m-91.305 5.173c-3.562-.056-6.6.019-6.75.167-.151.149-.128 3.347.05 7.107l.324 6.838 6.426.247 6.426.247v-14.503l-6.476-.103M381.078 576c-3.861 0-7.184.506-7.878 1.2-.661.661-1.2 3.837-1.2 7.066 0 3.226.466 6.736 1.035 7.8.871 1.626 2.137 1.934 7.965 1.934 5.759 0 7.1-.318 7.936-1.88.553-1.035.953-4.522.888-7.75-.064-3.229-.557-6.432-1.093-7.12-.607-.778-3.498-1.25-7.653-1.25m-19.993 2c-3.713 0-7.052.3-7.418.667-.367.366-.667 4.143-.667 8.393 0 6.123.328 7.852 1.582 8.333.87.334 4.208.607 7.418.607s6.548-.273 7.418-.607c1.255-.482 1.582-2.216 1.582-8.393 0-6.177-.327-7.911-1.582-8.393-.87-.334-4.62-.607-8.333-.607m126.664 3.173c-28.187.134-52.695.402-54.462.596-2.469.271-4.167 1.55-7.33 5.523-2.264 2.843-4.851 6.412-5.748 7.931-.897 1.519-3.152 3.263-5.011 3.877-2.11.696-10.207 1.025-21.539.876-9.988-.132-19.184-.18-20.437-.108l-2.279.132.058 44.75c.031 24.612.044 46.212.028 48L371 696h-18v25h25v-6c0-4.201.383-6 1.277-6 .702 0 4.337 3.084 8.078 6.854l6.801 6.853-1.139 4.229c-.967 3.593-.88 4.631.579 6.897.945 1.467 7.924 8.817 15.509 16.333 7.585 7.517 14.682 13.949 15.77 14.294 1.088.346 3.655-.072 5.704-.929l3.727-1.557 22.944 22.824 22.944 22.824-1.23 4.105c-1.11 3.703-1.018 4.45.935 7.61 1.191 1.927 8.038 9.165 15.216 16.085 7.178 6.92 14.206 12.871 15.619 13.226 1.412.355 3.394.129 4.403-.502 1.01-.63 2.44-1.146 3.177-1.146.738 0 4.007 2.699 7.264 5.998l5.922 5.999 127.471.001 127.471.002 5.732-5.672 5.732-5.673 4.068 1.219c2.237.67 4.601.889 5.253.486.653-.404 2.102-1.437 3.221-2.297 1.119-.86 7.26-6.738 13.646-13.063 6.387-6.325 12.321-12.625 13.187-14 1.226-1.946 1.383-3.497.706-7l-.868-4.5 22.841-22.898 22.842-22.898 4.009 1.604c3.953 1.581 4.065 1.565 7.85-1.178 2.111-1.53 9.634-8.552 16.716-15.604l12.877-12.822-.601-5.747-.6-5.746 12.06-11.615 12.06-11.615-.69-4.24c-.379-2.333-1.071-4.647-1.539-5.144-.469-.498-.417-1.712.114-2.706.587-1.095.862-17.415.704-41.597L945.5 606.5l-85.291.008c-70.115.006-85.438.245-86.118 1.344-.454.736-.683 17.975-.509 38.309.182 21.105-.079 38.016-.607 39.405L772.05 688H658.584c-89.675 0-113.636-.262-114.275-1.25-.445-.687-.941-24.307-1.102-52.488-.283-49.699-.351-51.269-2.251-52.286-1.311-.701-18.919-.967-53.207-.803M349 611.678c-3.025-.326-6.532-.169-7.794.349-2.138.877-2.274 1.437-2 8.207l.294 7.266h16l.258-6.5c.142-3.575-.083-7.002-.5-7.615-.417-.613-3.233-1.381-6.258-1.707M815.5 621c-2.96 0-5.66.45-6 1-.388.628 1.843 1 6 1s6.388-.372 6-1c-.34-.55-3.04-1-6-1m91.75.098c-4.007.058-7.766.701-9.25 1.58-2.455 1.456-2.436 1.468 1 .687 1.925-.438 6.087-.783 9.25-.768 3.163.016 5.75-.337 5.75-.784s-3.038-.769-6.75-.715m-595.233 3.13c-10.184.074-21.217.39-24.517.703l-6 .569v50l25 .268c21.388.229 25.16.049 26.108-1.247.77-1.053.959-8.747.618-25.268-.323-15.685-.864-23.992-1.591-24.456-.605-.386-9.433-.642-19.618-.569M224.779 641c-.811 0-8.303 6.84-16.65 15.199l-15.177 15.199 5.961 6.051c3.278 3.328 10.233 10.439 15.455 15.801 5.222 5.362 9.96 9.75 10.529 9.75.569 0 8.362-7.24 17.318-16.09l16.282-16.09-3.998-3.127c-2.2-1.72-9.455-8.43-16.123-14.91-6.668-6.481-12.787-11.783-13.597-11.783m121 15.208c-7.375-.278-7.746-.186-8.309 2.054-.323 1.29-.449 4.796-.279 7.791l.309 5.447 6 .5c3.3.275 7.03.332 8.29.126 2.184-.357 2.276-.726 2-8l-.29-7.626-7.721-.292m-8.729 77.015c-3.052.123-12.816.359-21.698.525-15.775.294-16.158.352-16.611 2.526-.256 1.224-.189 11.001.147 21.726l.612 19.5 20.5.283c11.275.156 21.512.035 22.75-.269 2.243-.55 2.25-.613 2.25-21.333 0-14.83-.344-21.125-1.2-21.981-.708-.708-3.476-1.108-6.75-.977"/>
  <path fill="#d98f21" fill-rule="evenodd" d="M384.563 516c-4.212 0-6.708.469-7.486 1.408-.724.872-1.056 4.197-.873 8.75l.296 7.342h16l-.361-8c-.199-4.4-.563-8.337-.809-8.75-.246-.413-3.291-.75-6.767-.75M335 545h-5v10h10v-10h-5m-88.335 3.78c-13.66-.154-25.022-.092-25.25.137-.228.229-.415 11.576-.415 25.214 0 23.494.102 24.853 1.934 25.834 1.209.646 10.498.952 24.75.813l22.816-.222-23.487-.528c-22.508-.506-23.501-.611-23.804-2.528-.235-1.488-.08-1.654.609-.649.745 1.088 5.573 1.282 24.803 1 19.429-.286 23.828-.104 23.604.973-.151.729.187 1.04.75.691.655-.404 1.025-9.475 1.025-25.105 0-18.678-.296-24.577-1.25-24.911-.687-.241-12.426-.564-26.085-.719m205.164-.565c-9.158-.27-9.708-.171-10.358 1.877-.378 1.189-.373 5.93.011 10.535l.698 8.373h19.89l-.285-10.25-.285-10.25-9.671-.285M309 555.03c-2.475.017-5.288.489-6.25 1.05-1.377.802-1.75 2.378-1.75 7.388 0 3.503.23 6.968.51 7.7.359.935 2.018 1.227 5.571.981 3.096-.215 5.264-.884 5.586-1.723.289-.754.595-4.534.679-8.399l.154-7.029-4.5.032m12.32 1.97H316v13h4.918c2.705 0 5.63.273 6.5.607 1.287.494 1.582-.171 1.582-3.559 0-2.523.394-3.922 1-3.548.55.34 1 .145 1-.433 0-.579-.981-2.18-2.18-3.559-1.817-2.09-3.068-2.508-7.5-2.508m-97.581 11.708c-.194-3.414-.352-.358-.35 6.792.001 7.15.161 9.944.353 6.208.193-3.735.192-9.585-.003-13m86.438 10.765c-2.735-.189-5.244-.073-5.575.258-.331.331-.602 2.462-.602 4.736 0 2.273.54 4.673 1.2 5.333.66.66 3.6 1.2 6.534 1.2h5.335l-.67-5.25c-.368-2.888-.8-5.404-.96-5.592-.159-.188-2.527-.496-5.262-.685M381 580h-5v5.617c0 5.336.112 5.586 2.25 5.013 1.238-.331 3.488-.609 5-.616 2.632-.013 2.75-.229 2.75-5.014v-5h-5m-18.761 1.197c-3.864-.222-5.408.08-5.813 1.136-.304.791-.411 3.402-.239 5.803l.313 4.364 5.167.299c4.275.248 5.254-.011 5.672-1.5.277-.989.427-3.599.333-5.799l-.172-4-5.261-.303m125.51-.024c-28.187.134-52.695.402-54.462.596-2.469.271-4.167 1.55-7.33 5.523-2.264 2.843-4.851 6.412-5.748 7.931-.897 1.519-3.123 3.253-4.946 3.855-2.085.688-10.448.978-22.539.781-10.573-.173-19.8.048-20.504.491-1.013.637-1.259 10.599-1.18 47.71.054 25.798-.177 47.352-.514 47.898-.337.546 1.206 2.966 3.43 5.379 2.224 2.413 4.044 4.624 4.044 4.913 0 .29 3.6 4.03 8 8.312 4.686 4.56 8.033 8.645 8.079 9.861.043 1.143.306 1.515.583.827.278-.687 1.07-1.25 1.761-1.25.69 0 2.627 1.462 4.302 3.25 1.676 1.788 9.623 9.706 17.661 17.598 8.038 7.891 14.614 14.775 14.614 15.298 0 .523-1.462 1.586-3.25 2.363-1.788.777-2.658 1.43-1.934 1.452.723.021 2.194-.431 3.267-1.006 1.457-.779 2.497-.662 4.104.463 1.183.829 11.74 11.014 23.458 22.633l21.306 21.125-.592 5.662-.592 5.662 11.698 11.731c6.434 6.451 13.511 13.166 15.726 14.921 2.216 1.755-2.77-3.576-11.081-11.846-13.643-13.577-15.11-15.371-15.11-18.48 0-1.894.579-4.235 1.286-5.202 1.16-1.587 3.021-.062 19 15.569 9.743 9.531 17.714 18.042 17.714 18.915 0 .872-1.013 2.08-2.25 2.683-2.062 1.006-1.999 1.054.75.578 2.61-.451 3.737.213 8.669 5.106 4.053 4.02 6.676 5.788 9.196 6.197 1.94.315 4.592.305 5.895-.022l2.368-.595-.044-83.498c-.034-64.784.232-83.773 1.186-84.727.973-.973 1.26-.614 1.376 1.72.08 1.623.417 38.725.75 82.45l.604 79.5 2.5-.332c1.375-.182 2.994-.857 3.597-1.5.603-.642 1.884-4.179 2.845-7.859.988-3.78 1.393-7.261.932-8-.448-.72-.875-2.884-.947-4.809-.072-1.925.76-5.525 1.848-8 1.883-4.279 2.015-4.377 2.702-2 .397 1.375 1.669 4.356 2.828 6.624 1.159 2.269 3.512 5.306 5.228 6.751 1.717 1.444 4.324 2.913 5.794 3.263 1.47.351 3.123.963 3.673 1.361.55.398 2.698.984 4.773 1.303 2.075.319 6.561.131 9.969-.418 3.408-.549 7.569-1.649 9.246-2.445 1.677-.796 4.555-3.747 6.396-6.559 2.325-3.552 3.705-7.241 4.523-12.098.888-5.273 1.44-6.656 2.249-5.635.589.744 1.417 4.053 1.839 7.353.422 3.3.708 7.575.634 9.5-.074 1.925-.246 5.262-.382 7.415-.136 2.154-.762 4.088-1.391 4.298-.629.211-.908 1.283-.621 2.383.33 1.262-.343 2.922-1.822 4.497-1.846 1.965-2.117 2.86-1.273 4.202.591.938 2.376 1.94 3.967 2.226 2.044.368 2.504.767 1.566 1.357-.73.459-17.288.798-36.795.752-23.012-.054-35.254.262-34.859.9.393.636 42.803.976 120.001.962l119.393-.022 4.683-4.053c2.576-2.23 5.328-4.698 6.115-5.485.788-.788 2.386-1.432 3.552-1.432 2.057 0 2.063-.041.214-1.393-1.806-1.321-1.592-1.729 4.103-7.818 3.305-3.533 8.014-8.187 10.465-10.343 2.45-2.157 8.255-7.468 12.899-11.804 7.3-6.815 8.545-7.631 9.18-6.013.405 1.029.767 2.906.806 4.171.041 1.342-1.387 3.799-3.43 5.903-1.925 1.982-3.5 4.172-3.5 4.867 0 .695-.338 1.413-.75 1.597-.413.183-4.567 4.383-9.232 9.333-5.724 6.074-6.573 7.212-2.61 3.5 3.228-3.025 9.209-8.875 13.289-13l7.419-7.5-.308-5.694-.308-5.694 22.399-22.556c12.319-12.406 23.119-22.563 24-22.571 1.399-.014 1.412-.138.101-.987-1.202-.778 1.681-4.062 14.5-16.518 8.8-8.55 17.475-16.719 19.277-18.153 1.803-1.433 3.55-2.333 3.883-2 .333.333.659 2.279.723 4.324.1 3.183-.244 3.807-2.383 4.329-1.655.404-3.345 2.202-5 5.318-1.375 2.59-4.783 7.069-7.574 9.955-2.791 2.886-7.495 7.423-10.453 10.082-4.627 4.159-5.803 4.753-8.425 4.251-2.199-.421-2.63-.309-1.548.4.825.541 2.175.986 3 .989.825.003 3.525-1.599 6-3.56 2.475-1.962 7.798-6.707 11.829-10.547 4.032-3.839 9.372-9.28 11.869-12.09 4.432-4.991 4.524-5.231 3.931-10.278l-.607-5.168 11.012-10.776c6.057-5.926 11.434-11.563 11.95-12.525.515-.962.668-3.399.341-5.415-.327-2.015-.985-3.906-1.462-4.201-.478-.295-.412-1.389.146-2.431.65-1.215.92-16.19.753-41.69L945.5 606.5l-85.291.008c-70.115.006-85.438.245-86.118 1.344-.454.736-.683 17.975-.509 38.309.182 21.105-.079 38.016-.607 39.405L772.05 688H658.584c-89.675 0-113.636-.262-114.275-1.25-.445-.687-.941-24.307-1.102-52.488-.283-49.699-.351-51.269-2.251-52.286-1.311-.701-18.919-.967-53.207-.803M349 611.678c-3.025-.326-6.512-.177-7.75.332-2.028.834-2.25 1.61-2.25 7.851 0 5.392.35 7.059 1.582 7.532.87.334 4.155.607 7.3.607 3.145 0 6.258-.54 6.918-1.2.66-.66 1.193-3.698 1.185-6.75-.009-3.052-.346-6.052-.75-6.665-.404-.613-3.21-1.381-6.235-1.707M815.5 621c-2.96 0-5.66.45-6 1-.388.628 1.843 1 6 1s6.388-.372 6-1c-.34-.55-3.04-1-6-1m91.75.098c-4.007.058-7.766.701-9.25 1.58-2.455 1.456-2.436 1.468 1 .687 1.925-.438 6.087-.783 9.25-.768 3.163.016 5.75-.337 5.75-.784s-3.038-.769-6.75-.715m-595.083 3.13c-10.267.074-21.367.39-24.667.703l-6 .569-.269 22.896c-.227 19.265-.025 23.27 1.273 25.25l1.542 2.354h23.406c19.009 0 23.675-.27 24.841-1.436 1.195-1.195 1.355-5.351.95-24.75-.267-12.823-.919-23.855-1.448-24.517-.694-.868-6.147-1.165-19.628-1.069M224.758 641c-.794 0-8.039 6.599-16.1 14.664-8.062 8.066-14.648 14.928-14.636 15.25.012.323.909 1.711 1.993 3.086 1.329 1.687 2.217 2.129 2.728 1.361.554-.834 1.085-.787 1.978.176.961 1.036.961 1.414 0 1.777-.693.261 3.971 5.714 10.779 12.603 7.723 7.815 12.628 12.043 13.764 11.863.969-.154 8.507-7 16.75-15.213 8.242-8.213 14.986-15.473 14.986-16.135 0-.661-1.238-2.012-2.75-3.002-1.512-.991-8.442-7.342-15.399-14.115-6.958-6.773-13.299-12.315-14.093-12.315m103.965 12.427c-.418-1.639-.508-1.666-.607-.177-.064.962-.566 1.75-1.116 1.75-.55 0-1 .584-1 1.297s-1.687 2.88-3.75 4.815c-2.062 1.934-5.009 4.051-6.547 4.703-1.538.652-5.056 1.185-7.816 1.185s-6.001-.503-7.203-1.118c-1.201-.615-3.871-2.732-5.934-4.703-2.062-1.972-3.75-4.206-3.75-4.965 0-.759-.55-1.197-1.222-.973-.673.224-1.46 1.376-1.75 2.561-.291 1.184-1.29 3.039-2.222 4.122-.945 1.097-1.83 4.095-2 6.772l-.306 4.804 22.306.197c12.269.108 22.922-.039 23.674-.328.789-.302 1.249-1.634 1.087-3.149-.154-1.443-.71-2.768-1.236-2.943-.527-.176-.768-2.918-.536-6.121.231-3.191.199-6.669-.072-7.729m107.657.62c-.484.026-2.455 2.285-4.38 5.02-2.53 3.594-5.138 5.799-9.41 7.953-4.505 2.272-7.271 2.98-11.635 2.98-3.149 0-8.066-.756-10.927-1.68-2.861-.924-6.412-2.836-7.892-4.25-1.479-1.413-3.697-3.876-4.927-5.473-1.23-1.596-2.531-2.608-2.89-2.249s-.108 3.24.558 6.402c.666 3.163 1.31 6.65 1.433 7.75.122 1.1 1.301 4.124 2.619 6.721 1.482 2.92 3.383 5.083 4.984 5.671 2.097.77 1.213.989-4.663 1.154-3.988.112-7.7.316-8.25.454-.55.138-2.575.306-4.5.375-2.389.085-3.5.601-3.5 1.625 0 1.322 10.065 1.5 84.583 1.5 67.221 0 84.499-.257 84.171-1.25-.279-.845-3.951-1.452-11.334-1.873-6.006-.342-11.794-.68-12.861-.75-1.727-.113-1.768-.265-.37-1.377.864-.687 1.85-2.453 2.191-3.923.341-1.47 1.659-3.945 2.93-5.5 1.271-1.555 2.846-4.679 3.5-6.943.655-2.264 1.19-5.076 1.19-6.25 0-1.174-.337-2.126-.75-2.117-.413.009-2.55 1.852-4.75 4.095-2.2 2.242-5.8 5.044-8 6.225-3.192 1.715-5.637 2.136-12.108 2.084-7.053-.056-8.744-.437-13-2.929-2.691-1.576-5.714-3.909-6.719-5.184-1.005-1.275-2.395-2.887-3.089-3.581-.694-.695-1.559-1.93-1.922-2.745-.362-.815-.498 2.064-.302 6.399.272 6.009.746 8.099 1.998 8.8.903.505 1.642 1.79 1.642 2.856 0 1.153 1.525 2.9 3.765 4.314 2.07 1.308 4.375 3.113 5.122 4.013 1.244 1.499.283 1.646-11.515 1.754-7.079.065-22.547.023-34.372-.094-11.825-.116-21.633-.34-21.796-.497-.163-.157 1.749-1.577 4.248-3.156 2.5-1.579 4.545-3.257 4.546-3.728.001-.471 1.417-3.822 3.147-7.447 1.73-3.624 3.363-8.526 3.63-10.893.267-2.367.089-4.282-.395-4.256m-90.601 2.161c-7.375-.278-7.746-.186-8.309 2.054-.323 1.29-.449 4.796-.279 7.791l.309 5.447h16v-15l-7.721-.292m536.752.792c-.292 0-.531 1.575-.531 3.5s.408 3.5.906 3.5c.499 0 .671.9.384 2-.293 1.118-.031 2 .593 2 .615 0 1.117.719 1.117 1.599 0 .879 1.462 2.967 3.25 4.641 1.788 1.673 5.05 4.21 7.25 5.638 3.712 2.408 4.827 2.596 15.48 2.609 10.692.012 11.506-.124 11.862-1.987.21-1.1 1.577-3.8 3.038-6 1.462-2.2 3.239-6.86 3.95-10.356.711-3.495 1.04-6.608.731-6.916-.309-.309-.561-.04-.561.597s-1.462 2.558-3.25 4.27c-1.788 1.711-5.05 4.04-7.25 5.174-3.006 1.55-5.987 2.081-12 2.138-6.827.063-8.747-.318-13.09-2.602-2.8-1.472-6.498-4.28-8.219-6.241-1.722-1.96-3.369-3.564-3.66-3.564m-43.919 2.035c-.061.019-2.137 1.744-4.612 3.832-2.475 2.089-6.422 4.548-8.77 5.465-2.349.918-6.721 1.668-9.715 1.668-2.995 0-7.598-.724-10.23-1.608-2.632-.885-6.722-3.185-9.09-5.112-2.367-1.927-4.55-3.259-4.849-2.959-.3.3-.088 2.038.47 3.862.559 1.824 1.28 4.904 1.603 6.843.323 1.94 1.926 5.15 3.562 7.135 2.046 2.481 4.152 3.835 6.747 4.336 3.209.62 3.465.846 1.714 1.513-1.133.431-7.433 1.035-14 1.341-6.568.306-12.955.578-14.192.603-1.237.025-2.25.496-2.25 1.046 0 .659 28.647 1 83.941 1 58.373 0 84.142-.325 84.6-1.067.363-.586.349-1.374-.03-1.75-.379-.375-26.186-.559-57.35-.406-31.164.152-59.136-.13-62.161-.626-3.025-.496-4.297-.958-2.827-1.026 1.471-.069 4.027-1.263 5.68-2.655 1.654-1.391 4.599-4.122 6.544-6.067 1.946-1.946 3.805-4.97 4.133-6.72.327-1.751.73-4.42.895-5.933.165-1.513.249-2.734.187-2.715m-64.179 31c-.586-.588-1.374-.761-1.75-.385-.375.376-.683 38.135-.683 83.91 0 74.969.157 83.286 1.582 83.833.87.334 2.043.607 2.607.607.592 0 .712-.739.283-1.75-.409-.962-.794-38.514-.857-83.448-.079-56.39-.445-82.029-1.182-82.767M393.999 729.86l-.794-3.36-.103 3.259c-.082 2.627.991 4.467 5.541 9.5 3.103 3.432 7.041 7.624 8.75 9.313 1.709 1.69 5.132 4.814 7.607 6.941 2.823 2.427 1.701.909-3.009-4.072-4.129-4.368-9.689-10.254-12.353-13.081-2.717-2.882-5.194-6.615-5.639-8.5m165.76 2.15c-.23-.82-.684.139-1.007 2.131-.323 1.991-.214 6.633.242 10.314.457 3.682 1.458 7.448 2.225 8.369.767.922 1.941 2.957 2.61 4.522.668 1.565 2.356 4.342 3.751 6.17 2.339 3.067 3.091 3.375 9.728 3.978 5.135.467 8.88.208 13.095-.905 3.246-.858 6.988-2.27 8.314-3.139 1.327-.87 4.218-3.442 6.426-5.717 2.208-2.275 4.689-5.441 5.514-7.037.825-1.595 2.116-4.945 2.868-7.444.752-2.499 1.111-5.82.799-7.381-.312-1.561-.92-2.621-1.35-2.355-.431.266-2.144 2.895-3.807 5.843-1.965 3.482-4.676 6.452-7.739 8.481-2.594 1.718-6.274 3.416-8.178 3.773-1.905.357-6.157.368-9.45.024-3.292-.344-7.857-1.453-10.143-2.465-2.286-1.011-5.59-3.47-7.341-5.465-1.751-1.994-3.848-5.107-4.66-6.916-.812-1.81-1.666-3.962-1.897-4.781m-222.709 1.213c-3.052.122-12.628.359-21.278.525-13.703.264-15.84.525-16.595 2.027-.476.949-.657 10.111-.402 20.359.255 10.249.805 19.186 1.221 19.86.564.913 6.185 1.184 22.056 1.066 11.714-.087 21.67-.388 22.123-.668.454-.281.825-9.618.825-20.751 0-14.41-.346-20.587-1.2-21.441-.708-.708-3.477-1.109-6.75-.977m369.7 4.802-1.75-2.432.011 3.954c.006 2.174.666 6.113 1.467 8.752.801 2.64 2.321 6.015 3.379 7.5 1.058 1.486 1.891 3.151 1.851 3.701-.04.55 1.697 2.233 3.86 3.739 2.395 1.669 6.081 3.05 9.432 3.534 3.025.438 7.975.392 11-.102 3.025-.494 6.429-1.747 7.564-2.785 1.136-1.037 2.566-1.886 3.178-1.886.612 0 2.431-1.6 4.044-3.556 1.612-1.956 3.472-5.444 4.134-7.75.662-2.307 1.551-5.339 1.977-6.738.426-1.399.478-3.386.118-4.414-.57-1.625-1.088-1.334-3.933 2.206-1.802 2.242-5.883 5.466-9.069 7.164-4.694 2.502-6.977 3.088-12.037 3.088-3.434 0-8.02-.532-10.191-1.182-2.255-.676-5.947-3.149-8.616-5.772-2.568-2.524-5.457-5.684-6.419-7.021M340.726 746c-.876 0-1.317 3.209-1.546 11.25-.28 9.814-.59 11.539-2.434 13.511-2.033 2.173-2.58 2.238-14.18 1.698-6.636-.309-13.75-.521-15.808-.47-3.269.08-3.738-.198-3.708-2.199.018-1.259-.383-4.09-.893-6.29-.832-3.59-.939-3.152-1.042 4.27l-.115 8.271 20.75-.271 20.75-.27-.182-3c-.101-1.65-.224-8.288-.275-14.75-.066-8.56-.424-11.75-1.317-11.75m364.069 71c-.201-1.692-.559-2.096-1.105-1.25-.445.688-.505 1.25-.134 1.25s-.115 1.205-1.08 2.677c-1.19 1.816-1.728 4.517-1.673 8.393.044 3.144.764 7.351 1.598 9.348.835 1.997 1.264 4.292.954 5.1-.31.808.4 3.318 1.578 5.578 1.662 3.188 1.882 4.422.982 5.507-.638.768-2.567 1.443-4.287 1.499l-3.128.103 3.5.855c1.925.471 13.4.973 25.5 1.116 12.1.144 25.487.107 29.75-.081 4.263-.189 7.75-.737 7.75-1.219 0-.482-.697-.876-1.548-.876-.851 0-2.599-1.221-3.883-2.714-2.147-2.497-2.214-2.898-.835-5.002.86-1.313 1.239-3.245.889-4.536-.335-1.236-.086-5.726.554-9.977.888-5.902.885-8.339-.011-10.307-.646-1.417-1.588-2.321-2.093-2.009-.506.312-1.233 1.996-1.616 3.742-.417 1.898-2.76 5.21-5.827 8.238-4.388 4.332-6.143 5.319-12.13 6.823-3.85.968-8.633 1.755-10.628 1.75-1.995-.004-5.37-.724-7.5-1.599s-5.364-3.012-7.188-4.75c-1.823-1.737-3.908-4.509-4.632-6.159-.725-1.65-1.799-4.35-2.388-6-.589-1.65-1.205-4.125-1.369-5.5"/>
  <path fill="#af5c12" fill-rule="evenodd" d="M335 543.303c-4.125-.108-7.05.004-6.5.248.562.25.853 3.055.663 6.406-.314 5.558-.178 5.997 2 6.487 1.285.288 4.251.718 6.589.955 3.743.378 4.32.162 4.813-1.801.308-1.227.419-4.451.247-7.164l-.312-4.934-7.5-.197m6.5.961c-.55.058-3.363.271-6.25.473l-5.25.368V555h10v-4.917c0-2.997.488-5.113 1.25-5.421.688-.277.8-.456.25-.398M327.627 546c-.345 0-.627 1.814-.627 4.031 0 2.427-.528 4.234-1.326 4.541-.73.28-3.767.603-6.75.718l-5.424.21-.117 6.682c-.064 3.675-.387 7.387-.718 8.25-.424 1.105-1.941 1.568-5.134 1.568-2.492 0-4.531.372-4.531.827 0 .454 2.953.871 6.561.926 5.575.084 6.383-.115 5.378-1.327-.651-.784-.874-1.426-.496-1.426.379 0 1.572.473 2.651 1.05 1.079.578 1.655 1.547 1.279 2.155-.458.741-.22.812.722.217.773-.487 3.628-1.119 6.345-1.404l4.941-.518.214-4.25c.119-2.337-.192-4.501-.69-4.809-.498-.307-.905 1.316-.905 3.607 0 3.388-.295 4.053-1.582 3.559-.87-.334-3.795-.607-6.5-.607H316v-13h5.443c4.509 0 5.716.386 7.028 2.25 1.069 1.516 1.821 1.875 2.307 1.101.397-.632 1.847-1.381 3.222-1.664 2.009-.414 1.887-.488-.625-.375-1.719.077-3.79-.412-4.603-1.086-1.079-.896-1.348-2.578-.998-6.227.264-2.749.198-4.999-.147-4.999m-103.888 22.708c-.194-3.414-.352-.358-.35 6.792.001 7.15.161 9.944.353 6.208.193-3.735.192-9.585-.003-13m88.011 7.402c-3.988.102-7.812.381-8.5.621-.859.299-1.25 2.928-1.25 8.404v7.968l8.5-.188 8.5-.187v-16.804l-7.25.186m68.559.905c-.655-.008-1.495.477-1.867 1.079-.372.602-1.749.889-3.059.639-2.302-.44-2.383-.246-2.383 5.706 0 3.458.526 6.687 1.2 7.361.693.693 3.969 1.194 7.75 1.185 4.045-.01 6.031-.344 5.193-.875-.946-.6-1.021-1.067-.25-1.544.609-.376 1.107-3.102 1.107-6.058 0-4.415-.341-5.482-1.915-5.981-1.053-.334-3.191-.328-4.75.013-2.17.476-2.483.372-1.335-.444.924-.656 1.043-1.071.309-1.081m-70.132 2.458c-2.735-.189-5.244-.073-5.575.258-.331.331-.602 2.462-.602 4.736 0 2.273.54 4.673 1.2 5.333.66.66 3.6 1.2 6.534 1.2h5.335l-.67-5.25c-.368-2.888-.8-5.404-.96-5.592-.159-.188-2.527-.496-5.262-.685m52.059-.267c-5.508-.223-7.395.044-7.802 1.105-.295.77-.401 4.277-.235 7.794l.301 6.395h15v-15l-7.264-.294M381 580h-5v5.617c0 5.336.112 5.586 2.25 5.013 1.238-.331 3.488-.609 5-.616 2.632-.013 2.75-.229 2.75-5.014v-5h-5m-18.761 1.197c-3.864-.222-5.408.08-5.813 1.136-.304.791-.411 3.402-.239 5.803l.313 4.364 5.167.299c4.275.248 5.254-.011 5.672-1.5.277-.989.427-3.599.333-5.799l-.172-4-5.261-.303m-138.421 15.654c-.689-1.005-.844-.839-.608.649.307 1.936 1.09 2 24.554 2 15.657 0 24.148-.354 23.986-1-.161-.644-8.582-.875-23.629-.649-18.811.282-23.559.087-24.303-1m104.905 56.576c-.418-1.639-.508-1.666-.607-.177-.064.962-.566 1.75-1.116 1.75-.55 0-1 .584-1 1.297s-1.687 2.88-3.75 4.815c-2.062 1.934-5.009 4.051-6.547 4.703-1.538.652-5.056 1.185-7.816 1.185s-6.001-.503-7.203-1.118c-1.201-.615-3.871-2.732-5.934-4.703-2.062-1.972-3.75-4.206-3.75-4.965 0-.759-.55-1.197-1.222-.973-.673.224-1.46 1.376-1.75 2.561-.291 1.184-1.29 3.039-2.222 4.122-.945 1.097-1.83 4.095-2 6.772l-.306 4.804 22.306.197c12.269.108 22.922-.039 23.674-.328.789-.302 1.249-1.634 1.087-3.149-.154-1.443-.71-2.768-1.236-2.943-.527-.176-.768-2.918-.536-6.121.231-3.191.199-6.669-.072-7.729m107.657.62c-.484.026-2.455 2.285-4.38 5.02-2.53 3.594-5.138 5.799-9.41 7.953-4.505 2.272-7.271 2.98-11.635 2.98-3.149 0-8.066-.756-10.927-1.68-2.861-.924-6.412-2.836-7.892-4.25-1.479-1.413-3.697-3.876-4.927-5.473-1.23-1.596-2.531-2.608-2.89-2.249s-.108 3.24.558 6.402c.666 3.163 1.31 6.65 1.433 7.75.122 1.1 1.301 4.124 2.619 6.721 1.482 2.92 3.383 5.083 4.984 5.671 2.097.77 1.213.989-4.663 1.154-3.988.112-7.7.316-8.25.454-.55.138-2.575.306-4.5.375-2.389.085-3.5.601-3.5 1.625 0 1.322 10.065 1.5 84.583 1.5 67.221 0 84.499-.257 84.171-1.25-.279-.845-3.951-1.452-11.334-1.873-6.006-.342-11.794-.68-12.861-.75-1.727-.113-1.768-.265-.37-1.377.864-.687 1.85-2.453 2.191-3.923.341-1.47 1.659-3.945 2.93-5.5 1.271-1.555 2.846-4.679 3.5-6.943.655-2.264 1.19-5.076 1.19-6.25 0-1.174-.337-2.126-.75-2.117-.413.009-2.55 1.852-4.75 4.095-2.2 2.242-5.8 5.044-8 6.225-3.192 1.715-5.637 2.136-12.108 2.084-7.053-.056-8.744-.437-13-2.929-2.691-1.576-5.714-3.909-6.719-5.184-1.005-1.275-2.395-2.887-3.089-3.581-.694-.695-1.559-1.93-1.922-2.745-.362-.815-.498 2.064-.302 6.399.272 6.009.746 8.099 1.998 8.8.903.505 1.642 1.79 1.642 2.856 0 1.153 1.525 2.9 3.765 4.314 2.07 1.308 4.375 3.113 5.122 4.013 1.244 1.499.283 1.646-11.515 1.754-7.079.065-22.547.023-34.372-.094-11.825-.116-21.633-.34-21.796-.497-.163-.157 1.749-1.577 4.248-3.156 2.5-1.579 4.545-3.257 4.546-3.728.001-.471 1.417-3.822 3.147-7.447 1.73-3.624 3.363-8.526 3.63-10.893.267-2.367.089-4.282-.395-4.256M882.531 657c-.292 0-.531 1.575-.531 3.5s.408 3.5.906 3.5c.499 0 .671.9.384 2-.293 1.118-.031 2 .593 2 .615 0 1.117.719 1.117 1.599 0 .879 1.462 2.967 3.25 4.641 1.788 1.673 5.05 4.21 7.25 5.638 3.712 2.408 4.827 2.596 15.48 2.609 10.692.012 11.506-.124 11.862-1.987.21-1.1 1.577-3.8 3.038-6 1.462-2.2 3.239-6.86 3.95-10.356.711-3.495 1.04-6.608.731-6.916-.309-.309-.561-.04-.561.597s-1.462 2.558-3.25 4.27c-1.788 1.711-5.05 4.04-7.25 5.174-3.006 1.55-5.987 2.081-12 2.138-6.827.063-8.747-.318-13.09-2.602-2.8-1.472-6.498-4.28-8.219-6.241-1.722-1.96-3.369-3.564-3.66-3.564m-43.919 2.035c-.061.019-2.137 1.744-4.612 3.832-2.475 2.089-6.422 4.548-8.77 5.465-2.349.918-6.721 1.668-9.715 1.668-2.995 0-7.598-.724-10.23-1.608-2.632-.885-6.722-3.185-9.09-5.112-2.367-1.927-4.55-3.259-4.849-2.959-.3.3-.088 2.038.47 3.862.559 1.824 1.28 4.904 1.603 6.843.323 1.94 1.926 5.15 3.562 7.135 2.046 2.481 4.152 3.835 6.747 4.336 3.209.62 3.465.846 1.714 1.513-1.133.431-7.433 1.035-14 1.341-6.568.306-12.955.578-14.192.603-1.237.025-2.25.496-2.25 1.046 0 .659 28.647 1 83.941 1 58.373 0 84.142-.325 84.6-1.067.363-.586.349-1.374-.03-1.75-.379-.375-26.186-.559-57.35-.406-31.164.152-59.136-.13-62.161-.626-3.025-.496-4.297-.958-2.827-1.026 1.471-.069 4.027-1.263 5.68-2.655 1.654-1.391 4.599-4.122 6.544-6.067 1.946-1.946 3.805-4.97 4.133-6.72.327-1.751.73-4.42.895-5.933.165-1.513.249-2.734.187-2.715M544.85 689.517c-.357-.358-1.02-.058-1.472.666-.452.725-.807 38.594-.79 84.155l.032 82.837 36.664-.013c20.166-.007 37.239-.374 37.94-.816.864-.544.342-.972-1.617-1.325-1.591-.286-3.376-1.288-3.967-2.226-.844-1.342-.573-2.237 1.273-4.202 1.479-1.575 2.152-3.235 1.822-4.497-.287-1.1-.008-2.172.621-2.383.629-.21 1.255-2.144 1.391-4.298.136-2.153.308-5.49.382-7.415.074-1.925-.212-6.2-.634-9.5-.422-3.3-1.25-6.609-1.839-7.353-.809-1.021-1.361.362-2.249 5.635-.818 4.857-2.198 8.546-4.523 12.098-1.841 2.812-4.719 5.763-6.396 6.559-1.677.796-5.838 1.896-9.246 2.445-3.408.549-7.894.737-9.969.418-2.075-.319-4.223-.905-4.773-1.303-.55-.398-2.203-1.01-3.673-1.361-1.47-.35-4.077-1.819-5.794-3.263-1.716-1.445-4.069-4.482-5.228-6.751-1.159-2.268-2.431-5.249-2.828-6.624-.687-2.377-.819-2.279-2.702 2-1.088 2.475-1.92 6.075-1.848 8 .072 1.925.499 4.089.947 4.809.461.739.056 4.22-.932 8-.961 3.68-2.242 7.217-2.845 7.859-.603.643-2.222 1.318-3.597 1.5l-2.5.332-.5-81.667c-.275-44.917-.793-81.959-1.15-82.316m229.583.518c-.586-.588-1.374-.761-1.75-.385-.375.376-.683 38.135-.683 83.91 0 74.969.157 83.286 1.582 83.833.87.334 2.043.607 2.607.607.592 0 .712-.739.283-1.75-.409-.962-.794-38.514-.857-83.448-.079-56.39-.445-82.029-1.182-82.767M368.751 697c-.646 0 .904 2.138 3.445 4.75 2.542 2.612 4.835 5.65 5.097 6.75.387 1.629.492 1.536.566-.5.059-1.626-1.312-3.986-3.92-6.75-2.206-2.337-4.541-4.25-5.188-4.25m27.695 27c-.677 0-1.505.712-1.839 1.582-.334.87-.607 2.683-.607 4.03 0 1.711 3.061 5.782 10.164 13.518 5.59 6.088 12.806 13.269 16.037 15.957 5.673 4.722 5.98 4.845 9.018 3.605 1.73-.705 3.305-1.764 3.501-2.352.196-.588-6.237-7.543-14.296-15.455s-16.023-15.847-17.699-17.635c-1.675-1.788-3.601-3.25-4.279-3.25m524.446 1c-.559 0-5.601 4.424-11.205 9.83-5.603 5.407-13.491 12.94-17.53 16.739-4.038 3.8-7.756 7.681-8.261 8.626-.765 1.428-.25 1.918 3.055 2.908 3.67 1.1 4.226.997 7.262-1.346 1.808-1.396 6.643-5.915 10.745-10.044 4.102-4.128 8.61-9.685 10.018-12.349 1.499-2.835 3.383-4.992 4.542-5.201 1.09-.196 2.376-.73 2.857-1.185.482-.456.574-2.437.205-4.403-.369-1.966-1.128-3.575-1.688-3.575m-361.133 7.01c-.23-.82-.684.139-1.007 2.131-.323 1.991-.214 6.633.242 10.314.457 3.682 1.458 7.448 2.225 8.369.767.922 1.941 2.957 2.61 4.522.668 1.565 2.356 4.342 3.751 6.17 2.339 3.067 3.091 3.375 9.728 3.978 5.135.467 8.88.208 13.095-.905 3.246-.858 6.988-2.27 8.314-3.139 1.327-.87 4.218-3.442 6.426-5.717 2.208-2.275 4.689-5.441 5.514-7.037.825-1.595 2.116-4.945 2.868-7.444.752-2.499 1.111-5.82.799-7.381-.312-1.561-.92-2.621-1.35-2.355-.431.266-2.144 2.895-3.807 5.843-1.965 3.482-4.676 6.452-7.739 8.481-2.594 1.718-6.274 3.416-8.178 3.773-1.905.357-6.157.368-9.45.024-3.292-.344-7.857-1.453-10.143-2.465-2.286-1.011-5.59-3.47-7.341-5.465-1.751-1.994-3.848-5.107-4.66-6.916-.812-1.81-1.666-3.962-1.897-4.781m146.991 6.015-1.75-2.432.011 3.954c.006 2.174.666 6.113 1.467 8.752.801 2.64 2.321 6.015 3.379 7.5 1.058 1.486 1.891 3.151 1.851 3.701-.04.55 1.697 2.233 3.86 3.739 2.395 1.669 6.081 3.05 9.432 3.534 3.025.438 7.975.392 11-.102 3.025-.494 6.429-1.747 7.564-2.785 1.136-1.037 2.566-1.886 3.178-1.886.612 0 2.431-1.6 4.044-3.556 1.612-1.956 3.472-5.444 4.134-7.75.662-2.307 1.551-5.339 1.977-6.738.426-1.399.478-3.386.118-4.414-.57-1.625-1.088-1.334-3.933 2.206-1.802 2.242-5.883 5.466-9.069 7.164-4.694 2.502-6.977 3.088-12.037 3.088-3.434 0-8.02-.532-10.191-1.182-2.255-.676-5.947-3.149-8.616-5.772-2.568-2.524-5.457-5.684-6.419-7.021M340.726 746c-.876 0-1.317 3.209-1.546 11.25-.28 9.814-.59 11.539-2.434 13.511-2.033 2.173-2.58 2.238-14.18 1.698-6.636-.309-13.75-.521-15.808-.47-3.269.08-3.738-.198-3.708-2.199.018-1.259-.383-4.09-.893-6.29-.832-3.59-.939-3.152-1.042 4.27l-.115 8.271 20.75-.271 20.75-.27-.182-3c-.101-1.65-.224-8.288-.275-14.75-.066-8.56-.424-11.75-1.317-11.75m147.601 67.574c-5.803-5.388-6.237-5.611-7.25-3.718-.592 1.107-1.077 3.453-1.077 5.213 0 2.794 1.896 5.087 14.938 18.066 8.216 8.176 15.62 14.865 16.453 14.865.833 0 2.661-.522 4.062-1.161 1.401-.638 2.547-1.79 2.547-2.56s-5.288-6.704-11.75-13.187-14.528-14.366-17.923-17.518m347.797-2.945c-.635-1.618-1.88-.802-9.18 6.013-4.644 4.336-10.449 9.647-12.899 11.804-2.451 2.156-7.16 6.81-10.465 10.343-5.695 6.089-5.909 6.497-4.103 7.818 1.048.766 3.427 1.393 5.287 1.393 2.959 0 4.746-1.349 14.309-10.807 6.01-5.943 10.927-11.274 10.927-11.846 0-.572 1.575-2.662 3.5-4.644 2.043-2.104 3.471-4.561 3.43-5.903-.039-1.265-.401-3.142-.806-4.171M704.795 817c-.201-1.692-.559-2.096-1.105-1.25-.445.688-.505 1.25-.134 1.25s-.115 1.205-1.08 2.677c-1.19 1.816-1.728 4.517-1.673 8.393.044 3.144.764 7.351 1.598 9.348.835 1.997 1.264 4.292.954 5.1-.31.808.4 3.318 1.578 5.578 1.662 3.188 1.882 4.422.982 5.507-.638.768-2.567 1.443-4.287 1.499l-3.128.103 3.5.855c1.925.471 13.4.973 25.5 1.116 12.1.144 25.487.107 29.75-.081 4.263-.189 7.75-.737 7.75-1.219 0-.482-.697-.876-1.548-.876-.851 0-2.599-1.221-3.883-2.714-2.147-2.497-2.214-2.898-.835-5.002.86-1.313 1.239-3.245.889-4.536-.335-1.236-.086-5.726.554-9.977.888-5.902.885-8.339-.011-10.307-.646-1.417-1.588-2.321-2.093-2.009-.506.312-1.233 1.996-1.616 3.742-.417 1.898-2.76 5.21-5.827 8.238-4.388 4.332-6.143 5.319-12.13 6.823-3.85.968-8.633 1.755-10.628 1.75-1.995-.004-5.37-.724-7.5-1.599s-5.364-3.012-7.188-4.75c-1.823-1.737-3.908-4.509-4.632-6.159-.725-1.65-1.799-4.35-2.388-6-.589-1.65-1.205-4.125-1.369-5.5"/>
  <path fill="#8e9aab" fill-rule="evenodd" d="M412.058 160c-11.948 0-22.025.3-22.391.667-.367.366-.667 10.626-.667 22.8 0 15.881.339 22.472 1.2 23.333.854.854 7.026 1.2 21.418 1.2 11.12 0 20.924-.271 21.786-.601 1.354-.52 1.565-3.457 1.551-21.695-.008-11.602-.275-22.131-.593-23.399l-.579-2.305h-21.725m-.6 1.5c-11.345 0-20.814.188-21.042.417-.229.229-.416 9.961-.416 21.627 0 15.815.318 21.443 1.25 22.124.688.502 10.25.895 21.25.872l20-.04.283-20.5c.156-11.275.062-21.4-.208-22.5-.471-1.919-1.322-2-21.117-2m247.336 25.276-126.702-.276-6.406 6.22c-6.185 6.007-6.522 6.187-9.789 5.25-1.861-.533-4.16-.97-5.108-.97-.949 0-5.227 3.023-9.507 6.717-4.28 3.695-10.638 9.433-14.128 12.75-3.49 3.318-7.225 7.258-8.299 8.756-1.843 2.57-1.865 2.98-.397 7.304 1.022 3.012 1.242 5.161.641 6.277-.503.933-4.443 4.996-8.757 9.029-4.313 4.033-14.213 13.661-22 21.395l-14.158 14.063-4.112-1.646c-2.262-.905-4.523-1.645-5.024-1.645-.501 0-5.105 3.533-10.23 7.851s-12.58 11.294-16.568 15.503c-3.988 4.209-7.25 8.348-7.25 9.199 0 .85.691 2.883 1.537 4.518 1.526 2.951 1.502 3.007-3.451 8.244-2.743 2.9-8.15 7.953-12.017 11.229l-7.03 5.956-.02 52.691c-.015 41.072.257 52.869 1.231 53.5.688.445 10.965.809 22.839.809 16.278 0 21.978.321 23.168 1.304.868.718 3.523 4.318 5.898 8 2.376 3.683 5 7.244 5.832 7.914 1.148.925 15.068 1.226 57.704 1.25 34.199.02 56.419-.337 56.774-.912.321-.519.574-25.044.562-54.5L544.005 359l49.248-.18c27.086-.099 61.847-.117 77.247-.04 15.4.078 44.76.159 65.245.18l37.244.04-.237 38.75-.238 38.75H945.5l.24-46.5c.133-25.575-.092-46.951-.5-47.502-.407-.551-4.565-4.227-9.24-8.168-4.675-3.941-9.976-8.701-11.78-10.576-3.176-3.303-3.231-3.503-1.756-6.332.838-1.607 1.523-3.597 1.523-4.422 0-.825-5.504-7.125-12.23-14-6.727-6.875-13.966-13.962-16.088-15.75-2.17-1.828-4.986-3.25-6.435-3.25-1.417 0-3.365.714-4.329 1.586-1.608 1.456-1.986 1.412-4.579-.532-1.554-1.165-12.26-11.528-23.789-23.027l-20.964-20.909 1.714-3.593c.942-1.976 1.713-4.264 1.713-5.085 0-.82-6.734-8.218-14.965-16.438-8.738-8.727-16.064-15.222-17.606-15.609-1.643-.412-3.944-.041-6.091.983l-3.452 1.646-5.695-5.985-5.695-5.985-126.702-.276m-3.01 1.97-123.715-.246-14.49 14.961c-7.97 8.228-14.772 14.68-15.115 14.337-.343-.343 1.021-2.351 3.031-4.461 2.01-2.11 4.109-4.667 4.665-5.682.842-1.535.704-1.757-.824-1.323-1.01.287-3.687.809-5.95 1.16-2.262.351-5.404 1.621-6.981 2.823-1.578 1.202-5.957 5.11-9.732 8.685-3.774 3.575-7.254 7.227-7.732 8.116-.525.978-.401 2.855.315 4.75.847 2.245 1.827 3.134 3.453 3.134 2.19 0 2.209.074.531 2.062-.957 1.134-12.463 12.46-25.568 25.169l-23.828 23.108-2.826-1.67c-1.555-.918-3.882-1.655-5.172-1.639-2.075.027-2.144.149-.596 1.05.962.561 1.75 1.66 1.75 2.444s-1.306 2.1-2.903 2.926c-1.596.825-4.566 1.629-6.6 1.785-3.067.235-5.273 1.729-12.954 8.774-5.091 4.67-10.034 9.748-10.983 11.285-1.647 2.668-1.637 2.973.229 6.745l1.955 3.95-7.128 6.756c-3.92 3.715-9.488 8.738-12.372 11.162-5.213 4.38-5.244 4.44-5.244 10.191 0 3.181.472 6.076 1.049 6.432.639.395.696 1.101.146 1.809-.499.642-.987 21.159-1.091 45.911l-.189 44.75h45.848l2.868 3.748c1.578 2.061 4.547 6.336 6.597 9.5l3.728 5.752H543v-54.393c0-49.294.152-54.451 1.626-55.017.894-.343 52.265-.612 114.157-.598 81.203.018 112.906.335 113.875 1.139 1.08.897 1.342 8.601 1.342 39.497v38.383l85.25-.255 85.25-.256.24-45.5c.133-25.025-.092-45.96-.5-46.522-.407-.563-3.44-3.257-6.74-5.988-3.3-2.731-8.674-7.517-11.943-10.636l-5.943-5.671 1.791-3.973c1.308-2.9 1.521-4.478.791-5.842-.551-1.027-3.881-4.568-7.401-7.868-3.52-3.3-8.703-8.11-11.519-10.688-2.815-2.579-5.717-4.788-6.447-4.91-.731-.123-2.585.295-4.119.928-2.289.944-2.607 1.467-1.771 2.911.56.967 3.053 3.778 5.54 6.246 2.486 2.467 4.521 4.914 4.521 5.437 0 .523-14.631-13.646-32.514-31.486-17.882-17.841-32.957-32.588-33.5-32.771-.542-.184-.976-1.084-.964-2 .012-.917.902-2.792 1.978-4.167s1.966-3.214 1.978-4.086c.012-.872-3.025-4.472-6.749-8-3.724-3.528-8.561-7.992-10.75-9.92-2.26-1.992-6.037-4.044-8.743-4.75-2.621-.684-5.208-1.244-5.75-1.244-.542 0-.986.428-.986.951 0 .523 6.263 7.385 13.918 15.249 7.654 7.864 13.791 14.424 13.638 14.578-.154.154-3.34-2.546-7.079-5.999-3.74-3.454-13.14-12.698-20.888-20.543-7.749-7.846-15.275-15.608-16.724-17.25-1.767-2.003-3.578-2.987-5.5-2.99-1.576-.003-58.537-.115-126.581-.25M588.458 200.6c-2.177-.269-5.819.117-8.093.858-2.274.742-5.109 1.87-6.301 2.508-1.191.637-3.493 2.548-5.115 4.245-1.622 1.697-2.949 3.535-2.949 4.083 0 .549 1.096-.185 2.436-1.631 1.34-1.446 4.17-3.532 6.287-4.636 2.118-1.104 5.952-2.295 8.52-2.647 2.635-.361 6.757-.115 9.463.565 2.637.663 6.286 2.342 8.11 3.731 1.823 1.389 3.514 2.328 3.756 2.085.242-.242-.401-1.411-1.429-2.597-1.029-1.186-3.864-3.038-6.299-4.115-2.436-1.077-6.21-2.179-8.386-2.449m144.717.875c-3.671-.218-8.025-.042-9.675.391-1.65.433-3.964 1.305-5.142 1.938-1.178.633-3.316 2.546-4.75 4.25-1.434 1.705-2.608 3.576-2.608 4.158 0 .582.943-.141 2.095-1.605 1.152-1.465 3.739-3.491 5.75-4.503 2.01-1.013 5.68-2.136 8.155-2.495 2.475-.36 6.935-.192 9.912.373 2.977.565 6.884 2.15 8.683 3.523 1.799 1.372 3.605 2.495 4.013 2.495.407 0-.35-1.168-1.684-2.595-1.333-1.427-3.695-3.256-5.249-4.064-1.554-.809-5.829-1.648-9.5-1.866m-595.382 33.533c-.389-.005-3.295 3.254-6.457 7.242s-8.408 10.4-11.658 14.25c-3.25 3.85-6.818 8.125-7.928 9.5-1.111 1.375-3.163 3.732-4.561 5.238l-2.54 2.738 3.988 3.793c2.193 2.087 11.484 9.292 20.646 16.012 9.163 6.721 17.301 12.219 18.085 12.219.783 0 2.709-1.511 4.278-3.359 1.57-1.847 6.454-7.741 10.854-13.097 4.4-5.356 10.35-12.283 13.221-15.391 2.872-3.109 5.234-6.384 5.25-7.278.016-.899-3.21-3.91-7.221-6.738-3.988-2.812-13.55-9.615-21.25-15.117-7.7-5.503-14.318-10.008-14.707-10.012m.335 3.007c-.346.009-1.093.346-1.662.75s-2.819 2.983-5 5.731c-2.181 2.749-6.666 8.191-9.966 12.095-3.3 3.904-7.8 9.223-10 11.82-2.2 2.597-4.141 5.114-4.313 5.594-.172.479 3.054 3.487 7.169 6.683 4.115 3.197 13.221 10.072 20.237 15.278l12.756 9.467 3.576-4.366c1.966-2.401 8.854-10.566 15.306-18.145 6.452-7.579 12.189-14.064 12.75-14.41.56-.347 1.019-1.006 1.019-1.466 0-.459-5.738-4.731-12.75-9.493-7.012-4.762-16.293-11.11-20.622-14.106-4.33-2.996-8.155-5.44-8.5-5.432m194.104 36.2c-7.923-.22-10.387.024-10.788 1.071-.287.746-.391 5.824-.232 11.285l.288 9.929 10.783.284 10.783.284-.283-11.284-.283-11.284-10.268-.285m-.241 1.604-8.87-.319-.311 9.272c-.17 5.1-.16 9.713.023 10.25.184.539 4.315.978 9.191.978 4.872 0 9.005-.337 9.184-.75.179-.413.174-4.881-.01-9.931l-.336-9.181-8.871-.319M733.5 289.776c-2.75-.218-6.35-.11-8 .24-1.65.35-4.013 1.181-5.25 1.846-1.237.664-2.25 1.375-2.25 1.58 0 .204.907.134 2.016-.156 1.108-.29 2.26-.923 2.559-1.407.298-.483 4.14-.879 8.537-.879 6.879 0 8.507.349 11.673 2.5 2.024 1.375 4.051 2.5 4.506 2.5.455 0 .54-.464.189-1.032-.35-.567-2.515-1.879-4.809-2.914-2.294-1.035-6.421-2.06-9.171-2.278M273 302.244c-.275.117-14.675.448-32 .735l-31.5.521-.264 32.381c-.19 23.244.06 32.77.884 33.763.942 1.136 6.98 1.336 33.764 1.119l32.616-.263v-33.287c0-28.501-.216-33.424-1.5-34.235-.825-.521-1.725-.851-2-.734M242.969 304c-24.828 0-32.14.283-32.515 1.259-.266.693-.364 15.307-.219 32.476l.265 31.217 32.25.333 32.25.333V304h-32.031m120.066 3H353v21.072l9.75-.286 9.75-.286.285-10.25.285-10.25h-10.035m-2.285 1.014L354 308v19h18v-8.883c0-8.367-.131-8.919-2.25-9.487-1.238-.331-5.288-.609-9-.616m-119.625 5.104c-3.566.115-3.552.13.875.911 2.475.437 6.075 1.477 8 2.311 1.925.834 4.32 2.492 5.322 3.683 1.001 1.192 2.126 1.854 2.5 1.472.373-.382-1.022-2.171-3.101-3.976-2.078-1.804-5.172-3.559-6.875-3.9-1.703-.34-4.727-.566-6.721-.501m103.566 54.536c-5.747-.374-7.937-.176-8.293.752-.267.694-.352 5.049-.191 9.678l.293 8.416h18l.289-8.766c.214-6.484-.046-8.871-1-9.169-.709-.221-4.803-.63-9.098-.911M907 367.22c-.825.011-3.413.48-5.75 1.042s-4.25 1.361-4.25 1.775c0 .414 1.688.361 3.75-.118 2.063-.479 5.775-.927 8.25-.995 3.757-.103 4.087-.255 2-.924-1.375-.44-3.175-.791-4-.78M344.893 369H337v17h7.893c6.275 0 8.017-.324 8.5-1.582.334-.87.607-3.983.607-6.918s-.273-6.048-.607-6.918c-.483-1.258-2.225-1.582-8.5-1.582m-40.393 8.667c-1.1-.092-5.6.058-10 .333l-8 .5v21l9.772.5c5.375.275 10.213.35 10.75.167.557-.19.978-5.033.978-11.25 0-6.004-.337-10.955-.75-11-.413-.046-1.65-.159-2.75-.25m-6.5 1.578c-4.675-.14-9.077.12-9.782.578-.938.611-1.172 3.227-.872 9.756l.41 8.921 9.252.5c6.136.332 9.39.137 9.663-.579.227-.594.281-5.094.12-10l-.291-8.921-8.5-.255M323.469 412c-5.398 0-7.678.382-8.05 1.349-.284.742-.383 4.455-.218 8.25l.299 6.901 8 .5 8 .5.5 6 .5 6 10 .219c5.5.121 11.026-.003 12.28-.276 2.246-.489 2.275-.684 2-13.22l-.28-12.723-12.75-.28c-10.425-.229-12.75-.548-12.75-1.75 0-1.163-1.572-1.47-7.531-1.47m5.697 2c-.366-.275-3.478-.366-6.916-.202l-6.25.297V428h5.918c3.255 0 6.518-.229 7.25-.509.965-.369 1.24-2.229.998-6.75-.184-3.433-.634-6.466-1-6.741m14.815 2H333v24.066l11.25-.283 11.25-.283.293-9.5c.161-5.225.04-10.512-.269-11.75-.54-2.163-.989-2.25-11.543-2.25m-114.109 31.21c-6.288-.239-7.737-.005-8.25 1.332-.342.892-.622 4.483-.622 7.981 0 3.561.486 6.659 1.104 7.042.608.375 3.883.905 7.279 1.178 4.764.382 6.464.147 7.441-1.031.838-1.009 1.167-4.018.972-8.87l-.296-7.342-7.628-.29m-.147.996-6.618-.295-.626 3.339c-.344 1.836-.481 5.118-.304 7.294l.323 3.956 6.381.786c3.509.432 6.513.654 6.675.492.162-.162.405-3.666.54-7.786l.247-7.492-6.618-.294M300.452 453c-18.334 0-33.56.366-33.836.813-.277.447-.746 15.473-1.044 33.39-.451 27.198-.309 32.77.86 33.741 1.006.835 10.509 1.14 33.664 1.083 22.804-.056 32.67-.418 33.653-1.233 1.143-.949 1.349-6.85 1.159-33.224-.128-17.639-.432-32.632-.677-33.32-.344-.966-8.016-1.25-33.779-1.25m-.438 2H267v66.027l32.75-.263 32.75-.264.264-32.75.263-32.75h-33.013m92.903 1.015c-5.271-.008-9.884.285-10.25.652-.367.366-.667 5.991-.667 12.5V481h2.441c1.343 0 2.732.47 3.087 1.045s.944 4.063 1.309 7.75l.663 6.705 4.2.305 4.199.305.301 5.195.3 5.195 12.664.279 12.664.279.572-2.779c.314-1.528.388-3.679.162-4.779-.225-1.1-.443-5.696-.485-10.212l-.077-8.213-9.25-.287-9.25-.288-.284-11.962c-.19-8.028-.683-12.216-1.5-12.734-.669-.426-5.528-.78-10.799-.789m-193.222 1.19c-5.492.162-10.614.752-11.381 1.311-1.068.778-1.317 3.242-1.062 10.5l.333 9.484.207-9.75L188 459h22v22.125l-11.002-.313c-6.051-.171-11.001.025-11 .438.001.413 5.108.75 11.349.75h11.347l.639-11.164c.445-7.782.292-11.583-.507-12.545-.867-1.045-3.575-1.309-11.131-1.086m155.692.795c-5.3 0-7.598.386-7.963 1.338-.283.737-.381 4.899-.219 9.25l.295 7.912 7.845.294c4.923.184 8.368-.141 9.25-.873.986-.818 1.405-3.482 1.405-8.936 0-6.164-.327-7.897-1.582-8.378-.87-.334-4.934-.607-9.031-.607m37.474 0H383v21.586l3.25.957c3.195.941 3.255 1.068 3.542 7.524l.291 6.566 4.209.934 4.208.933.302 5.25.303 5.25H423v-24h-8.941c-5.554 0-9.205-.427-9.638-1.127-.383-.62-.922-6.245-1.198-12.5L402.721 458h-9.86m-36.625 1.206c-5.494-.223-7.395.045-7.8 1.099-.294.766-.4 4.499-.235 8.294l.299 6.901 7.791.293 7.791.293-.291-8.293-.291-8.293-7.264-.294m-120.889 10.107c-7.444-.364-10.296-.142-11.688.906-1.649 1.243-1.783 2.474-1.287 11.834.304 5.746.57 10.799.591 11.229.02.43 5.324.655 11.787.5l11.75-.282.286-10.914c.157-6.003-.137-11.337-.654-11.854-.516-.516-5.37-1.155-10.785-1.419M234.5 471H224v22h21v-22h-10.5M28.779 482.211c-8.387-.277-8.744-.2-9.301 2.021-.319 1.271-.444 5.45-.279 9.289l.301 6.979 8 .603c4.808.362 8.513.201 9.287-.403.914-.715 1.203-3.494 1-9.603L37.5 482.5l-8.721-.289M28.5 483H21v17h15v-17h-7.5m76.5 16.254c-11.825-.135-22.005.09-22.623.5-.752.499-1.271 8.116-1.571 23.022-.439 21.881-.41 22.285 1.624 22.783 1.138.279 11.52.38 23.07.224l21-.283v-46l-21.5-.246m18.5 1.207c-1.1-.021-10.848.101-21.663.271l-19.663.31-.37 21.229c-.203 11.676-.098 21.576.234 21.999.331.424 10.246.649 22.032.5l21.43-.27v-22c0-21.32-.062-22.001-2-22.039m86 1.11c-3.85-.32-7.581-.204-8.291.258-.935.608-1.211 3.305-1 9.756l.291 8.915 7.845.294c4.923.184 8.368-.141 9.25-.873.99-.821 1.405-3.502 1.405-9.075 0-5.451-.388-8.031-1.25-8.301-.687-.215-4.4-.654-8.25-.974m-.164 1.255c-4.131-.179-7.697-.138-7.924.091-.227.229-.412 3.941-.412 8.25V519h7.833c4.309 0 8.021-.185 8.25-.412.23-.227.27-3.793.091-7.924l-.327-7.511-7.511-.327M334.922 542c-4.177 0-7.072.475-7.731 1.27-.579.698-1.197 3.234-1.372 5.634l-.319 4.366-5.486.434c-3.017.239-5.704.653-5.97.919s2.427.347 5.986.18c6.069-.284 6.487-.458 6.74-2.803.148-1.375.51-3.982.803-5.793l.534-3.292 7.196.292 7.197.293.312 4.934c.172 2.713.058 5.947-.253 7.187-.41 1.633-1.459 2.364-3.812 2.656l-3.247.403 3.633.16c2.992.132 3.74-.237 4.237-2.09.331-1.237.609-4.523.616-7.3.008-2.777-.526-5.59-1.186-6.25-.694-.694-4.017-1.2-7.878-1.2m25.526 6.219c-6.079-.154-11.367.033-11.75.417-.384.383-.698 5.517-.698 11.408 0 7.946.36 11.01 1.396 11.87.914.758 4.974 1.059 11.75.872l10.354-.286v-24l-11.052-.281m-.118.997c-6.415-.179-10.413.109-10.828.781-.362.585-.34 5.551.049 11.034l.707 9.969 8.871.15c4.879.082 9.434.195 10.121.25.93.074 1.25-2.713 1.25-10.9v-11l-10.17-.284m.21 2.784H352v17.081l8.25-.291 8.25-.29.29-8.25.291-8.25h-8.541m-.016 1.388c-3.562-.056-6.6.019-6.75.167-.151.149-.128 3.347.05 7.107l.324 6.838 6.426.247 6.426.247v-14.503l-6.476-.103m-28.806 15.997c-.255-.255-.692.406-.97 1.471-.395 1.509-1.686 2.06-5.877 2.505-2.954.314-7.396.506-9.871.427-2.475-.079-6.075-.08-8-.001-2.018.082-3.961-.465-4.589-1.292-.804-1.061-1.065 1.498-1 9.785l.089 11.22h18l.5-9.5.5-9.5 5.199-.3c4.192-.243 5.323-.693 5.841-2.326.353-1.114.434-2.234.178-2.489m-19.968 6.694c-3.988.043-7.812.306-8.5.583-.852.344-1.25 3.024-1.25 8.421V593h17v-17l-7.25.079m69.328-.079c-3.861 0-7.184.506-7.878 1.2-.661.661-1.2 3.837-1.2 7.066 0 3.226.466 6.736 1.035 7.8.871 1.626 2.137 1.934 7.965 1.934 5.759 0 7.1-.318 7.936-1.88.553-1.035.953-4.522.888-7.75-.064-3.229-.557-6.432-1.093-7.12-.607-.778-3.498-1.25-7.653-1.25m-2.578 1.538c-1.65-.134-3.562-.047-4.25.193-.819.285-1.25 2.578-1.25 6.652 0 3.502.524 6.741 1.2 7.417.679.679 3.933 1.2 7.5 1.2h6.3v-15l-3.25-.11c-1.788-.06-4.6-.219-6.25-.352m-17.415.462c-3.713 0-7.052.3-7.418.667-.367.366-.667 4.143-.667 8.393 0 6.123.328 7.852 1.582 8.333.87.334 4.208.607 7.418.607s6.548-.273 7.418-.607c1.255-.482 1.582-2.216 1.582-8.393 0-6.177-.327-7.911-1.582-8.393-.87-.334-4.62-.607-8.333-.607m1.151 1.206c-5.508-.223-7.395.044-7.802 1.105-.295.77-.401 4.277-.235 7.794l.301 6.395h15v-15l-7.264-.294M244.5 601.42c-11 .001-15.364.148-9.697.326 5.667.179 14.667.178 20-.001 5.333-.18.697-.326-10.303-.325m117.25 94.784L353 696v25l8.75-.204 8.75-.203-8.25-.337-8.25-.337v-22.838l8.25-.337 8.25-.337-8.75-.203M323.5 777.42c-11 .001-15.364.148-9.697.326 5.667.179 14.667.178 20-.001 5.333-.18.697-.326-10.303-.325"/>
</svg>
