<svg id="svg" version="1.1" viewBox="0 0 300 168.66666666666669" width="300" height="168.66666666666669" xmlns="http://www.w3.org/2000/svg"><svg xmlns="http://www.w3.org/2000/svg"><defs><clipPath id="clip-1"><rect x="0" y="0" transform="scale(0.14648,0.14654)" width="2048" height="1151" fill="none"/></clipPath><linearGradient x1="165.73096" y1="127.78867" x2="166.20557" y2="99.64273" gradientUnits="userSpaceOnUse" id="color-1"><stop offset="0" stop-color="#c5751b"/><stop offset="1" stop-color="#de9526"/></linearGradient><linearGradient x1="177.39844" y1="124.43805" x2="178.07666" y2="116.93392" gradientUnits="userSpaceOnUse" id="color-2"><stop offset="0" stop-color="#c87717"/><stop offset="1" stop-color="#dc9730"/></linearGradient><linearGradient x1="178.39893" y1="111.12129" x2="178.229" y2="108.81491" gradientUnits="userSpaceOnUse" id="color-3"><stop offset="0" stop-color="#9e3f0a"/><stop offset="1" stop-color="#bc5413"/></linearGradient><linearGradient x1="165.2373" y1="45.79674" x2="166.54248" y2="16.93569" gradientUnits="userSpaceOnUse" id="color-4"><stop offset="0" stop-color="#122c55"/><stop offset="1" stop-color="#41597f"/></linearGradient><linearGradient x1="154.24658" y1="28.28237" x2="154.24805" y2="24.61625" gradientUnits="userSpaceOnUse" id="color-5"><stop offset="0" stop-color="#040405"/><stop offset="1" stop-color="#192336"/></linearGradient><linearGradient x1="134.43296" y1="45.45237" x2="131.93848" y2="19.71861" gradientUnits="userSpaceOnUse" id="color-6"><stop offset="0" stop-color="#14325e"/><stop offset="1" stop-color="#445c83"/></linearGradient><linearGradient x1="132.65947" y1="100.02725" x2="134.03511" y2="81.54176" gradientUnits="userSpaceOnUse" id="color-7"><stop offset="0" stop-color="#cf7c1c"/><stop offset="1" stop-color="#e5a32e"/></linearGradient><linearGradient x1="198.9082" y1="99.48109" x2="198.49951" y2="86.18881" gradientUnits="userSpaceOnUse" id="color-8"><stop offset="0" stop-color="#d1801d"/><stop offset="1" stop-color="#e6a22b"/></linearGradient><linearGradient x1="202.87354" y1="109.55479" x2="209.18994" y2="109.12176" gradientUnits="userSpaceOnUse" id="color-9"><stop offset="0" stop-color="#9f4903"/><stop offset="1" stop-color="#ce6d12"/></linearGradient><linearGradient x1="198.06152" y1="58.78041" x2="199.60693" y2="24.97952" gradientUnits="userSpaceOnUse" id="color-10"><stop offset="0" stop-color="#082147"/><stop offset="1" stop-color="#395583"/></linearGradient><linearGradient x1="204.79834" y1="55.99279" x2="204.76172" y2="51.70491" gradientUnits="userSpaceOnUse" id="color-11"><stop offset="0" stop-color="#090c15"/><stop offset="1" stop-color="#0d274a"/></linearGradient><linearGradient x1="106.37271" y1="72.71629" x2="108.66636" y2="60.78096" gradientUnits="userSpaceOnUse" id="color-12"><stop offset="0" stop-color="#0e182a"/><stop offset="1" stop-color="#1b3561"/></linearGradient><linearGradient x1="97.05659" y1="47.81473" x2="99.40137" y2="36.03927" gradientUnits="userSpaceOnUse" id="color-13"><stop offset="0" stop-color="#0c1f3b"/><stop offset="1" stop-color="#2c4672"/></linearGradient><linearGradient x1="83.02368" y1="36.16926" x2="82.00884" y2="25.99841" gradientUnits="userSpaceOnUse" id="color-14"><stop offset="0" stop-color="#152036"/><stop offset="1" stop-color="#314f7f"/></linearGradient></defs><g clip-path="url(#clip-1)" fill="none" fill-rule="nonzero" stroke="none" stroke-width="1" stroke-linecap="butt" stroke-linejoin="miter" stroke-miterlimit="10" stroke-dasharray="" stroke-dashoffset="0" font-family="none" font-weight="none" font-size="none" text-anchor="none" style="mix-blend-mode: normal"><path d="M0,0h300v168.66667h-300z" fill="#eaeae9"/><path d="M147.38818,99.62045c1.28613,0.24677 5.3584,0.15987 6.83643,0.16149l13.64795,0.00762c3.89648,0.00484 7.7915,-0.01172 11.68652,-0.04968c1.14111,-0.00674 4.12939,0.08133 5.03467,-0.03414l0.03809,0.11723c-0.21094,2.19692 -0.2373,27.31565 0.09814,27.7497c0.03369,0.0425 0.07471,0.07723 0.11279,0.11577l0.05566,0.09569c-12.27539,0.26289 -24.89795,-0.22113 -37.18652,0.03268l-0.36182,-0.04733c0.19043,-8.96615 -0.06885,-18.56652 0.00439,-27.63144l0.06885,-0.18435l-0.08936,-0.15094z" fill="url(#color-1)"/><path d="M147.42334,99.95368c0.39697,0.54249 0.23438,4.86847 0.23145,5.89117l-0.00586,14.14675c0,2.28235 -0.09668,5.63634 0.06299,7.8252l-0.36182,-0.04733c0.19043,-8.96615 -0.06885,-18.56652 0.00439,-27.63144z" fill="#7f3c0b"/><path d="M150.44971,105.06834c0.53613,-1.29966 1.13818,-2.11119 2.49756,-2.67742c1.01367,-0.42614 2.15625,-0.4257 3.16846,0.00117c1.83691,0.79087 1.44727,1.53515 2.21045,2.77472c0.82178,0.72522 0.34717,2.04173 -0.06885,2.87451c0.08789,0.02945 0.21533,0.02477 0.31641,0.0296l0.24609,-0.61517c-0.14795,1.14623 -0.25488,1.71466 -0.83936,2.74571c-1.16455,2.05595 -3.20361,3.51079 -5.5752,2.42493c-0.00586,-0.00278 -0.16699,-0.57018 -0.16406,-0.56813c-0.55078,-0.33514 -1.17627,-0.67218 -1.59814,-1.18506c-0.83936,-0.96569 -0.78516,-1.81166 -0.70752,-3.02179l0.24756,-0.1505c-0.4292,-0.87997 -0.32812,-1.46803 0.13916,-2.26095l-0.01318,0.2264l0.26514,-0.1949z" fill="#d48b25"/><path d="M158.25732,108.04133c0.08789,0.02945 0.21533,0.02477 0.31641,0.0296l0.24609,-0.61517c-0.14795,1.14623 -0.25488,1.71466 -0.83936,2.74571c-1.16455,2.05595 -3.20361,3.51079 -5.5752,2.42493c-0.00586,-0.00278 -0.16699,-0.57018 -0.16406,-0.56813c-0.55078,-0.33514 -1.17627,-0.67218 -1.59814,-1.18506c-0.83936,-0.96569 -0.78516,-1.81166 -0.70752,-3.02179l0.24756,-0.1505c1.14697,3.52398 6.23291,3.76855 8.07422,0.34041z" fill="#a9490d"/><path d="M150.44971,105.06834c0.53613,-1.29966 1.13818,-2.11119 2.49756,-2.67742c1.01367,-0.42614 2.15625,-0.4257 3.16846,0.00117c1.83691,0.79087 1.44727,1.53515 2.21045,2.77472c0.04834,-0.02433 -0.24756,0.07107 -0.25928,0.02989c-0.21533,-0.80685 -1.05176,-1.81196 -1.61426,-2.09009c-1.07373,-0.64565 -1.87646,-0.59026 -3.0498,-0.4361c-1.39746,0.18347 -2.27637,2.13288 -2.95312,2.39782z" fill="#edb156"/><path d="M153.59033,104.52937c0.98145,0.10302 2.92676,-0.00366 3.6958,0.19607l-0.00146,0.15943c-0.54492,0.25879 -0.39697,0.1757 -1.11035,0.00513c-0.56543,-0.0252 -0.51416,0.10038 -0.81299,0.22875c-0.22559,0.09745 -1.80322,-0.16574 -2.12256,-0.20838l-0.05273,-0.18024z" fill="#dc962a"/><path d="M154.28906,105.64541l0.09668,-0.04382l0.14209,0.10522l-0.08203,0.3769c-0.54199,0.42526 -0.4043,0.29909 -1.18506,0.37573l-0.05859,-0.46101c0.26221,-0.48021 0.07471,0.12089 1.08691,-0.35301z" fill="#dc962a"/><path d="M150.30615,120.88872c0.12305,-0.75673 0.2666,-1.39359 0.67236,-2.0599c0.56982,-0.94239 1.49268,-1.61735 2.56348,-1.87394c1.0459,-0.25 2.14746,-0.0699 3.06006,0.49985c1.2334,0.77724 1.58789,1.80756 1.90723,3.14034l0.14209,0.67335c1.03857,8.99282 -10.27441,5.78405 -8.22363,2.15427l0.25928,0.14962l0.15967,-0.17746c-0.33545,-0.86531 -0.60645,-1.57603 -0.54053,-2.50611z" fill="#cd7f1c"/><path d="M158.65137,121.2684c1.03857,8.99282 -10.27441,5.78405 -8.22363,2.15427l0.25928,0.14962l0.15967,-0.17746l0.87158,0.93697l0.80127,0.54513c1.47803,0.54557 2.12842,0.54601 3.62695,0.0255l0.12598,-0.1949c1.62012,-0.64844 2.02734,-1.80507 2.37891,-3.43913z" fill="#ad5308"/><path d="M156.14648,124.90243c0.06299,0.08778 0.13477,0.27095 0.18164,0.37719c-0.87598,1.14784 -3.78516,0.95192 -4.10742,-0.21527l0.29883,-0.18742c1.47803,0.54557 2.12842,0.54601 3.62695,0.0255z" fill="#7f3c0b"/><path d="M150.30615,120.88872c0.12305,-0.75673 0.2666,-1.39359 0.67236,-2.0599c0.56982,-0.94239 1.49268,-1.61735 2.56348,-1.87394c1.0459,-0.25 2.14746,-0.0699 3.06006,0.49985c1.2334,0.77724 1.58789,1.80756 1.90723,3.14034c-0.43945,-0.25117 -0.375,-0.28575 -0.63574,-0.79893c-0.37939,0.22743 -0.28418,0.88979 -0.72803,1.45455l-0.26367,0.00938c0.10107,-0.38877 0.25635,-0.82633 0.38232,-1.21291l0.14355,-0.61356c-0.00586,-2.64708 -4.2627,-2.55711 -5.6748,-0.97068c-0.7793,0.87587 -0.87744,1.45264 -1.42676,2.42581z" fill="#edb156"/><path d="M152.91064,120.07513l0.2959,-0.50336c1.13965,-0.50483 2.98682,-0.3495 4.20117,-0.13819l-0.14355,0.61356c-0.7251,-0.26905 -1.83252,-0.50776 -2.57959,-0.26568c-0.37354,0.31096 -0.27832,0.14097 -0.34424,0.64272c0.15527,0.41573 0.18018,0.5145 0.4292,0.87411l-0.21973,0.09217c-0.55371,-0.26509 -0.19043,-0.45207 -0.70312,-1.14535c-0.43066,0.03605 -0.5625,0.05378 -0.93604,-0.16999z" fill="#d48b25"/><path d="M151.71826,124.33181c0.74561,0.05275 4.11914,0.20603 4.5542,0.37573l-0.12598,0.1949c-1.49854,0.52051 -2.14893,0.52007 -3.62695,-0.0255z" fill="#bc7117"/><path d="M174.65332,124.1098c-0.51562,-0.54161 -0.72217,-1.36824 -0.89355,-2.09463c-0.26514,-1.1137 -0.07324,-2.28748 0.5332,-3.2583c0.61377,-0.95426 1.58496,-1.62219 2.69531,-1.85387c3.04248,-0.6203 4.51318,1.67025 5.00537,4.29521l0.15674,0.13027c-0.18604,1.78851 -0.81006,3.50346 -1.81787,4.99201c-2.05664,0.72244 -3.32812,0.97243 -5.49902,0.17848c-0.8042,-0.29425 -1.4165,-2.71112 -1.34766,-3.4236l0.17725,-0.017c0.16699,0.41573 0.28857,0.87411 0.62695,1.12996z" fill="url(#color-2)"/><path d="M181.99365,121.19821l0.15674,0.13027c-0.18604,1.78851 -0.81006,3.50346 -1.81787,4.99201c-2.05664,0.72244 -3.32812,0.97243 -5.49902,0.17848c-0.8042,-0.29425 -1.4165,-2.71112 -1.34766,-3.4236l0.17725,-0.017c0.16699,0.41573 0.28857,0.87411 0.62695,1.12996l0.36328,-0.07855c0.42627,0.22772 0.46875,0.26905 0.76611,0.6521l0.50977,0.15856c1.01953,-0.30524 2.83154,-0.47772 3.90381,-0.33352c1.22021,-0.69797 2.10059,-1.95806 2.16064,-3.38872z" fill="#ad5308"/><path d="M175.9292,124.92045c1.01953,-0.30524 2.83154,-0.47772 3.90381,-0.33352l0.0293,0.06726c0.25049,0.0318 0.24463,0.04924 0.46582,0.18068c-0.1377,0.48636 -0.83789,1.02695 -1.24658,1.40106c-1.19678,0.06711 -3.51123,0.08983 -3.66211,-1.47404z" fill="#7f3c0b"/><path d="M175.9292,124.92045c1.01953,-0.30524 2.83154,-0.47772 3.90381,-0.33352l0.0293,0.06726c-1.46045,0.67848 -2.37158,0.8215 -3.93311,0.26626z" fill="#bc7117"/><path d="M177.3252,119.34815c0.7793,-0.05114 2.94141,-0.39771 3.41602,-0.22083l0.07178,0.10595c-0.69727,0.17057 -1.35791,-0.09979 -1.58789,0.14522c0.16992,0.12808 0.33252,0.2541 0.51123,0.36899l-0.08496,0.03473c-0.59619,0.99823 -0.20654,1.37073 -0.93164,2.37848c-0.59619,0.29528 -1.53223,0.07898 -2.20605,0.17453c-0.65479,0.09291 -0.7749,0.25102 -1.4751,0.27901l-0.19336,-0.26245l0.12744,-0.23314c0.35303,-0.14214 0.54492,-0.2075 0.92578,-0.21776l0.14502,-0.26406c-0.06152,-0.21556 -0.00879,-0.46834 0.01611,-0.69797c0.05127,-0.59319 0.04102,-0.74779 0.33252,-1.27489c0.38086,-0.30392 0.44238,-0.30803 0.93311,-0.31579z" fill="#d48b25"/><path d="M176.05957,120.93884c0.05127,-0.59319 0.04102,-0.74779 0.33252,-1.27489c0.38086,-0.30392 0.44238,-0.30803 0.93311,-0.31579c0.13184,0.63671 -0.00146,1.70454 -0.19336,2.32162c0.8335,0.62983 0.94922,0.06462 1.58789,0.49091c-0.59619,0.29528 -1.53223,0.07898 -2.20605,0.17453c-0.65479,0.09291 -0.7749,0.25102 -1.4751,0.27901l-0.19336,-0.26245l0.12744,-0.23314c0.35303,-0.14214 0.54492,-0.2075 0.92578,-0.21776l0.14502,-0.26406c-0.06152,-0.21556 -0.00879,-0.46834 0.01611,-0.69797z" fill="#dc962a"/><path d="M176.05957,120.93884l0.26221,0.2267c-0.0835,0.62821 -0.14648,0.42731 0.1377,0.84231c0.38672,-0.09877 0.2373,0.00586 0.46143,-0.32883l0.21094,-0.00923c0.8335,0.62983 0.94922,0.06462 1.58789,0.49091c-0.59619,0.29528 -1.53223,0.07898 -2.20605,0.17453c-0.65479,0.09291 -0.7749,0.25102 -1.4751,0.27901l-0.19336,-0.26245l0.12744,-0.23314c0.35303,-0.14214 0.54492,-0.2075 0.92578,-0.21776l0.14502,-0.26406c-0.06152,-0.21556 -0.00879,-0.46834 0.01611,-0.69797z" fill="#d48b25"/><path d="M176.32178,121.16553c0.01172,-0.26055 0.0293,-0.51831 0.01758,-0.77871l0.26953,-0.10404l0.00293,-0.17189l-0.14062,-0.05481l0.16992,-0.08236c0.37939,0.83557 0.06006,1.19386 0.27979,1.70528c-0.22412,0.3347 -0.07471,0.23007 -0.46143,0.32883c-0.28418,-0.415 -0.22119,-0.21409 -0.1377,-0.84231z" fill="#cd7f1c"/><path d="M179.73633,119.74747l0.42188,0.18728c0.0498,0.65298 0.0498,1.2535 -0.3999,1.78148c-0.23291,-0.25937 0.04541,-1.36443 -0.10693,-1.93402z" fill="#d48b25"/><path d="M174.01904,104.9917c0.35449,-4.19366 7.85449,-3.44382 7.54102,0.32414c0.4834,0.43156 0.07178,0.59729 0.55664,1.14198c0.6709,1.72535 -1.52051,4.58389 -3.19482,5.21416c-1.03418,0.37851 -2.17529,0.3281 -3.17285,-0.13965c-1.01074,-0.47156 -1.78564,-1.33556 -2.14453,-2.39211c-0.19189,-0.56037 -0.30322,-0.71672 -0.15527,-1.20191c0.12158,0.19094 0.17578,0.29425 0.39111,0.39155l0.15381,-0.0529c-0.60059,-1.83716 0.07764,-1.60666 0.0249,-3.28526z" fill="#d48b25"/><path d="M173.99414,108.27697c0.49219,0.95192 1.13672,1.55097 2.14307,1.94223c1.08545,0.41251 2.29248,0.37455 3.3501,-0.10551c2.0376,-0.9169 1.98486,-1.98106 2.62939,-3.65586c0.6709,1.72535 -1.52051,4.58389 -3.19482,5.21416c-1.03418,0.37851 -2.17529,0.3281 -3.17285,-0.13965c-1.01074,-0.47156 -1.78564,-1.33556 -2.14453,-2.39211c-0.19189,-0.56037 -0.30322,-0.71672 -0.15527,-1.20191c0.12158,0.19094 0.17578,0.29425 0.39111,0.39155z" fill="url(#color-3)"/><path d="M174.01904,104.9917c0.35449,-4.19366 7.85449,-3.44382 7.54102,0.32414c-0.60205,-1.76697 -2.31885,-3.06194 -4.21289,-2.7016c-1.67139,0.3177 -2.39941,1.07574 -3.32812,2.37745z" fill="#edb156"/><path d="M176.13135,104.63063c0.86719,-0.00938 3.93457,-0.09628 4.62891,0.11547c-0.50391,0.56432 -1.77393,0.0866 -2.45947,0.45969l-0.1582,-0.23212c-0.45557,0.05964 -0.76758,-0.04147 -1.26562,0.01216l-0.15674,0.28018c0.10693,0.45515 0.00879,0.31125 0.33545,0.59847l0.56836,-0.27916l0.15674,0.15181c-0.06152,0.56711 0.03662,0.44651 -0.27979,0.80054c-0.8877,0.0633 -1.24512,-1.21965 -1.36963,-1.90706z" fill="#dc962a"/><path d="M146.45508,17.4622c2.06689,0.26011 7.62305,0.09291 9.98438,0.09305l17.74365,0.00865c3.24316,-0.00865 7.32129,-0.14639 10.4707,0.02623l0.04395,0.07063c0.4585,0.4805 0.30469,3.33772 0.30176,4.15805c-0.03076,2.46743 -0.0249,4.9353 0.02051,7.40272c-0.05713,2.3203 0.17432,14.75606 -0.25049,16.01967l-0.1626,0.09071l-0.12451,0.10258l-27.31787,0.00718c-1.2876,-0.00059 -9.11133,-0.09188 -9.8042,0.08719l-0.0791,-0.07415l0.08643,-0.14317c0.72363,-0.76318 0.06885,-22.62595 0.19629,-25.56509c0.01758,-0.40503 -0.00293,-1.27518 -0.13477,-1.67773l-0.24609,-0.0444l-0.15234,0.04382c-0.18896,-0.23314 -0.36182,-0.39595 -0.57568,-0.60594z" fill="url(#color-4)"/><path d="M184.69775,17.66076c0.4585,0.4805 0.30469,3.33772 0.30176,4.15805c-0.03076,2.46743 -0.0249,4.9353 0.02051,7.40272c-0.05713,2.3203 0.17432,14.75606 -0.25049,16.01967l-0.1626,0.09071c-0.08496,-0.46541 -0.06445,-2.4201 -0.07764,-3.05549c-0.07764,-2.80769 -0.10693,-5.61656 -0.08789,-8.42527v-10.01347c0,-1.17598 -0.13184,-5.35513 0.25635,-6.17692z" fill="#060912"/><path d="M173.91943,37.35432c-0.14502,-3.20511 5.04932,-4.13959 6.89648,-1.93622c0.52734,0.6307 1.1748,2.04613 0.77637,2.7756l0.27686,0.49252c0.54053,0.85037 0.20947,1.83584 0.02637,2.83319c-0.90381,0.77373 -0.91553,1.15737 -1.42676,1.99059c-0.50244,0.81622 -5.01123,0.67481 -5.6748,0.2053l0.4292,-0.23974c0.01025,-0.34334 -0.84082,-1.04644 -1.23486,-1.51536c-0.06885,-1.35988 -1.12646,-1.87937 -0.47607,-4.1497l0.20215,0.02052c0.17139,-0.1779 0.15527,-0.23358 0.20508,-0.47669z" fill="#243b62"/><path d="M181.89551,41.5194c-0.90381,0.77373 -0.91553,1.15737 -1.42676,1.99059c-0.50244,0.81622 -5.01123,0.67481 -5.6748,0.2053l0.4292,-0.23974c0.01025,-0.34334 -0.84082,-1.04644 -1.23486,-1.51536c-0.06885,-1.35988 -1.12646,-1.87937 -0.47607,-4.1497l0.20215,0.02052c0.0249,1.05567 0.19189,1.34552 0.38379,2.33481c0.73535,1.12762 1.42969,1.80566 2.8125,2.09053c1.08545,0.21615 2.21338,-0.01934 3.12158,-0.6521c0.36768,-0.25381 0.82178,-0.69987 1.08691,-1.06446c0.04834,-0.20149 0.60059,-1.42759 0.75,-1.85357c0.54053,0.85037 0.20947,1.83584 0.02637,2.83319z" fill="#0f192c"/><path d="M181.89551,41.5194c-0.90381,0.77373 -0.91553,1.15737 -1.42676,1.99059c-0.50244,0.81622 -5.01123,0.67481 -5.6748,0.2053l0.4292,-0.23974c0.01025,-0.34334 -0.84082,-1.04644 -1.23486,-1.51536c-0.06885,-1.35988 -1.12646,-1.87937 -0.47607,-4.1497l0.20215,0.02052c0.0249,1.05567 0.19189,1.34552 0.38379,2.33481c-0.49072,1.60754 1.66113,3.20862 3.00586,3.54405c0.54346,0.13555 1.35645,0.04382 1.91748,-0.00352c0.94629,-0.76171 2.24414,-1.82002 2.09766,-3.16657c0.04834,-0.20149 0.60059,-1.42759 0.75,-1.85357c0.54053,0.85037 0.20947,1.83584 0.02637,2.83319z" fill="#132b53"/><path d="M173.91943,37.35432c-0.14502,-3.20511 5.04932,-4.13959 6.89648,-1.93622c0.52734,0.6307 1.1748,2.04613 0.77637,2.7756c0.06152,-1.13246 -0.8877,-2.61895 -1.89697,-3.15807c-0.95361,-0.50087 -2.06689,-0.59861 -3.09082,-0.27154c-1.39746,0.4487 -2.04053,1.35446 -2.68506,2.59023z" fill="#546f98"/><path d="M176.50195,36.50835c0.50537,-0.04118 0.62109,-0.04924 1.11914,0.03341c0.3999,0.33616 0.28711,0.16442 0.44824,0.64272l-0.16406,0.29747l-0.18164,-0.5863c-0.42627,-0.23534 -0.75439,-0.04425 -1.11182,0.14493c-0.16406,-0.15504 -0.23145,-0.17365 -0.42627,-0.28282z" fill="#384f75"/><path d="M150.2959,37.56314c0.50244,-1.36648 0.9624,-2.35371 2.41406,-3.03644c1.0166,-0.46863 2.17822,-0.50966 3.22412,-0.11371c1.08105,0.4065 2.729,1.99103 2.06396,3.20042c0.14502,1.05318 0.42773,0.30055 0.40723,1.22609l0.11279,0.00293l0.27539,-0.05774c0.64893,2.20263 -1.34326,4.13226 -3.05273,5.09795c-1.04004,0.01802 -2.14453,-0.00586 -3.18896,-0.01099c-0.95361,-1.42246 -2.47852,-2.13596 -2.47412,-4.37097l0.03369,0.08499l0.05566,-0.09056c-0.01465,-0.38188 -0.01172,-0.46805 0.06592,-0.84143c-0.05713,-0.47244 -0.12158,-0.65269 0.06299,-1.09055z" fill="#243b62"/><path d="M152.55176,43.87165c-0.95361,-1.42246 -2.47852,-2.13596 -2.47412,-4.37097l0.03369,0.08499l0.05566,-0.09056c-0.01465,-0.38188 -0.01172,-0.46805 0.06592,-0.84143c0.74121,2.78996 3.18604,2.82396 5.64551,2.60898c0.41309,-0.31521 0.77637,-0.67349 1.26855,-0.74398l-0.00879,0.04132c0.55957,-0.16383 0.46729,-0.29791 0.87305,-0.58542l0.39404,-1.13509l0.11279,0.00293l0.27539,-0.05774c0.64893,2.20263 -1.34326,4.13226 -3.05273,5.09795c-1.04004,0.01802 -2.14453,-0.00586 -3.18896,-0.01099z" fill="#132b53"/><path d="M158.40527,38.83949l0.11279,0.00293c0.12744,0.78296 -0.48633,2.43871 -0.96533,3.0634c-1.2627,1.64564 -2.31592,1.86427 -4.24805,1.7721c-1.29346,-0.70251 -2.05371,-1.32193 -2.54004,-2.72724l0.05859,-0.21805c1.00635,0.42628 1.55713,1.18052 2.72168,1.575c2.05371,0.69621 3.69727,-0.37792 4.46631,-2.33305z" fill="#0f192c"/><path d="M150.2959,37.56314c0.50244,-1.36648 0.9624,-2.35371 2.41406,-3.03644c1.0166,-0.46863 2.17822,-0.50966 3.22412,-0.11371c1.08105,0.4065 2.729,1.99103 2.06396,3.20042c-0.01172,-0.13482 -0.03223,-0.26846 -0.06299,-0.4002c-0.61816,-2.59624 -4.18506,-3.49013 -6.11719,-1.78265c-0.55664,0.49105 -1.12354,1.48078 -1.52197,2.13259z" fill="#546f98"/><path d="M155.1665,37.09333l0.13184,-0.07532c0.12451,0.3347 0.35889,1.12586 0.20654,1.43022l-0.2417,-0.08851c-0.1875,-0.41705 -0.25342,-0.51875 -0.64307,-0.76083c-0.1084,0.28092 -0.22266,0.56022 -0.33984,0.83791l-0.24756,0.06462l-0.06738,-0.29601c0.46582,-1.42231 0.271,-0.10609 1.20117,-1.11209z" fill="#283f67"/><path d="M155.34814,39.10048c0.10547,-0.04587 0.14355,-0.01392 0.29297,0.00381l0.01758,0.26494c-0.35156,0.22318 -1.81641,0.15621 -2.37451,0.17936l-0.52588,-0.14742l-0.05273,-0.17673c0.54199,-0.14815 1.68164,0.00425 2.49902,-0.10404z" fill="#283f67"/><path d="M173.90479,22.3972c0.55811,-1.13861 1.25391,-2.1106 2.50928,-2.45292c2.82129,-0.76962 4.23926,0.49061 5.32031,2.76344l0.00879,0.09789l-0.04102,-0.0699l0.31494,-0.1036c0.13623,0.33601 0.12598,0.16867 0.03516,0.5186l-0.00293,0.10419c-0.04834,1.62673 -0.35596,3.13565 -1.62305,4.30151c-0.84814,0.76493 -1.96875,1.15619 -3.1084,1.08542c-2.20166,-0.12778 -3.8335,-2.04569 -3.87158,-4.22678c-0.00732,-0.39771 0.0293,-0.82633 0.05273,-1.22536l-0.10254,-0.34495l0.11133,-0.19241l0.19629,0.06316l0.06006,0.3703l0.16113,0.01583l0.11865,-0.23109l-0.30029,-0.46116z" fill="#384f75"/><path d="M173.49902,23.18969c0.28711,0.66353 0.22412,1.73532 0.45557,2.58129c3.06885,3.77485 7.77832,2.13215 8.09766,-2.62027l-0.00293,0.10419c-0.04834,1.62673 -0.35596,3.13565 -1.62305,4.30151c-0.84814,0.76493 -1.96875,1.15619 -3.1084,1.08542c-2.20166,-0.12778 -3.8335,-2.04569 -3.87158,-4.22678c-0.00732,-0.39771 0.0293,-0.82633 0.05273,-1.22536z" fill="#060912"/><path d="M181.34766,22.52968l-0.16113,0.18273c-1.86768,0.50776 -0.06299,1.63538 -1.41504,2.66408c-0.48926,0.10946 -4.85156,0.17189 -5.11963,0.00322l0.25635,-0.18449l0.34424,0.06697c0.7002,-0.02564 1.89404,-0.44299 2.14307,-1.13846l0.22852,-0.05993c0.51709,0.74017 0.60352,1.05376 1.52637,1.14901c1.75928,-0.63876 0.42188,-1.68623 0.92432,-2.66189c0.44531,-0.2286 0.76465,-0.10961 1.27295,-0.02125z" fill="#283f67"/><path d="M173.90479,22.3972c0.55811,-1.13861 1.25391,-2.1106 2.50928,-2.45292c2.82129,-0.76962 4.23926,0.49061 5.32031,2.76344l-0.38672,-0.17805c-1.01953,-2.46523 -2.8418,-2.52853 -5.12842,-2.21963c-0.7749,0.56051 -2.00977,1.98077 -2.31445,2.08716z" fill="#546f98"/><path d="M150.31641,22.83624c0.271,-0.47215 0.37354,-1.05728 0.72363,-1.55888c1.71094,-2.44999 6.55225,-2.04188 7.01807,1.24807c0.05273,0.26055 0.13477,0.8341 0.26514,1.01845l-0.06299,0.99251l0.3208,0.08353c-0.22559,1.31021 -0.63574,2.34023 -1.72852,3.16188c-0.90527,0.66705 -2.03906,0.94532 -3.14941,0.77285c-2.23975,-0.32532 -3.96533,-2.30169 -3.62695,-4.59899l0.04248,-0.1672c-0.13184,-0.31565 -0.15381,-0.33982 -0.16113,-0.67555z" fill="#384f75"/><path d="M158.58105,24.61991c-0.22559,1.31021 -0.63574,2.34023 -1.72852,3.16188c-0.90527,0.66705 -2.03906,0.94532 -3.14941,0.77285c-2.23975,-0.32532 -3.96533,-2.30169 -3.62695,-4.59899c0.32666,1.41132 0.61377,2.33173 1.95264,3.18811c0.96387,0.61854 2.13428,0.82472 3.25049,0.57224c1.67432,-0.39229 2.51514,-1.62336 2.98096,-3.17961z" fill="url(#color-5)"/><path d="M150.31641,22.83624c0.271,-0.47215 0.37354,-1.05728 0.72363,-1.55888c1.71094,-2.44999 6.55225,-2.04188 7.01807,1.24807c-0.92139,-1.32003 -1.51758,-2.05536 -3.19189,-2.37657c-2.62939,-0.50439 -3.3999,0.82062 -4.40186,2.86455z" fill="#546f98"/><path d="M156.1377,25.16123l0.15527,0.05319l0.06299,0.15973c-0.28564,0.06536 -4.47949,0.02213 -4.59521,-0.03825c0.5918,-0.37148 1.28906,-0.13863 1.64795,-0.52197c-0.44238,-0.41559 -0.76758,-0.55538 -0.76465,-1.13905c0.5376,-0.26773 0.06299,0.29191 0.9917,0.59451c0.52295,-0.15606 0.74414,-0.43991 1.13232,-0.82663c0.07764,0.44343 0.09229,0.55275 0.50391,0.75394l0.19043,-0.20091c0.15967,-0.56652 0.18311,-0.64521 0.104,-1.23738l-0.22852,-0.17204c-0.35449,0.20325 -0.24023,0.1313 -0.4292,0.60579c-0.60791,-0.1439 -1.01367,-0.33572 -1.58643,-0.58117l0.16992,-0.18742c0.63428,-0.05349 3.49365,-0.05715 3.97412,0.21321c-0.33838,0.24106 -0.5332,0.18786 -0.96094,0.17204l-0.16113,-0.00674c0.0293,0.57473 -0.09521,1.77312 -0.20654,2.35914z" fill="#283f67"/><path d="M156.1377,25.16123l-0.4248,-0.1332c-0.18018,-0.65562 0.04248,-1.8294 0.63135,-2.22593c0.0293,0.57473 -0.09521,1.77312 -0.20654,2.35914z" fill="#243b62"/><path d="M158.32324,23.54387l0.13623,-0.26084c0.30029,0.3155 0.22119,0.9399 0.12158,1.33688l-0.3208,-0.08353z" fill="#132b53"/><path d="M143.41992,19.63069c0.97456,-0.98606 1.54175,-2.24689 3.03516,-2.16849c0.21387,0.20999 0.38672,0.3728 0.57568,0.60594l0.15234,-0.04382l0.24609,0.0444c0.13184,0.40254 0.15234,1.27269 0.13477,1.67773c-0.12744,2.93914 0.52734,24.80191 -0.19629,25.56509l-0.08643,0.14317l0.0791,0.07415c0.11279,5.93528 0.01025,11.94969 0.04834,17.90314c-5.95518,0.02828 -12.49805,0.15504 -18.41792,-0.01715c-0.58477,-0.72757 -1.8498,-2.44999 -2.40762,-3.00508c-2.46548,-0.01465 -4.93096,-0.00982 -7.39629,0.01421l0.01846,-14.84648l-0.00059,-0.32839l-0.06665,-0.52285c0.01567,-1.04336 -0.06255,-1.2746 0.65522,-2.10357c0.99976,-1.15458 2.19521,-2.10372 3.33574,-3.12011l-0.12729,-0.20017c-1.11401,-1.45513 1.1272,-3.02223 2.10396,-3.95568c0.50508,-0.56227 0.85093,-0.89389 1.41533,-1.3996l0.77344,-0.7409c1.07974,-0.63056 1.30122,-0.46101 2.24692,0.34481c0.88887,-1.3612 7.35791,-6.96618 7.67461,-7.98947c-1.21729,-2.07133 1.37241,-3.34212 2.84341,-4.87243c1.3478,-1.22946 1.64004,-2.12086 3.3605,-1.05845z" fill="url(#color-6)"/><path d="M119.20532,45.57751c6.7481,-0.20647 14.09136,0.17687 20.89629,0.01524c1.30107,-0.03092 6.24126,0.108 7.17964,-0.13804l0.0791,0.07415c0.11279,5.93528 0.01025,11.94969 0.04834,17.90314c-5.95518,0.02828 -12.49805,0.15504 -18.41792,-0.01715c-0.58477,-0.72757 -1.8498,-2.44999 -2.40762,-3.00508c-2.46548,-0.01465 -4.93096,-0.00982 -7.39629,0.01421z" fill="#132b53"/><path d="M139.8501,47.47827c2.30024,-0.14947 4.32715,0.66719 4.52754,3.22621c-0.80024,-1.48913 -1.15737,-2.13376 -2.78145,-2.76212c-3.06636,-0.13467 -3.67046,0.58059 -5.09209,3.21258c0.76641,-2.39196 0.87422,-2.82117 3.346,-3.67667z" fill="#546f98"/><path d="M124.70552,47.48765c2.63203,-0.21292 4.24951,0.44709 4.86108,3.195c-0.30439,-0.08426 -0.89751,-1.57266 -1.425,-1.96568c-0.57144,-0.42584 -0.73535,-0.47171 -1.41753,-0.73885c-2.53022,-0.62924 -3.84727,0.67804 -5.03745,2.70438c-0.32842,-1.43477 1.88848,-2.79846 3.0189,-3.19485z" fill="#546f98"/><path d="M142.20176,49.74275c0.22529,-0.08441 0.59341,-0.05788 0.84976,-0.05598l0.21108,0.24707l0.05303,-0.01612l-0.03999,0.07752c-0.8918,0.26509 -1.89316,0.17086 -2.83359,0.14463c-0.31392,-0.04748 -0.56733,0.11708 -0.86206,0.25527l-0.1166,-0.15181l0.06401,-0.27681c0.64365,-0.24487 1.93638,-0.20721 2.67437,-0.22377z" fill="#283f67"/><path d="M142.66729,50.61128c0.17725,0.1017 0.22383,0.21043 0.34043,0.38188c0.0126,0.56403 0.03823,0.72933 -0.14663,1.26815c-0.66108,0.65767 -1.33301,0.29 -2.61738,0.36562l-0.00894,-0.20823c0.41572,-0.25732 0.89194,-0.01817 1.41123,-0.06858c1.2126,-0.11782 1.00913,-0.89052 1.02129,-1.73883z" fill="#243b62"/><path d="M127.1436,49.51708c0.51636,-0.01509 0.88418,-0.06096 1.36934,0.13555l0.02695,0.20618l-0.30937,0.27344c-0.49585,0.00015 -1.00737,0.04777 -1.44492,-0.1738l-0.01289,-0.20677z" fill="#283f67"/><path d="M147.18311,18.02433l0.24609,0.0444c0.13184,0.40254 0.15234,1.27269 0.13477,1.67773c-0.12744,2.93914 0.52734,24.80191 -0.19629,25.56509l-0.08643,0.14317c-0.93838,0.24604 -5.87856,0.10712 -7.17964,0.13804c-6.80493,0.16163 -14.14819,-0.22171 -20.89629,-0.01524l-0.00059,-0.32839l-0.06665,-0.52285c1.28115,-0.25908 6.10562,-0.00703 7.76411,-0.00484l20.2604,-0.01964c-0.0835,-7.09851 -0.08789,-14.1976 -0.01465,-21.29625c-0.00293,-1.79379 0.00879,-3.58757 0.03516,-5.38121z" fill="#060912"/><path d="M119.20474,45.24912c6.50903,-0.06873 13.02979,-0.00982 19.53999,-0.00996c1.52813,0 7.61001,-0.18215 8.62295,0.07239l-0.08643,0.14317c-0.93838,0.24604 -5.87856,0.10712 -7.17964,0.13804c-6.80493,0.16163 -14.14819,-0.22171 -20.89629,-0.01524z" fill="#384f75"/><path d="M127.29448,33.20623c1.07974,-0.63056 1.30122,-0.46101 2.24692,0.34481c-0.92622,1.03208 -5.40527,5.77072 -6.41235,5.95154l-0.12729,-0.20017c-1.11401,-1.45513 1.1272,-3.02223 2.10396,-3.95568c0.50508,-0.56227 0.85093,-0.89389 1.41533,-1.3996z" fill="#384f75"/><path d="M125.10571,35.34673c0.66211,0.06624 1.0604,0.11796 1.70801,0.26113c-0.28828,0.66631 -3.11733,3.3093 -3.81196,3.69455c-1.11401,-1.45513 1.1272,-3.02223 2.10396,-3.95568z" fill="#0f192c"/><path d="M126.52104,33.94713l0.77344,-0.7409c0.65391,0.0507 0.67529,-0.05275 1.12061,0.28121c-0.03823,0.66441 -0.85166,0.89887 -1.41079,0.81505c-0.16787,-0.11196 -0.3479,-0.21277 -0.48325,-0.35536z" fill="#939ab0"/><path d="M143.41992,19.63069c0.97456,-0.98606 1.54175,-2.24689 3.03516,-2.16849c0.21387,0.20999 0.38672,0.3728 0.57568,0.60594l0.15234,-0.04382c-0.02637,1.79364 -0.03809,3.58743 -0.03516,5.38121c-0.10986,-0.25278 -0.22998,-3.74701 -0.29297,-4.40556c-0.53159,0.26245 -1.20996,0.09379 -1.76074,-0.03151l-0.15835,-0.42335c-1.05381,0.99456 -2.79639,2.89957 -3.81504,3.68678l-0.3895,-0.09203l-0.25005,0.16266l-0.52368,-0.29323c0.26191,-0.60638 0.27319,-0.68361 0.10181,-1.32017c1.3478,-1.22946 1.64004,-2.12086 3.3605,-1.05845z" fill="#243b62"/><path d="M145.09424,18.96848c0.05859,-0.50908 -0.03472,-0.35492 0.29385,-0.64507c0.51768,-0.12734 1.00752,-0.0359 1.54014,0.0211c-0.25342,0.82135 -1.04399,0.60755 -1.83398,0.62396z" fill="#283f67"/><path d="M140.05942,20.68914c0.17139,0.63657 0.16011,0.71379 -0.10181,1.32017l0.52368,0.29323c-1.09644,1.07838 -2.18496,2.16468 -3.26528,3.25903c-1.21729,-2.07133 1.37241,-3.34212 2.84341,-4.87243z" fill="#0f192c"/><path d="M129.00952,82.29395c5.49316,-0.29982 12.78149,-0.08954 18.41528,-0.06594c0.06006,5.79739 0.04688,11.59536 -0.03662,17.39245l-0.0542,0.18229l0.08936,0.15094l-0.06885,0.18435c-0.07324,9.06492 0.18604,18.66529 -0.00439,27.63144l-1.90078,0.02872c-0.71514,-0.75995 -1.23149,-1.33395 -2.05122,-1.98898c-0.27832,0.19622 -0.97896,0.65606 -1.28818,0.42379c-1.52285,-1.14374 -4.46777,-3.67447 -5.29658,-5.30047c-0.10342,-0.48783 0.13169,-0.87455 0.33691,-1.32955c-1.04165,-1.16968 -6.75425,-7.06598 -7.81538,-7.58531c-0.27349,0.21702 -0.42642,0.30905 -0.72744,0.48842c-1.16484,-0.23358 -5.06572,-4.20275 -5.71685,-5.48408c-0.22207,-0.43698 -0.01289,-0.85198 0.17139,-1.23899c-0.2231,-0.69826 -2.0124,-2.4242 -2.74702,-2.58539c-0.22017,-0.62543 -0.94922,-1.38377 -1.40068,-1.91512l0.19644,-0.09247c0.01304,-0.41192 0.08394,-0.97361 0.12598,-1.39754l-0.00703,-0.37851c-0.04146,-4.71138 -0.03794,-9.42306 0.01069,-14.1343c2.44043,-0.01451 5.15186,0.02096 7.55991,-0.1672c0.55269,-0.71658 1.63813,-2.21128 2.20928,-2.81854z" fill="url(#color-7)"/><path d="M119.23667,99.79249l18.32314,0.01524c2.84839,0.00132 6.92739,0.11635 9.70972,-0.04059l0.06445,0.03561l0.08936,0.15094l-0.06885,0.18435c-0.07324,9.06492 0.18604,18.66529 -0.00439,27.63144l-1.90078,0.02872c-0.71514,-0.75995 -1.23149,-1.33395 -2.05122,-1.98898c-0.27832,0.19622 -0.97896,0.65606 -1.28818,0.42379c-1.52285,-1.14374 -4.46777,-3.67447 -5.29658,-5.30047c-0.10342,-0.48783 0.13169,-0.87455 0.33691,-1.32955c-1.04165,-1.16968 -6.75425,-7.06598 -7.81538,-7.58531c-0.27349,0.21702 -0.42642,0.30905 -0.72744,0.48842c-1.16484,-0.23358 -5.06572,-4.20275 -5.71685,-5.48408c-0.22207,-0.43698 -0.01289,-0.85198 0.17139,-1.23899c-0.2231,-0.69826 -2.0124,-2.4242 -2.74702,-2.58539c-0.22017,-0.62543 -0.94922,-1.38377 -1.40068,-1.91512l0.19644,-0.09247c0.01304,-0.41192 0.08394,-0.97361 0.12598,-1.39754z" fill="#d48b25"/><path d="M119.23667,99.79249l18.32314,0.01524c2.84839,0.00132 6.92739,0.11635 9.70972,-0.04059l0.06445,0.03561l0.08936,0.15094l-0.06885,0.18435c-1.89038,0.38481 -4.33564,0.10712 -6.27554,0.10258c-2.15801,-0.00498 -21.47593,-0.18816 -21.7248,0.17585c-0.14604,0.21351 -0.18823,0.52417 -0.24346,0.77358c0.01304,-0.41192 0.08394,-0.97361 0.12598,-1.39754z" fill="#edb156"/><path d="M137.15024,119.60298c1.3103,1.39344 5.40337,5.06953 6.24785,6.20623c-0.27832,0.19622 -0.97896,0.65606 -1.28818,0.42379c-1.52285,-1.14374 -4.46777,-3.67447 -5.29658,-5.30047c-0.10342,-0.48783 0.13169,-0.87455 0.33691,-1.32955z" fill="#ad5308"/><path d="M123.06196,105.78301l0.29077,-0.03048c0.77974,0.86619 5.90552,5.83285 5.98213,6.26514c-0.27349,0.21702 -0.42642,0.30905 -0.72744,0.48842c-1.16484,-0.23358 -5.06572,-4.20275 -5.71685,-5.48408c-0.22207,-0.43698 -0.01289,-0.85198 0.17139,-1.23899z" fill="#ad5308"/><path d="M119.22964,99.41398c9.07456,-0.17526 18.32153,0.11958 27.41001,0.08983c0.26221,-0.00073 0.44824,0.08895 0.62988,0.26333c-2.78232,0.15694 -6.86133,0.04191 -9.70972,0.04059l-18.32314,-0.01524z" fill="#7f3c0b"/><path d="M136.88584,91.43389c0.43594,-1.12733 1.01177,-1.85431 2.15786,-2.35679c1.03506,-0.44445 2.20532,-0.45237 3.24639,-0.02227c1.16016,0.48402 1.98809,1.47155 2.29731,2.68343c0.20361,0.79732 -0.16641,0.91133 0.19189,1.61721l0.16274,0.13247c0.10737,1.06871 -0.45088,3.30754 -1.12104,4.16787c-1.73467,2.2271 -7.34927,0.62382 -7.40098,-2.30521c-0.00674,-0.3703 -0.00278,-0.94357 0.23071,-1.2535c0.1563,-1.08102 -0.47358,-1.45587 0.23511,-2.6632z" fill="#dc962a"/><path d="M144.7793,93.35546l0.16274,0.13247c0.10737,1.06871 -0.45088,3.30754 -1.12104,4.16787c-1.73467,2.2271 -7.34927,0.62382 -7.40098,-2.30521c-0.00674,-0.3703 -0.00278,-0.94357 0.23071,-1.2535c0.2291,0.88026 0.59165,1.27313 1.2123,1.93432c1.87485,1.24778 3.00249,1.43843 5.11157,0.43185c0.99111,-0.87733 1.75898,-1.69795 1.80469,-3.1078z" fill="#ad5308"/><path d="M137.86304,96.03141c1.87485,1.24778 3.00249,1.43843 5.11157,0.43185c0.20039,0.31521 0.16143,0.14683 0.11294,0.52344c-1.20688,1.90237 -4.65308,1.66088 -5.41816,-0.7475z" fill="#a9490d"/><path d="M136.88584,91.43389c0.43594,-1.12733 1.01177,-1.85431 2.15786,-2.35679c1.03506,-0.44445 2.20532,-0.45237 3.24639,-0.02227c1.16016,0.48402 1.98809,1.47155 2.29731,2.68343c-0.23892,-0.0803 -0.38379,-0.12837 -0.61597,-0.23974l-0.83584,0.30744l-0.17769,-0.06638c-0.7626,0.4786 -0.20552,1.51448 -0.6356,2.04071c-0.28755,-0.57766 0.14648,-1.01991 -0.22998,-1.69355l-0.3,-0.06536c-0.21753,0.32942 -0.14648,0.24868 -0.14971,0.71746c-0.11558,-0.6647 0.01304,-0.51098 -0.42671,-0.88217c-0.52676,-0.32268 -0.84961,-0.24062 -1.46953,-0.19021l0.11045,-0.16764c0.73916,-0.19329 3.17607,-0.29835 3.95742,-0.20003l0.08657,-0.23051c-0.68159,-1.71759 -2.97378,-2.36265 -4.5457,-1.55757c-1.2022,0.61546 -1.54072,0.98328 -2.46929,1.92318z" fill="#edb156"/><path d="M141.64263,92.73882c0.00322,-0.46878 -0.06782,-0.38804 0.14971,-0.71746l0.3,0.06536c0.37646,0.67364 -0.05757,1.1159 0.22998,1.69355c0.43008,-0.52622 -0.127,-1.56211 0.6356,-2.04071l0.17769,0.06638c-0.30645,1.31211 0.53262,2.06313 -0.70166,2.69574l-1.00503,-0.30597l0.02271,-0.15489c0.40884,-0.54014 0.27686,-0.68258 0.19102,-1.302z" fill="#dc962a"/><path d="M142.43394,94.50169l-0.44004,0.28399c-1.12646,-0.07195 -2.97715,0.38276 -3.4979,0.06624c0.773,-0.82927 1.75664,-0.17614 2.93291,-0.6562z" fill="#cd7f1c"/><path d="M141.21592,91.85666c0.43975,0.37118 0.31113,0.21746 0.42671,0.88217c0.08584,0.61942 0.21782,0.76186 -0.19102,1.302c-0.28374,-0.30202 -0.41558,-1.74924 -0.23569,-2.18417z" fill="#d48b25"/><path d="M138.75015,91.96202l0.16318,0.31374c-0.16831,0.73387 -0.28682,1.27211 -0.54902,1.98663l-0.17944,-0.28531c0.01069,-0.72273 0.30352,-1.34171 0.56528,-2.01506z" fill="#d48b25"/><path d="M122.09443,90.97977c0.66035,-1.06739 1.57178,-1.82749 2.81631,-2.1109c1.06875,-0.25425 2.19507,-0.05627 3.11309,0.54747c1.65527,1.09142 1.17378,2.0388 1.80103,2.88521c-0.04556,0.80582 -0.53379,2.60796 -0.47534,2.84169c0.20303,0.94401 -0.91494,2.04027 -1.51846,2.73853c-0.61787,0.15372 -1.16279,0.22083 -1.77554,0.34876c-1.177,0.24545 -4.20688,-0.47537 -3.42539,-2.23253c-0.10488,-0.25483 -0.44634,-0.63027 -0.57056,-0.90957c-0.42217,-0.95031 -0.96812,-3.383 0.03486,-4.10867z" fill="#d48b25"/><path d="M129.34951,95.14324c0.20303,0.94401 -0.91494,2.04027 -1.51846,2.73853c-0.61787,0.15372 -1.16279,0.22083 -1.77554,0.34876c-1.177,0.24545 -4.20688,-0.47537 -3.42539,-2.23253c2.33042,1.85035 4.86182,1.36047 6.71938,-0.85476z" fill="#7f3c0b"/><path d="M122.09443,90.97977c0.66035,-1.06739 1.57178,-1.82749 2.81631,-2.1109c1.06875,-0.25425 2.19507,-0.05627 3.11309,0.54747c1.65527,1.09142 1.17378,2.0388 1.80103,2.88521l-0.41865,-0.25556c-0.95171,-2.29803 -2.87021,-3.54625 -5.28076,-2.46713c-0.74341,0.33279 -1.25581,1.03193 -2.03101,1.40092z" fill="#edb156"/><path d="M123.93237,94.45714c1.18022,-0.11049 2.14365,-0.31286 3.14824,0.35008l0.04775,0.23988c-0.43975,0.11371 -0.43506,0.01084 -0.92607,-0.21439c-1.32466,0.4213 -1.93081,0.29616 -3.37529,0.01172l0.18838,-0.18391c0.42729,0.03649 0.53877,-0.00366 0.91699,-0.2034z" fill="#cd7f1c"/><path d="M127.11182,91.20661c0.49043,-0.08646 1.45063,-0.10111 1.6522,0.42965c-0.69243,0.57722 -0.15513,-0.03239 -0.95083,0.08587c-0.58169,-0.04279 -1.70918,-0.05525 -2.18628,-0.18098c0.53291,-0.17526 0.93516,-0.23739 1.48491,-0.33455z" fill="#dc962a"/><path d="M184.59082,86.32744l28.40332,-0.02345l-0.0293,6.42457c0.06885,2.42581 -0.07617,5.30091 0.03955,7.61345c0.1333,2.89606 -2.89746,3.40821 -3.92871,5.47881l0.12744,0.25131c0.14209,0.46702 0.30176,0.68258 0.03809,1.15282c-0.65479,1.17173 -4.42822,4.88357 -5.47119,5.29051c-0.48926,-0.08367 -0.63428,-0.21043 -1.03711,-0.47655c-0.7002,0.43346 -7.69189,7.22732 -7.94824,7.81787c0.20654,0.45075 0.42041,0.80128 0.34131,1.29292c-0.59033,1.0312 -4.32861,4.78495 -5.40088,5.23643c-0.5127,-0.01978 -0.72363,-0.23461 -1.13086,-0.53399l-1.85449,1.89519l-1.84131,0.03678l-0.05566,-0.09569c-0.03809,-0.03854 -0.0791,-0.07327 -0.11279,-0.11577c-0.33545,-0.43405 -0.30908,-25.55278 -0.09814,-27.7497l-0.03809,-0.11723c0.20361,-3.8235 0.01025,-9.42086 -0.00293,-13.3783z" fill="#d48b25"/><path d="M184.59082,86.32744l28.40332,-0.02345l-0.0293,6.42457c-0.18018,1.98678 -0.12451,4.84166 -0.11426,6.88046c-0.99609,-0.61576 -15.35596,-0.00557 -17.95312,-0.23373c-1.5542,-0.13643 -8.13721,-0.06418 -9.82471,0.12676l-0.44092,0.32092l-0.03809,-0.11723c0.20361,-3.8235 0.01025,-9.42086 -0.00293,-13.3783z" fill="url(#color-8)"/><path d="M202.52051,92.38142c0.26514,-1.37263 0.58301,-2.25832 1.84424,-3.09784c0.90967,-0.59744 2.02148,-0.80157 3.0835,-0.56608c0.99316,0.22054 1.85596,0.83014 2.39502,1.69224c0.3999,0.62821 0.75,1.7551 0.81299,2.49337c-0.0835,0.43815 -0.49658,2.01814 -0.47754,2.23253c0.14209,0.75263 -1.05469,2.6232 -1.90869,2.9069c-2.84619,0.9443 -5.44336,0.32151 -6.78955,-2.39724c0.00146,-0.64844 0.15674,-2.31913 0.50684,-2.85414l0.21826,0.00615l0.1377,0.59627z" fill="#dc962a"/><path d="M210.17871,95.13562c0.14209,0.75263 -1.05469,2.6232 -1.90869,2.9069c-2.84619,0.9443 -5.44336,0.32151 -6.78955,-2.39724c0.00146,-0.64844 0.15674,-2.31913 0.50684,-2.85414l0.21826,0.00615l0.1377,0.59627c0.24902,2.97445 3.16553,4.11775 5.69092,3.20804c1.03418,-0.37294 1.34912,-0.78765 2.14453,-1.46598z" fill="#ad5308"/><path d="M202.52051,92.38142c0.26514,-1.37263 0.58301,-2.25832 1.84424,-3.09784c0.90967,-0.59744 2.02148,-0.80157 3.0835,-0.56608c0.99316,0.22054 1.85596,0.83014 2.39502,1.69224c0.3999,0.62821 0.75,1.7551 0.81299,2.49337c-0.07764,-0.21263 -0.15967,-0.42335 -0.24756,-0.63217c-1.87646,-4.4671 -6.43945,-3.95011 -7.88818,0.11049z" fill="#edb156"/><path d="M206.0625,92.72212l0.37939,-0.02433c0.24463,0.45075 0.06738,0.75512 -0.01318,1.39051c0.23291,0.15489 1.36963,0.13364 1.85156,0.18523c0.15234,0.35067 0.1084,0.23388 0.04395,0.66749l-0.22559,0.09422c-0.39404,-0.18508 -0.63721,-0.29191 -1.07373,-0.35873c-0.81885,0.12456 -2.14893,-0.02169 -2.92969,-0.24106c1.81641,-0.27579 0.49951,-0.44416 1.14844,-1.46906c0.34424,-0.03971 0.50977,-0.08968 0.81885,-0.24428z" fill="#d48b25"/><path d="M206.22949,91.55889c0.69287,0.31301 0.97266,0.02169 1.5835,0.17599c-0.56836,1.21159 -0.05713,1.31109 -0.52002,1.98927l-0.21533,-0.14273l0.1875,-0.83982c-0.81445,-0.94518 -0.99609,-0.33059 -2.02881,-0.70075c0.35156,-0.29337 0.56543,-0.33382 0.99316,-0.48197z" fill="#d48b25"/><path d="M206.22949,91.55889c0.64893,-0.69049 2.18408,-0.39023 2.99561,-0.07005l0.14209,0.18991c-0.55225,0.01568 -1.0166,-0.02623 -1.5542,0.05612c-0.61084,-0.15431 -0.89062,0.13701 -1.5835,-0.17599z" fill="#edb156"/><path d="M187.52344,92.00217c0.27686,-1.10754 0.87744,-2.06474 1.87354,-2.66071c0.97412,-0.58733 2.1416,-0.76127 3.24463,-0.48299c1.64355,0.41602 2.85938,1.87981 2.90918,3.58288c-0.02344,0.99266 -0.33838,1.87585 -0.33691,2.26213c0.30029,0.49882 -0.09961,1.38289 -0.40283,1.81166c-0.99463,1.40766 -2.59131,1.90999 -4.16162,2.23546c-1.67871,-0.48929 -3.17871,-2.27473 -3.11133,-4.01254c0.12891,-0.68756 -0.41162,-1.50862 -0.01465,-2.73589z" fill="#dc962a"/><path d="M187.53809,94.73806c0.59033,0.67203 0.89063,1.00922 1.58936,1.59552c1.39453,0.64961 2.45654,0.904 3.97119,0.36371c0.18604,-0.06682 0.36914,-0.13892 0.55078,-0.216c0.79248,-0.57209 1.13672,-0.90957 1.56445,-1.77781c0.30029,0.49882 -0.09961,1.38289 -0.40283,1.81166c-0.99463,1.40766 -2.59131,1.90999 -4.16162,2.23546c-1.67871,-0.48929 -3.17871,-2.27473 -3.11133,-4.01254z" fill="#a9490d"/><path d="M189.12744,96.33358c1.39453,0.64961 2.45654,0.904 3.97119,0.36371c0.18604,-0.06682 0.36914,-0.13892 0.55078,-0.216l0.07471,0.31535c-1.07959,1.74763 -4.87354,1.10183 -4.59668,-0.46306z" fill="#7f3c0b"/><path d="M187.52344,92.00217c0.27686,-1.10754 0.87744,-2.06474 1.87354,-2.66071c0.97412,-0.58733 2.1416,-0.76127 3.24463,-0.48299c1.64355,0.41602 2.85938,1.87981 2.90918,3.58288c-1.69922,-4.10266 -6.01611,-4.67856 -7.82959,-0.40005z" fill="#edb156"/><path d="M190.16162,91.85724c0.02344,-0.37822 -0.0542,-0.23373 0.19922,-0.46643c1.0708,-0.10697 2.94287,-0.33176 3.96826,-0.08104l0.06885,0.20047l-0.24463,0.20413l-0.30029,-0.06096l-0.7002,-0.05378c-0.70166,0.01392 -1.8252,0.00835 -2.36719,0.43947c-0.23145,0.37148 -0.13477,0.6795 -0.08643,1.13597l-0.24316,0.18244l-0.20068,-0.05495c-0.02344,-0.40269 0.05859,-0.78486 0.12158,-1.18536z" fill="#edb156"/><path d="M190.16162,91.85724l0.21533,0.25996c-0.06299,0.40049 -0.14502,0.78267 -0.12158,1.18536l0.20068,0.05495l0.24316,-0.18244c0.26953,-0.14976 0.6416,-0.07034 0.96533,-0.04308c0.17285,-0.22802 0.27832,-0.35536 0.47021,-0.56696l0.18311,0.0718l0.14063,0.43214c-0.35889,0.84363 -2.11816,1.13216 -2.64844,0.15841c0.03955,-0.57986 0.01318,-0.90004 0.35156,-1.37014z" fill="#d48b25"/><path d="M193.15283,91.59963l0.7002,0.05378c-0.5376,0.72171 -0.08203,1.14857 -0.88916,2.40222c-0.10986,-0.52945 0.06592,-1.91395 0.18896,-2.456z" fill="#d48b25"/><path d="M184.63184,99.82297l0.44092,-0.32092c1.6875,-0.19094 8.27051,-0.26318 9.82471,-0.12676c2.59717,0.22816 16.95703,-0.38203 17.95313,0.23373c-1.3667,0.48519 -20.33936,0.01627 -23.49463,0.16193c-0.80566,0.03737 -3.2124,-0.08455 -4.19092,0.03532c-0.05127,0.00645 -0.24902,0.21849 -0.30176,0.30172l-0.02051,27.58044c-0.03809,-0.03854 -0.0791,-0.07327 -0.11279,-0.11577c-0.33545,-0.43405 -0.30908,-25.55278 -0.09814,-27.7497z" fill="#7f3c0b"/><path d="M212.96484,92.72857c0.06885,2.42581 -0.07617,5.30091 0.03955,7.61345c-1.81934,-0.216 -5.47852,-0.11415 -7.46191,-0.11621l-14.44629,0.02359c-1.07666,0.00205 -5.41846,0.07576 -6.23291,-0.14141c0.05273,-0.08323 0.25049,-0.29528 0.30176,-0.30172c0.97852,-0.11987 3.38525,0.00205 4.19092,-0.03532c3.15527,-0.14566 22.12793,0.32327 23.49463,-0.16193c-0.01025,-2.0388 -0.06592,-4.89368 0.11426,-6.88046z" fill="#edb156"/><path d="M188.59424,125.85215c0.77783,-1.02504 5.11377,-5.08418 6.19043,-5.99536c0.20654,0.45075 0.42041,0.80128 0.34131,1.29292c-0.59033,1.0312 -4.32861,4.78495 -5.40088,5.23643c-0.5127,-0.01978 -0.72363,-0.23461 -1.13086,-0.53399z" fill="#ad5308"/><path d="M203.44922,111.17947c1.21582,-0.20677 4.28174,-4.0143 5.75391,-5.10733c0.14209,0.46702 0.30176,0.68258 0.03809,1.15282c-0.65479,1.17173 -4.42822,4.88357 -5.47119,5.29051c-0.48926,-0.08367 -0.63428,-0.21043 -1.03711,-0.47655c0.104,-0.34144 0.44385,-0.59832 0.71631,-0.85945z" fill="url(#color-9)"/><path d="M203.44922,111.17947c0.91699,-0.99881 4.58203,-4.57378 5.62646,-5.35865l0.12744,0.25131c-1.47217,1.09304 -4.53809,4.90057 -5.75391,5.10733z" fill="#7f3c0b"/><path d="M184.65381,17.59013l2.04053,-0.03107c0.52148,0.60198 1.32129,1.4714 1.78857,2.08027c0.39697,-0.29323 0.72949,-0.60726 1.22168,-0.61561c1.43994,0.3218 2.90918,2.33159 3.95068,3.48544c1.13965,1.05669 1.83984,1.36794 1.12207,2.96551l-0.09668,0.33704c1.24805,1.12703 6.63867,6.31276 7.47217,7.45079l0.18457,0.18742l1.11035,-0.9125c1.36523,0.89228 2.09912,1.66088 3.17871,2.87554c0.63721,0.62777 2.34375,2.06913 2.46533,2.97841c0.02051,0.15519 -0.19189,0.74911 -0.25928,0.9317l-0.09082,0.35917c1.30078,0.97844 2.56934,2.4346 3.94922,3.53394c0.02783,5.10499 0.0293,10.20998 0.00439,15.31482c-9.03516,0.3643 -18.98291,-0.08675 -28.12207,0.08924c0.00586,-1.85079 0.22705,-12.20525 -0.09082,-13.18575l0.12451,-0.10258l0.1626,-0.09071c0.4248,-1.26361 0.19336,-13.69937 0.25049,-16.01967c-0.04541,-2.46743 -0.05127,-4.9353 -0.02051,-7.40272c0.00293,-0.82033 0.15674,-3.67755 -0.30176,-4.15805z" fill="url(#color-10)"/><path d="M184.65381,17.59013l2.04053,-0.03107c0.52148,0.60198 1.32129,1.4714 1.78857,2.08027c0.39697,-0.29323 0.72949,-0.60726 1.22168,-0.61561c1.43994,0.3218 2.90918,2.33159 3.95068,3.48544c1.13965,1.05669 1.83984,1.36794 1.12207,2.96551l-0.09668,0.33704c1.24805,1.12703 6.63867,6.31276 7.47217,7.45079c-0.92871,-0.06374 -1.02393,-0.78091 -1.60986,-1.30215c-1.85303,-1.64842 -3.43506,-3.64414 -5.39502,-5.1658c-0.98584,-0.76537 -2.03174,-0.22567 -3.15381,-0.5334c-1.16455,-0.44797 -2.70264,-1.99323 -4.08838,-1.62834c-0.49512,0.41646 -0.37646,0.42863 -0.60791,1.15033c-1.12354,0.75819 -2.13428,2.06078 -2.27783,3.4384c-0.04541,-2.46743 -0.05127,-4.9353 -0.02051,-7.40272c0.00293,-0.82033 0.15674,-3.67755 -0.30176,-4.15805z" fill="#243b62"/><path d="M188.48291,19.63934c0.39697,-0.29323 0.72949,-0.60726 1.22168,-0.61561c1.43994,0.3218 2.90918,2.33159 3.95068,3.48544c1.13965,1.05669 1.83984,1.36794 1.12207,2.96551l-0.09668,0.33704c-1.24805,-0.38965 -5.34229,-4.97457 -6.19775,-6.17238z" fill="#384f75"/><path d="M194.77734,25.47467c-0.7002,-0.523 -2.73779,-2.42185 -3.01904,-3.21141c0.38525,-0.14419 0.91113,0.24956 1.76953,0.24736l0.12744,-0.00147c1.13965,1.05669 1.83984,1.36794 1.12207,2.96551z" fill="#0f192c"/><path d="M189.12598,19.51771c0.62988,-0.08807 0.94336,-0.20222 1.41357,0.26714l0.00146,0.38511c-0.48486,-0.05085 -1.18506,-0.06316 -1.5542,-0.32708z" fill="#bfc7d5"/><path d="M202.3374,33.44993l1.11035,-0.9125c1.36523,0.89228 2.09912,1.66088 3.17871,2.87554c0.63721,0.62777 2.34375,2.06913 2.46533,2.97841c0.02051,0.15519 -0.19189,0.74911 -0.25928,0.9317l-0.09082,0.35917c-1.18066,-0.23036 -5.61328,-5.10587 -6.4043,-6.23231z" fill="#384f75"/><path d="M208.83252,39.32307c-0.71631,-0.40738 -3.37061,-2.90192 -3.46875,-3.67154l0.16992,-0.16222c0.45703,0.034 0.65186,-0.00777 1.09277,-0.07635c0.63721,0.62777 2.34375,2.06913 2.46533,2.97841c0.02051,0.15519 -0.19189,0.74911 -0.25928,0.9317z" fill="#0f192c"/><path d="M202.53809,50.47354c-0.36328,-3.14488 5.52686,-4.23396 7.09717,-1.7129c0.31641,0.50688 0.5376,0.75277 0.45264,1.39476c0.04395,0.51963 0.04248,0.74427 0.24609,1.23972l0.13623,0.0192l0.08057,-0.93902c0.37354,0.83952 -0.50098,2.52678 -0.83057,3.34036c0.41309,1.0079 -1.25244,2.33364 -1.90137,3.14107c-1.16748,0.11298 -3.04102,0.38569 -4.13232,0.03033c1.021,-0.16559 3.28271,-0.0891 3.9668,-0.29279l-0.01758,-0.21996c-1.60107,-0.55392 -3.70898,0.83395 -5.11084,-1.69443c-2.36572,-2.94954 -0.51123,-2.60474 -0.33398,-4.20348l0.09082,0.44313l0.31934,-0.21908z" fill="#132b53"/><path d="M202.5249,54.77989c-2.36572,-2.94954 -0.51123,-2.60474 -0.33398,-4.20348l0.09082,0.44313c0.22852,3.21551 2.46973,5.37081 5.72314,4.29463c0.2373,-0.29557 1.26855,-1.00365 1.71533,-1.49851c0.41309,1.0079 -1.25244,2.33364 -1.90137,3.14107c-1.16748,0.11298 -3.04102,0.38569 -4.13232,0.03033c1.021,-0.16559 3.28271,-0.0891 3.9668,-0.29279l-0.01758,-0.21996c-1.60107,-0.55392 -3.70898,0.83395 -5.11084,-1.69443z" fill="url(#color-11)"/><path d="M209.72021,53.81566c0.41309,1.0079 -1.25244,2.33364 -1.90137,3.14107c-1.16748,0.11298 -3.04102,0.38569 -4.13232,0.03033c1.021,-0.16559 3.28271,-0.0891 3.9668,-0.29279l-0.01758,-0.21996c-1.60107,-0.55392 -3.70898,0.83395 -5.11084,-1.69443c1.67871,1.20177 2.63965,1.4843 4.8457,1.30523c0.28857,-0.02345 0.47754,-0.14903 0.67529,-0.36005c-0.00732,-0.10082 -0.01758,-0.32546 -0.04102,-0.4109c0.2373,-0.29557 1.26855,-1.00365 1.71533,-1.49851z" fill="#0f192c"/><path d="M202.53809,50.47354c-0.36328,-3.14488 5.52686,-4.23396 7.09717,-1.7129c0.31641,0.50688 0.5376,0.75277 0.45264,1.39476l-0.23145,-0.2733l-0.24023,-0.38276c-2.06104,-3.11762 -5.44629,-1.9881 -7.07812,0.97419z" fill="#546f98"/><path d="M209.61621,49.49934l0.24023,0.38276c-0.78955,0.21702 -4.19824,0.49032 -4.84131,0.19797l-0.01025,-0.22772c1.04297,-0.49765 3.49512,0.06389 4.61133,-0.35301z" fill="#243b62"/><path d="M208.03711,52.08855l0.14648,0.09833l0.03809,0.2349c-0.26221,0.20853 -0.67822,0.2034 -1.02832,0.24164l-0.16406,-0.22245l0.13916,-0.21644z" fill="#243b62"/><path d="M187.50879,50.3818c2.0376,-5.24874 8.11084,-2.99937 7.70654,0.17717l0.25195,-0.15079l-0.00439,-0.50497c0.38965,0.67144 -0.33252,3.13184 -0.74414,3.82336l0.38232,0.14625c-0.28418,2.64357 -3.85986,4.014 -6.2915,3.00713c0.19629,-1.03633 -0.96094,-1.54819 -1.27295,-2.73222c0.46289,0.01773 0.4834,0.33382 0.89209,0.34422c-0.59912,-1.07223 -1.46191,-3.0848 -1.04883,-4.31089z" fill="#132b53"/><path d="M194.71875,53.72656l0.38232,0.14625c-0.28418,2.64357 -3.85986,4.014 -6.2915,3.00713c0.19629,-1.03633 -0.96094,-1.54819 -1.27295,-2.73222c0.46289,0.01773 0.4834,0.33382 0.89209,0.34422c0.54932,0.2371 0.66797,0.32605 1.14258,0.671c1.89258,0.64287 2.65723,0.62616 4.35352,-0.44607c0.30615,-0.32502 0.52881,-0.63539 0.79395,-0.99031z" fill="#0f192c"/><path d="M193.9248,54.71687l0.05127,0.30539c-0.36035,0.42687 -0.58301,0.6565 -0.9917,1.03882c-1.39014,0.22259 -2.89893,0.34876 -4.14844,-0.55348l-0.12744,-0.24267l0.10547,-0.17028c0.2124,0.02301 0.55664,0.07049 0.75732,0.06829c1.89258,0.64287 2.65723,0.62616 4.35352,-0.44607z" fill="#060912"/><path d="M187.50879,50.3818c2.0376,-5.24874 8.11084,-2.99937 7.70654,0.17717c-0.50684,-1.10535 -0.8042,-1.72916 -1.87354,-2.38859c-0.84082,-0.51787 -1.85742,-0.66968 -2.8125,-0.42057c-1.49268,0.39595 -2.17529,1.42363 -2.89014,2.6632z" fill="#546f98"/><path d="M192.87158,50.09473c-0.54346,-0.22259 -1.6084,0.03414 -2.60449,-0.09027c0.51123,-0.39287 3.08203,-0.47303 3.80713,-0.38848l0.07617,0.15079c-0.57568,0.34964 -0.39844,0.2497 -1.13232,0.26113z" fill="#283f67"/><path d="M193.01807,50.02791c-0.31348,0.61854 0.07324,0.74852 -0.43213,1.46788c-0.20361,-0.33499 -0.12744,-0.30847 -0.10986,-0.78442c0.12891,-0.20603 0.25635,-0.4194 0.39551,-0.61664z" fill="#243b62"/><path d="M176.63232,146.26155l3.12158,0.01876c0.98584,2.50685 2.10938,5.98422 2.94727,8.56918l2.9209,-8.57709l3.27979,0.03766c0.01172,4.96973 -0.07617,9.96819 0.0249,14.93147l-3.15088,0.04689l0.00586,-2.44574c0.07617,-2.01638 0.10254,-4.03423 0.0791,-6.05354c-0.74707,1.85958 -1.51318,4.33903 -2.16504,6.27921l-1.93652,0.06008c-0.88037,-1.88156 -1.26562,-4.11922 -2.19141,-5.9744c0.05127,2.69046 0.07471,5.38239 0.07031,8.07285l-3.07764,0.02784c0.02344,-4.94423 -0.03076,-10.07604 0.07178,-14.99316z" fill="#132b53"/><path d="M104.52231,61.32697c2.80063,-0.05993 5.79316,-0.0041 8.60903,-0.00161c0.00454,3.65923 0.0356,7.31832 0.09316,10.97711c-0.68833,0.02374 -1.4231,0.0192 -2.11611,0.0277l-9.06401,-0.00513l0.03706,-10.99162z" fill="url(#color-12)"/><path d="M103.9043,65.05536c2.84048,-4.52293 7.70171,-1.13949 6.81401,0.3196c0.03354,0.1099 0.07881,0.1461 0.12393,0.24677c0.72056,1.60695 -0.62754,3.65527 -1.97769,4.30767c-2.13809,1.03296 -3.877,-0.23988 -4.77495,-2.1468c-0.30117,-0.63964 -0.80991,-1.69883 -0.56382,-2.4031c0.09902,-0.26113 0.11162,-0.19358 0.37852,-0.32414z" fill="#132b53"/><path d="M103.9043,65.05536c2.84048,-4.52293 7.70171,-1.13949 6.81401,0.3196c-0.13433,-0.03561 -2.66396,0.0381 -3.09419,0.03766c-0.03369,-0.32239 -0.06987,-0.17497 0.13682,-0.44944c0.71016,-0.02022 1.11855,-0.04074 1.81685,0.05862l-0.11748,0.15636l0.13037,-0.00161l-0.03135,-0.15372l-0.07061,-0.01788l-0.09316,0.15606l0.01333,0.03473c0.37529,0.02008 0.46787,0.01978 0.83716,-0.04557c-0.1437,-0.59436 -0.40723,-1.31797 -0.99229,-1.58028c-2.47222,-1.10842 -4.2126,0.17687 -5.30874,2.20292l-0.12319,0.00322z" fill="#243b62"/><path d="M92.93438,36.53678c3.2168,-0.14317 7.43862,-0.04455 10.69658,-0.02916l0.05581,10.98575c-3.57979,-0.02096 -7.15957,-0.02389 -10.73936,-0.0085c-0.10474,-3.37626 -0.14297,-7.58516 -0.01304,-10.94809z" fill="url(#color-13)"/><path d="M94.72119,40.35852c1.16807,-3.41363 6.98408,-2.92478 6.88608,1.36501c0.04907,0.705 -0.6394,1.99088 -1.1729,2.43856l-0.09478,-0.09188l0.34966,-0.70749c-0.15996,-0.42042 -0.04438,-0.30319 -0.40005,-0.47318c-0.329,0.22904 -0.68716,0.94928 -0.90674,1.32984c-0.85049,0.07298 -1.76631,0.07459 -2.62031,0.04396c-1.85596,-0.06638 -2.8415,-2.3395 -2.04097,-3.90483z" fill="#243b62"/><path d="M94.72119,40.35852c1.16807,-3.41363 6.98408,-2.92478 6.88608,1.36501c-0.21533,-0.41749 -0.26309,-0.98973 -0.54814,-1.39505c-1.89155,-2.69119 -4.18989,-2.38918 -6.21665,-0.03825c-0.04043,0.02271 -0.08086,0.04557 -0.12129,0.06829z" fill="#546f98"/><path d="M101.35591,43.7975c0.03223,0.65371 -0.52734,1.7381 -0.80581,2.37833c-3.11338,0.25146 -2.70234,0.8023 -6.02329,-0.21146l-0.03076,-0.1398c0.41206,-1.67275 3.45029,-0.44401 5.13237,-0.6392c0.7311,-0.45207 1.102,-0.81564 1.72749,-1.38787z" fill="#0f192c"/><path d="M112.99028,146.24909l2.8752,0.03356c1.41841,2.46787 2.68989,5.8837 4.17261,8.50382c-0.05156,-2.83407 -0.05874,-5.6696 -0.02124,-8.50338l3.05039,-0.01099l-0.00205,14.87417c-0.49102,0.08206 -2.40278,0.06301 -3.00747,0.06887c-1.21406,-2.15999 -2.73882,-5.93484 -4.04312,-8.45825l-0.00601,8.44359h-3.07192c-0.01787,-4.57202 -0.18604,-10.47023 0.05361,-14.9514z" fill="#132b53"/><path d="M88.11094,146.27166l3.13594,0.07063l-0.01436,5.82845l3.64321,-0.00293l0.03018,-5.83168l3.03091,-0.01656c0.01069,4.20993 0.07031,10.25027 -0.0312,14.63619c-0.07749,0.1099 -0.14312,0.20222 -0.19687,0.27842l-2.81982,-0.00586c0.0167,-1.99733 -0.03794,-4.0987 -0.05933,-6.10336c-1.20322,0.02052 -2.40146,-0.01758 -3.60439,-0.04543c-0.05317,1.98268 -0.01128,4.15439 -0.01011,6.15172l-3.14868,-0.03077c-0.02358,-4.26722 -0.23687,-10.8864 0.04453,-14.92883z" fill="#132b53"/><path d="M153.09668,146.2658l3.05127,0.00659c0.00439,1.93007 -0.00439,3.86146 -0.0293,5.79138c1.17188,0.04396 2.45361,0.01612 3.63574,0.01172c-0.0498,-1.82441 -0.00146,-3.87743 0.00293,-5.72075l3.07764,-0.06785c0.0498,1.67963 0.14648,14.52819 -0.12598,14.93557l-2.98389,-0.0044c-0.06885,-1.96216 -0.03076,-4.17197 -0.04102,-6.15318l-3.61963,-0.02638c0.08203,2.01491 0.06006,4.10896 0.06885,6.1312l-3.11572,0.03663c-0.03223,-4.74934 -0.07764,-10.2299 0.0791,-14.94055z" fill="#132b53"/><path d="M132.85034,146.22433c1.18594,0.0277 2.43311,0.01187 3.62461,0.01568c-1.3957,1.9815 -2.79141,4.15028 -4.1458,6.17546c1.10361,2.01345 2.15742,4.27162 3.1686,6.35101l1.2334,2.49703c-1.34048,0.04836 -2.20312,0.04103 -3.54009,-0.04982l-2.75156,-6.0975l-1.34385,1.65736c-0.09346,1.26463 -0.04116,3.12715 -0.04365,4.43428l-3.1248,0.01465c0.03311,-4.7127 -0.18091,-10.36326 0.02681,-14.96635l3.10049,0.0192c-0.00513,2.0136 0.00059,4.02851 0.01685,6.04196c1.33462,-2.02078 2.48218,-4.06353 3.779,-6.09296z" fill="#132b53"/><path d="M200.05078,146.26961l2.89746,0.00689c1.26123,4.79081 3.06738,10.10139 4.45313,15.01192c-1.01514,0.03517 -2.17969,0.00293 -3.20654,-0.00293c-0.19629,-0.85139 -0.26514,-2.46479 -1.13086,-2.62598l-3.73096,-0.0044c-0.14502,0.85432 -0.38672,1.76287 -0.59326,2.61133c-1.07227,-0.00293 -2.19141,0.0337 -3.26807,0.05422c1.48535,-4.91639 2.95752,-10.22258 4.5791,-15.05105z" fill="#132b53"/><path d="M201.49072,150.90758c0.26953,0.27403 1.29199,4.46212 1.11621,4.82554l-0.71484,0.04982c-0.61377,0.01905 -0.97412,0.05568 -1.57324,-0.09379c-0.03369,-0.46599 0.97559,-4.03716 1.17188,-4.78158z" fill="#eaeae9"/><path d="M165.56396,146.27987c2.94287,0.0362 5.88721,0.02989 8.82861,-0.0189l-0.02344,2.90426l-5.76123,0.00733l-0.06592,3.04948c1.58057,-0.00293 3.1626,0.00293 4.74463,0.01612l-0.00586,2.80036l-4.55273,0.03224l-0.00879,1.90941l0.02197,1.3848c1.90723,-0.02052 3.81738,-0.00879 5.72461,0.03663l-0.02344,2.89122c-2.96484,0.03224 -5.92822,0.02345 -8.89307,-0.02784c-0.03516,-4.87683 -0.09521,-10.13026 0.01465,-14.9851z" fill="#132b53"/><path d="M100.98237,146.32427c0.86396,-0.04675 1.81978,-0.02901 2.69165,-0.03121c-0.02886,1.86398 -0.36958,10.68418 0.40225,11.68211c0.27305,0.35169 0.78208,0.54366 1.21392,0.57736c0.45879,0.03517 0.91846,-0.08206 1.25933,-0.40298c0.28945,-0.2711 0.48442,-0.65503 0.56528,-1.04189c0.4563,-2.17904 0.1002,-8.20473 0.1125,-10.76551c0.93926,-0.04264 1.99966,-0.03356 2.94961,-0.04543l-0.01172,2.99013c-0.01714,2.84579 0.97222,10.37498 -2.21997,11.52824c-7.6147,2.75054 -7.64912,-4.11189 -7.3418,-9.43713c0.06196,-1.0756 -0.20142,-4.0606 0.07749,-4.94497z" fill="#132b53"/><path d="M79.92466,146.13743c3.94644,-0.39434 5.44365,1.04658 6.10796,4.77308c-1.09966,0.00733 -1.9311,0.0381 -3.02593,0.13335c-0.13535,-0.51289 -0.473,-1.50203 -0.92197,-1.74528c-2.26758,-1.32325 -3.02593,1.48737 -2.8938,3.23412c0.12876,1.70279 -0.71675,6.68219 2.33672,5.99052c0.66929,-0.15094 1.2334,-1.23972 1.54424,-1.82441l0.38774,-0.08792l2.5292,0.0425c-0.40122,2.18783 -1.13643,4.04302 -3.42319,4.56323c-6.69902,1.52694 -6.64277,-4.96768 -6.41807,-9.53824c0.15044,-3.06414 0.73696,-4.80649 3.7771,-5.54094z" fill="#132b53"/><path d="M95.02925,76.764c2.48643,0.23945 5.74365,-0.02213 8.32646,0.05144c0.01245,1.21393 0.15015,7.76467 -0.07266,8.46455c-0.74121,0.34686 -7.19941,0.1946 -8.49668,0.18669c-0.00557,-1.38011 -0.27407,-7.95107 0.24287,-8.70267z" fill="#dc962a"/><path d="M94.78638,85.46667c-0.00557,-1.38011 -0.27407,-7.95107 0.24287,-8.70267c0.42979,0.74193 0.14663,6.60965 0.1106,7.90652c1.44609,0.14493 7.60151,-0.09862 8.07568,0.32107l0.06753,0.28839c-0.74121,0.34686 -7.19941,0.1946 -8.49668,0.18669z" fill="#bc7117"/><path d="M81.41807,25.27289c1.91675,1.85607 4.99775,3.40074 6.94849,5.11949c-1.82432,2.1531 -3.66577,4.29169 -5.52393,6.41563c-0.76948,-0.56696 -3.2042,-2.31576 -3.73887,-2.91086c-0.48999,-0.24032 -1.67227,-1.22624 -2.13721,-1.6134c-0.26851,-0.22127 -0.6293,-0.49999 -0.86646,-0.74178c1.71445,-2.04715 3.69492,-4.21711 5.31797,-6.2691z" fill="url(#color-14)"/><path d="M79.76499,29.24484c1.38999,-2.5533 4.33154,-1.99279 5.38242,0.63129c-0.02388,0.43625 -0.00776,0.76845 -0.17271,1.17173l-0.05449,0.48182c-0.8146,1.49734 -1.72837,2.13713 -3.49937,1.77503c-1.10054,-0.37382 -1.58071,-1.05201 -2.01533,-2.07719c0.17739,-0.67159 -0.20332,-1.18609 0.35947,-1.98268z" fill="#283f67"/><path d="M79.76499,29.24484c1.38999,-2.5533 4.33154,-1.99279 5.38242,0.63129c-0.07075,0.25542 -0.07383,0.23827 -0.24946,0.44064c-0.34907,-0.71218 -0.32373,-0.99222 -0.93369,-1.58541c-0.48735,-0.47039 -1.14492,-0.72244 -1.82183,-0.69811c-1.11079,0.03253 -1.64956,0.45984 -2.37744,1.21159z" fill="#384f75"/><path d="M84.97471,31.04786l-0.05449,0.48182c-0.8146,1.49734 -1.72837,2.13713 -3.49937,1.77503c1.82139,-0.61942 2.3814,-0.70353 3.55386,-2.25685z" fill="#243b62"/><path d="M80.37334,31.82671c0.55562,-0.02594 1.16572,-0.15225 1.59302,0.08162l-0.11572,0.38305c-0.50435,0.07708 -1.26313,0.31828 -1.57383,-0.12573z" fill="#384f75"/><path d="M76.96655,32.28377c1.26768,-0.64052 1.88774,0.8023 2.43896,-1.05625c0.43462,1.02519 0.91479,1.70337 2.01533,2.07719c1.771,0.3621 2.68477,-0.27769 3.49937,-1.77503c0.38804,0.81461 0.23569,1.68505 -0.50625,2.21948c-0.70884,0.51069 -1.83003,1.52621 -2.69019,1.6408c-0.71821,-0.39434 -1.72676,-1.34933 -2.62002,-1.4928c-0.48999,-0.24032 -1.67227,-1.22624 -2.13721,-1.6134z" fill="#0f192c"/><path d="M104.68447,89.44506c1.06831,-0.15562 5.55776,-0.074 6.78384,-0.06887l1.6002,0.00337c0.00996,2.08379 0.10181,4.81396 0.00557,6.84543l-0.00776,1.58336c-0.69551,0.01583 -1.53091,0.05774 -2.21455,0.04206c-1.97681,0.07664 -4.13394,0.04059 -6.12876,0.04162z" fill="#d48b25"/><path d="M104.68447,89.44506c1.06831,-0.15562 5.55776,-0.074 6.78384,-0.06887c-0.6104,0.30172 -0.94966,0.4786 -1.59946,0.67335c-0.70107,0.09481 -1.4606,0.14888 -2.09048,0.4553l-0.0104,0.19504c-0.77725,0.70647 -1.49019,1.27211 -1.58613,2.38712c-0.28447,0.86326 0.17944,1.08835 0.04893,1.71143c-0.16348,0.61151 -0.07559,0.98841 -0.04116,1.62615c0.25518,0.4257 0.35068,0.45383 0.80215,0.67599c0.08437,0.23358 0.08262,0.29718 0.23276,0.49179l-1.06729,0.06345c0.63208,0.04015 4.44888,0.02916 4.69453,0.1946c-1.97681,0.07664 -4.13394,0.04059 -6.12876,0.04162z" fill="#cd7f1c"/><path d="M104.68447,89.44506c1.06831,-0.15562 5.55776,-0.074 6.78384,-0.06887c-0.6104,0.30172 -0.94966,0.4786 -1.59946,0.67335c-1.79736,0.09085 -3.47109,-0.02726 -5.18437,-0.60447z" fill="#edb156"/><path d="M112.27515,93.39298c0.02695,0.04294 0.54858,2.25245 0.79893,2.83202l-0.00776,1.58336c-0.69551,0.01583 -1.53091,0.05774 -2.21455,0.04206c-0.24565,-0.16544 -4.06245,-0.15445 -4.69453,-0.1946l1.06729,-0.06345c-0.15015,-0.1946 -0.14839,-0.2582 -0.23276,-0.49179c-0.45146,-0.22215 -0.54697,-0.25029 -0.80215,-0.67599c-0.03442,-0.63774 -0.12231,-1.01464 0.04116,-1.62615c1.76294,3.09432 5.92397,1.86955 6.04438,-1.40546z" fill="#ad5308"/><path d="M111.46831,89.37619l1.6002,0.00337c0.00996,2.08379 0.10181,4.81396 0.00557,6.84543c-0.25034,-0.57956 -0.77197,-2.78908 -0.79893,-2.83202l-0.21475,-0.12632c-0.02314,-1.59918 -1.25332,-2.32206 -2.47383,-2.9998c-0.59238,0.0888 -1.23398,0.27725 -1.8186,0.43302l0.0104,-0.19504c0.62988,-0.30641 1.3894,-0.36049 2.09048,-0.4553c0.6498,-0.19475 0.98906,-0.37162 1.59946,-0.67335z" fill="#dc962a"/><path d="M107.76797,90.69988c0.58462,-0.15577 1.22622,-0.34422 1.8186,-0.43302c1.22051,0.67774 2.45068,1.40062 2.47383,2.9998c-0.5209,-0.39126 -1.17744,-2.54773 -2.57607,-2.57645c-2.03701,-0.04176 -2.25015,1.55082 -3.30249,2.3968c0.09595,-1.11502 0.80889,-1.68066 1.58613,-2.38712z" fill="#edb156"/><path d="M209.03906,146.29643l3.11572,-0.03326c0.16113,3.61278 0.00146,8.4178 -0.00732,12.10326c1.89258,-0.06887 3.78516,-0.0718 5.67773,-0.00733l-0.00732,2.90148c-2.9458,0.00293 -5.8916,0.02345 -8.8374,0.06008c-0.00439,-4.78158 -0.15967,-10.29292 0.05859,-15.02423z" fill="#132b53"/><path d="M141.52515,146.26345c3.15674,0.08851 6.5061,0.03678 9.67749,0.04001l0.00146,2.82073l-3.30029,0.03224l0.02783,8.94329l0.01172,3.0656c-1.01221,0.02345 -2.09458,0.00586 -3.11338,0.00586c0.08701,-3.94923 0.02959,-8.11388 0.03237,-12.0807c-1.17817,-0.05129 -2.17383,-0.02491 -3.3542,0.01319z" fill="#132b53"/><path d="M219.81152,146.26741l3.06445,-0.00967c0.10693,3.93912 -0.02637,8.05687 0.0498,12.0486c1.83838,-0.04103 3.77637,-0.01905 5.62207,-0.02491c0.00732,0.87337 0.06152,2.13654 -0.06885,2.96889c-2.7832,0.10697 -5.89893,0.03663 -8.7085,0.02931c-0.01318,-4.89001 -0.07764,-10.14198 0.04102,-15.01221z" fill="#132b53"/><path d="M122.21895,13.05149c2.45068,-0.0421 4.95967,-0.02323 7.41929,-0.04496l-0.03135,5.24874l0.02842,2.2929c-0.87393,0.23959 -6.22295,0.11914 -7.39482,0.09496c-0.15088,-2.01257 -0.03647,-5.52512 -0.02153,-7.59164z" fill="#384f75"/><path d="M122.21895,13.05149c2.45068,-0.0421 4.95967,-0.02323 7.41929,-0.04496l-0.03135,5.24874c-0.37632,-1.2828 0.06914,-4.09945 -0.20098,-4.69929c-1.46733,0.44952 -1.52593,0.47247 -3.03354,0.47523c-0.80405,0.02742 -1.54351,0.01178 -2.34478,-0.00601c-0.5042,-0.16083 -1.12954,-0.16366 -1.66567,-0.19534c-0.00439,1.0383 -0.07192,5.52211 0.11001,6.28822l-0.23145,0.52505c-0.15088,-2.01257 -0.03647,-5.52512 -0.02153,-7.59164z" fill="#243b62"/><path d="M122.47192,20.11808c0.66328,-0.00747 6.93618,0.15987 7.0062,0.18874l0.15718,0.24135c-0.87393,0.23959 -6.22295,0.11914 -7.39482,0.09496z" fill="#132b53"/><path d="M124.02759,14.0252c0.80127,0.01779 1.54072,0.03343 2.34478,0.00601c-0.89458,0.73409 -1.76001,2.1775 -2.77251,2.02407l-0.14517,-0.28985l0.13154,-0.3026l0.54741,-0.02301l0.13931,-0.19959c-0.38936,-0.36679 -0.59575,-0.5778 -0.61992,-1.08023z" fill="#283f67"/><path d="M107.38989,107.32915c2.475,-0.02052 5.2311,-0.1272 7.67461,-0.01334c0.14956,1.77767 -0.00264,5.26647 0.0293,7.28828c-2.44468,0.12558 -5.279,0.07972 -7.72485,0.01216z" fill="#cd7f1c"/><path d="M109.1915,111.48911c0.49556,-0.12427 1.0021,0.159 1.15576,0.64653c0.15366,0.48739 -0.09888,1.01009 -0.57598,1.19268c-0.33516,0.12822 -0.71367,0.05993 -0.98291,-0.17717c-0.26924,-0.23725 -0.38496,-0.60418 -0.30029,-0.95294c0.08452,-0.34876 0.35552,-0.62177 0.70342,-0.7091z" fill="#d48b25"/><path d="M109.14565,111.88872c0.20581,-0.10258 0.45132,-0.08382 0.63911,0.04894c0.18779,0.13291 0.2874,0.35814 0.25942,0.58645c-0.02783,0.22831 -0.179,0.42277 -0.39331,0.50629c-0.31113,0.12133 -0.6627,-0.02374 -0.79805,-0.32927c-0.13521,-0.30553 -0.00615,-0.66353 0.29282,-0.81241z" fill="#bc7117"/><path d="M112.23267,108.20663c0.27876,0.00322 0.48911,0.07063 0.7582,0.13687c0.65889,0.58572 0.80771,1.04834 0.21138,1.83643l-0.07544,-0.01011c-0.79863,-0.11826 -1.12573,-0.017 -1.43848,-0.87308c0.05581,-0.56667 0.18618,-0.6713 0.54434,-1.09011z" fill="#dc962a"/><path d="M112.50439,108.63496c0.29429,-0.08543 0.60645,0.05832 0.73315,0.33733c0.12671,0.27901 0.02944,0.60887 -0.22837,0.77431c-0.20332,0.13057 -0.46421,0.13027 -0.66724,-0.00073c-0.20303,-0.13101 -0.31099,-0.36855 -0.27598,-0.6077c0.03501,-0.23915 0.2064,-0.43595 0.43843,-0.50322z" fill="#bc7117"/><path d="M95.29292,91.96773c0.42466,0.09422 4.75137,4.36672 5.46167,5.01809c-1.72983,1.79467 -3.49263,3.55753 -5.28735,5.28728c-0.34922,-0.06873 -4.7231,-4.54535 -5.31929,-5.1362c1.72837,-1.70967 3.44341,-3.43283 5.14497,-5.16917z" fill="#d48b25"/><path d="M71.80488,68.90231l7.4458,-0.01114l-0.00688,7.44625l-7.35146,0.01216c0.02666,-2.48281 -0.00249,-4.96578 -0.08745,-7.44727z" fill="#132b53"/><path d="M76.09629,73.34333l0.22383,0.19944c-0.02402,0.6417 -0.14854,0.9125 0.31128,1.37366l0.64277,-0.05114l0.15103,0.16398c-0.43726,0.29777 -0.76582,0.32077 -1.18389,0.04689c-0.28696,-0.55758 -0.18618,-1.10124 -0.14502,-1.73283z" fill="#283f67"/><path d="M107.84063,77.94862c0.7292,-0.01568 1.42954,0.0085 2.15728,0.03063l0.20962,0.00073c0.61274,0.00615 1.22549,0.0063 1.83823,0.00044l-0.27437,0.1971c0.32124,0.25058 0.47212,0.35975 0.82676,0.55861l0.04087,-0.11562c0.15161,0.7412 0.12817,1.48913 0.13374,2.24571c-0.71968,0.19666 -0.98965,0.18229 -1.74478,0.18698l-0.18062,0.27007l0.04878,2.90133c-0.98979,-0.02198 -1.97988,-0.02828 -2.96982,-0.01861c0.00498,-0.92027 0.02915,-1.84024 0.07236,-2.75933l-0.00205,-0.39888c-0.23643,-0.5652 -0.16011,-2.40603 -0.15601,-3.09916z" fill="#d48b25"/><path d="M107.99868,81.44666c0.9375,-0.02008 1.92012,-0.01876 2.84868,-0.12339l0.04878,2.90133c-0.98979,-0.02198 -1.97988,-0.02828 -2.96982,-0.01861c0.00498,-0.92027 0.02915,-1.84024 0.07236,-2.75933z" fill="#412b11"/><path d="M108.26821,81.60448l2.29175,0.01509l0.02329,2.22447l-2.32104,-0.03957z" fill="#d48b25"/><path d="M107.84063,77.94862c0.7292,-0.01568 1.42954,0.0085 2.15728,0.03063c-0.15806,0.67379 0.01392,2.03602 -0.05786,2.90983c-0.49775,0.00747 -1.37109,-0.00909 -1.81919,0.09847l-0.12422,0.06023c-0.23643,-0.5652 -0.16011,-2.40603 -0.15601,-3.09916z" fill="#d48b25"/><path d="M109.9979,77.97925l0.20962,0.00073c0.13389,0.74046 0.10474,1.9582 0.11104,2.74527c0.56572,0.01758 1.96919,0.02506 2.4542,0.14097c-0.71968,0.19666 -0.98965,0.18229 -1.74478,0.18698l-0.18062,0.27007c-0.92856,0.10463 -1.91118,0.10331 -2.84868,0.12339l-0.00205,-0.39888l0.12422,-0.06023c0.4481,-0.10756 1.32144,-0.091 1.81919,-0.09847c0.07178,-0.87381 -0.1002,-2.23604 0.05786,-2.90983z" fill="#412b11"/><path d="M108.12085,80.98755c0.90747,0.03077 2.01475,0.09847 2.90713,0.06565l-0.18062,0.27007c-0.92856,0.10463 -1.91118,0.10331 -2.84868,0.12339l-0.00205,-0.39888z" fill="#d1d1c8"/><path d="M122.18364,65.79627l0.03105,-0.22054c0.45029,-0.51567 1.75591,-0.19636 2.55278,-0.2922l-0.08862,0.31418l-0.02783,0.27036c0.40532,0.3089 2.58633,0.19548 3.24067,0.19065l0.00762,3.97795l-4.19502,0.00381c-0.01128,-0.55157 0.00791,-0.96848 -0.15146,-1.4991c-0.37295,-0.3703 -0.19468,-0.25747 -0.85283,-0.33587c-0.68936,-0.51333 -0.25576,-1.51522 -0.51636,-2.40925z" fill="#132b53"/><path d="M124.65103,65.86807c-0.43066,0.05862 -1.50293,0.02081 -1.89448,-0.20296l0.17593,-0.15548c0.71045,-0.07767 1.03418,-0.01128 1.74639,0.08807z" fill="#132b53"/><path d="M112.66157,54.9421l0.30586,0.11254l3.92402,0.02696l-0.01436,3.99232c-0.99741,0.04074 -3.15967,0.36107 -3.8231,-0.22787c-0.07471,-0.34891 -0.10078,-0.51831 -0.12539,-0.87411l-0.26968,-0.82868c-0.04541,-0.64052 -0.00645,-1.54013 0.00264,-2.20117z" fill="#132b53"/><path d="M112.66157,54.9421l0.30586,0.11254l-0.03882,2.9173l-0.26968,-0.82868c-0.04541,-0.64052 -0.00645,-1.54013 0.00264,-2.20117z" fill="#bfc7d5"/><path d="M60.27114,51.17194l3.8376,0.03063c-0.10283,1.29936 -0.06079,2.60136 0.02139,3.89941l-3.8937,0.00806c0.08569,-1.15502 0.03823,-2.74834 0.03472,-3.9381z" fill="#243b62"/><path d="M116.35312,101.25671c0.81284,-0.03707 1.73921,0.00645 2.56113,0.02579c0.45146,0.53135 1.18052,1.28969 1.40068,1.91512c-0.04526,0.60433 -0.03252,1.39813 -0.04043,2.01814c-1.29595,0.06184 -2.59351,0.0869 -3.89092,0.07503c0.02461,-1.34479 0.0145,-2.68987 -0.03047,-4.03408z" fill="#0f192c"/><path d="M54.33354,35.89464l3.73418,-0.00894c-0.05186,1.20763 -0.00073,2.63844 0.0145,3.8638c-1.20308,0.06111 -2.51602,0.06345 -3.72876,0.08939z" fill="#243b62"/><path d="M86.13809,53.16546c1.16924,0.05466 2.47383,0.02491 3.65508,0.02139l0.0208,3.90205l-3.67192,-0.09144z" fill="#243b62"/><path d="M89.37979,62.09307c1.17554,-0.03927 2.54736,-0.00689 3.73901,-0.00909c0.01011,1.23972 -0.02256,2.53879 -0.03413,3.78379l-3.69595,-0.04616z" fill="#243b62"/><path d="M95.05532,63.99574l3.74106,-0.01905c-0.0145,1.29687 -0.01846,2.46083 0.04321,3.75492c-1.25728,0.02975 -2.5147,0.04396 -3.77227,0.04264z" fill="#132b53"/><path d="M71.20591,49.9353l3.78091,-0.01026c-0.14678,1.33717 -0.06973,2.31605 0.0208,3.64648c-0.66152,0.12529 -2.98081,0.08573 -3.77637,0.08778z" fill="#132b53"/><path d="M115.73027,76.93779c1.1874,0.09261 2.36895,0.08836 3.55972,0.09921c-0.06636,1.2472 0.06431,2.51652 -0.05742,3.75932l-3.50991,0.02667z" fill="#132b53"/><path d="M116.16782,77.50094l2.71084,-0.00718l-0.00923,2.7734c-0.52617,0.07488 -2.05078,0.02858 -2.6521,0.02506c-0.05493,-0.83747 -0.0397,-1.93109 -0.04951,-2.79128z" fill="#eaeae9"/><path d="M121.08208,61.88381l3.58081,0.00542c0.01143,1.14125 0.00923,2.25597 0.10459,3.39429c-0.79687,0.09584 -2.10249,-0.22347 -2.55278,0.2922l-0.03105,0.22054c-0.41001,-0.01114 -0.47549,-0.00879 -0.84829,-0.17482c-0.57231,-0.89858 -0.31685,-2.61221 -0.25327,-3.73763z" fill="#243b62"/><path d="M130.73774,76.62171l3.59077,0.01861c-0.04058,1.18374 -0.01553,2.4667 -0.01377,3.65879l-3.52427,0.0044c0.02007,-1.22771 -0.02109,-2.45424 -0.05273,-3.6818z" fill="#dc962a"/><path d="M111.05933,31.70142c1.22593,-0.02183 2.36367,0.01436 3.5896,0.05774c-0.13184,1.14315 -0.07485,2.33628 -0.05127,3.48925l-3.55005,0.08455c-0.02139,-1.19854 0.00205,-2.43006 0.01172,-3.63154z" fill="#283f67"/><path d="M105.35786,48.92828l3.46787,0.02096l-0.03442,3.46565c-1.12632,0.00337 -2.30229,-0.03297 -3.43286,-0.0507c0.02417,-1.12044 0.00161,-2.30975 -0.00059,-3.43591z" fill="#243b62"/><path d="M101.60654,54.10405l3.21738,0.03224l0.02344,3.45056l-3.28418,0.01026z" fill="#243b62"/><path d="M116.31196,37.06842l3.13271,0.00557c-0.03647,1.10227 -0.0668,1.83423 0.04028,2.93489l-0.17007,0.35287c-0.68262,0.21351 -2.13325,0.10785 -2.93335,0.08763c-0.13052,-0.92994 -0.07778,-2.39973 -0.06958,-3.38095z" fill="#243b62"/><path d="M116.31196,37.06842l3.13271,0.00557c-0.03647,1.10227 -0.0668,1.83423 0.04028,2.93489c-1.01689,-0.49384 -0.9646,-0.77534 -1.19326,-1.8568c-0.55049,-0.25718 -1.20132,-0.54073 -1.73218,-0.81784c-0.18618,1.31211 -0.07061,2.02884 -0.17798,3.11513c-0.13052,-0.92994 -0.07778,-2.39973 -0.06958,-3.38095z" fill="#384f75"/><path d="M75.39331,58.03247l3.10283,-0.01612l0.00996,3.20774l-3.16304,0.02916z" fill="#243b62"/><path d="M80.37349,64.68711c1.04648,-0.00982 2.09312,-0.01334 3.13975,-0.01055l-0.0271,3.12158c-1.00781,0.03473 -2.0666,0.03356 -3.07939,0.04806z" fill="#132b53"/><path d="M52.76851,59.78361l2.89688,0.02022l0.00762,2.97284l-2.89614,0.01553z" fill="#243b62"/><path d="M119.94419,71.45356l2.93584,0.05744l-0.02988,2.945c-0.84932,0.03825 -1.98706,0.00117 -2.85645,-0.00366z" fill="#dc962a"/><path d="M91.47817,69.2181c0.87319,0.07605 1.97065,0.05935 2.8626,0.0699l0.00278,2.945l-2.92251,-0.01055c0.00337,-1.01537 0.00396,-1.98927 0.05713,-3.00435z" fill="#243b62"/><path d="M113.62061,47.17201l2.96484,0.0277c-0.03486,0.93653 0.00088,1.96553 0.01421,2.90939l-2.97759,0.03136c0.03076,-0.94283 0.00352,-2.01506 -0.00146,-2.96845z" fill="#283f67"/><path d="M95.8897,52.3066l2.82275,-0.02374l-0.01436,2.93826l-2.8563,0.02477z" fill="#243b62"/><path d="M61.96084,66.07088l2.82466,-0.0044c-0.02036,0.95324 -0.00088,1.96963 0.00205,2.92859l-2.83652,0.02125z" fill="#132b53"/><path d="M113.9877,87.2014l2.88691,-0.01451l0.02681,2.78293l-2.86392,0.017c-0.05903,-0.89623 -0.04424,-1.88098 -0.0498,-2.78542z" fill="#d48b25"/><path d="M115.46821,62.15198l2.74658,-0.02242l-0.01816,2.89972l-2.72183,-0.02726z" fill="#132b53"/><path d="M116.64331,81.93229c0.67852,-0.13936 1.47759,-0.35301 2.10015,-0.02403c0.60146,0.66265 0.41323,1.75334 0.38687,2.67932c-0.67236,-0.00176 -2.06528,0.03312 -2.67524,-0.07078c-0.01172,-0.84099 -0.02168,-1.6112 0.01699,-2.45497z" fill="#d48b25"/><path d="M116.45508,84.5168c-0.01172,-0.84099 -0.02168,-1.6112 0.01699,-2.45497l0.17124,-0.12954c0.88696,0.2475 1.02319,0.08851 1.83003,0.63876l0.08774,0.35887c-0.4752,0.17467 -0.98628,0.24882 -1.24395,0.60345c0.04717,0.19372 0.07998,0.38276 0.09858,0.58117c-0.35566,0.27168 -0.5335,0.29337 -0.96064,0.40225z" fill="#dc962a"/><path d="M113.71436,94.65541c0.91099,0.01671 1.86343,0.00425 2.77822,0.00542l-0.00879,2.61646l-2.80034,0.02535c0.03369,-0.87352 0.02666,-1.77122 0.03091,-2.64723z" fill="#d48b25"/><path d="M94.79165,60.24096l2.47354,-0.01407l0.01099,2.73838l-2.49302,-0.02286z" fill="#243b62"/><path d="M121.64326,81.55671l0.30029,0.03004c0.37793,0.506 0.26045,1.87131 0.2502,2.58173l-2.025,0.03092c-0.06855,-0.01114 -0.34761,-0.11533 -0.43184,-0.14478c-0.28315,-0.52974 -0.20815,-1.81254 -0.21826,-2.49556c0.69272,0.03502 1.42778,0.00923 2.12461,-0.00234z" fill="#73541c"/><path d="M119.90493,81.84935l1.90942,-0.07781l0.02798,2.05873l-1.98604,-0.02081z" fill="#dc962a"/><path d="M112.12031,75.92477l2.58853,-0.00777l0.0104,2.49043c-0.71162,0.01524 -1.40522,-0.01158 -2.08022,0.21307l-0.04087,0.11562c-0.35464,-0.19885 -0.50552,-0.30803 -0.82676,-0.55861l0.27437,-0.1971c0.22661,-0.63027 0.11851,-1.37659 0.07456,-2.05565z" fill="#412b11"/><path d="M112.50059,76.2155l1.94707,-0.01758l-0.04189,1.93007c-0.56104,0.01304 -1.29448,0.12075 -1.71797,-0.17467c-0.29019,-0.44299 -0.19805,-1.1729 -0.18721,-1.73781z" fill="#d48b25"/><path d="M110.10205,54.56535c0.6895,-0.03033 1.76382,-0.13452 2.39399,0.04396l0.16553,0.33279c-0.00908,0.66104 -0.04805,1.56064 -0.00264,2.20117l-2.59058,-0.01216z" fill="#243b62"/></g></svg></svg>